<?xml version="1.0" encoding="utf-8"?>
<!-- Generator: Adobe Illustrator 27.1.1, SVG Export Plug-In . SVG Version: 6.00 Build 0)  -->
<svg version="1.1" id="Calque_1" xmlns="http://www.w3.org/2000/svg" xmlns:xlink="http://www.w3.org/1999/xlink" x="0px" y="0px"
	 viewBox="0 0 340 340" style="enable-background:new 0 0 340 340;" xml:space="preserve">
<style type="text/css">
	.st0{fill:none;}
	.st1{fill:#22242B;}
	.st2{opacity:0.2;}
	.st3{fill:#00BCD4;}
	.st4{fill:#FFFFFF;}
	.st5{fill:#584464;}
	.st6{fill:#F3DBCE;stroke:#000000;stroke-width:5;stroke-miterlimit:10;}
	.st7{fill:#A67D65;stroke:#000000;stroke-width:5;stroke-miterlimit:10;}
	.st8{fill:#6CC09A;stroke:#000000;stroke-width:5;stroke-miterlimit:10;}
	.st9{fill:#E8E8E7;stroke:#000000;stroke-width:5;stroke-miterlimit:10;}
	.st10{fill:#22242B;stroke:#000000;stroke-width:5;stroke-miterlimit:10;}
	.st11{opacity:0.2;stroke:#000000;stroke-width:5;stroke-miterlimit:10;}
	.st12{fill:#00BCD4;stroke:#000000;stroke-width:5;stroke-miterlimit:10;}
	.st13{fill:none;stroke:#000000;stroke-width:5;stroke-miterlimit:10;}
	.st14{fill:#5F3E60;}
	.st15{fill:none;stroke:#313333;stroke-width:5;stroke-miterlimit:10;}
	.st16{fill:#313333;}
	.st17{fill:#6D7172;stroke:#000000;stroke-width:5;stroke-miterlimit:10;}
	.st18{fill:#FAE21F;}
	.st19{opacity:0.15;clip-path:url(#SVGID_00000133510849094957396390000004696334296433343616_);fill:#FAE21F;}
	.st20{opacity:0.2;clip-path:url(#SVGID_00000008123971672277434720000011769776045911233698_);fill:#FAE21F;}
	.st21{opacity:0.1;clip-path:url(#SVGID_00000105411585910495564630000006431902544951533733_);fill:#FAE21F;}
	.st22{clip-path:url(#SVGID_00000145760415155376555570000010377442873388354716_);fill:#FAE21F;}
	.st23{opacity:0.13;clip-path:url(#SVGID_00000137092887932740674400000006544240221002119553_);fill:#FAE21F;}
	.st24{opacity:0.1;clip-path:url(#SVGID_00000018223584160786712760000001101092478306558593_);fill:#FAE21F;}
	.st25{opacity:0.1;clip-path:url(#SVGID_00000009570289624212132420000011586863263873688252_);fill:#FAE21F;}
	.st26{clip-path:url(#SVGID_00000058575806307214930010000013461197258127588287_);fill:#FAE21F;}
	.st27{clip-path:url(#SVGID_00000183248076385902331020000014987999715969008773_);fill:#FAE21F;}
	.st28{clip-path:url(#SVGID_00000061465772651431064420000009981606786976190124_);fill:#FAE21F;}
	.st29{clip-path:url(#SVGID_00000019653227644033513680000015300265216665469078_);fill:#FAE21F;}
	.st30{opacity:0.15;clip-path:url(#SVGID_00000130629098665348123290000013722786509081369236_);fill:#181919;}
	.st31{opacity:0.2;clip-path:url(#SVGID_00000102520581545339422450000015002611714523098794_);fill:#181919;}
	.st32{opacity:0.1;clip-path:url(#SVGID_00000106145933226398017990000016481914007600229009_);fill:#181919;}
	.st33{clip-path:url(#SVGID_00000137833926722995378320000006697993917867306916_);fill:#1E202E;}
	.st34{fill:#422827;}
	.st35{opacity:0.13;clip-path:url(#SVGID_00000181084952965301602370000002148753237714091395_);fill:#181919;}
	.st36{opacity:0.1;clip-path:url(#SVGID_00000098202748294120920070000014013308696320430260_);fill:#181919;}
	.st37{opacity:0.1;clip-path:url(#SVGID_00000057117217895606792760000003072566394301322405_);fill:#181919;}
	.st38{clip-path:url(#SVGID_00000154383826802247189390000016840988489948326038_);fill:#1E202E;}
	.st39{clip-path:url(#SVGID_00000165931028986492843410000011965252072243912379_);fill:#1E202E;}
	.st40{fill:#DE3942;}
	.st41{fill:#18181E;}
	.st42{clip-path:url(#SVGID_00000054243005504710716750000011081469239348633729_);fill:#FFFFFF;}
	.st43{clip-path:url(#SVGID_00000018923858650875291740000004860155421041204925_);fill:#FFFFFF;}
	.st44{fill:#242258;}
	.st45{fill:#EF548B;}
	.st46{fill:#0087A3;}
	.st47{fill:#37C093;}
	.st48{fill:#FF3D00;}
	.st49{fill:#EF548B;stroke:#000000;stroke-width:5;stroke-miterlimit:10;}
	.st50{fill:#F7EFEB;stroke:#000000;stroke-width:5;stroke-miterlimit:10;}
	.st51{fill:#E83131;}
	.st52{fill:#A94141;}
	.st53{fill:#E94949;}
	.st54{fill:#825626;stroke:#000000;stroke-width:5;stroke-miterlimit:10;}
	.st55{opacity:0.72;fill:#D9B29C;}
	.st56{stroke:#000000;stroke-width:5;stroke-miterlimit:10;}
	.st57{fill:#FFFFFF;stroke:#000000;stroke-width:5;stroke-miterlimit:10;}
	.st58{fill:#E94949;stroke:#000000;stroke-width:5;stroke-miterlimit:10;}
	.st59{fill:#37C093;stroke:#000000;stroke-width:5;stroke-miterlimit:10;}
	.st60{fill:#825626;}
	.st61{fill:#F7EFEB;}
	.st62{fill:#EAF286;}
	.st63{fill:#50FA7B;}
	.st64{fill:#8AE9FD;}
	.st65{fill:#FF79C6;}
	.st66{fill:#BE93F9;}
	.st67{fill:#00A7D9;}
	.st68{fill:#BE93F9;stroke:#000000;stroke-width:5;stroke-miterlimit:10;}
	.st69{fill:#FF79C6;stroke:#000000;stroke-width:5;stroke-miterlimit:10;}
	.st70{fill:#8AE9FD;stroke:#000000;stroke-width:5;stroke-miterlimit:10;}
	.st71{fill:#50FA7B;stroke:#000000;stroke-width:5;stroke-miterlimit:10;}
	.st72{fill:#EAF286;stroke:#000000;stroke-width:5;stroke-miterlimit:10;}
	.st73{opacity:0.15;clip-path:url(#SVGID_00000147935242114091847400000011918585498319856318_);fill:#FAE21F;}
	.st74{opacity:0.2;clip-path:url(#SVGID_00000093167610608876826990000006201547873038776978_);fill:#FAE21F;}
	.st75{opacity:0.1;clip-path:url(#SVGID_00000116229911054527732370000016138307368478835099_);fill:#FAE21F;}
	.st76{clip-path:url(#SVGID_00000137112392482573744980000005255319533233912192_);fill:#FAE21F;}
	.st77{opacity:0.13;clip-path:url(#SVGID_00000014598447290076128310000005842999541996685482_);fill:#FAE21F;}
	.st78{opacity:0.1;clip-path:url(#SVGID_00000084521827660314912930000007896802544005387168_);fill:#FAE21F;}
	.st79{opacity:0.1;clip-path:url(#SVGID_00000047056825989702165180000006536737108506676647_);fill:#FAE21F;}
	.st80{clip-path:url(#SVGID_00000098203423725219365210000014705435981219168656_);fill:#FAE21F;}
	.st81{clip-path:url(#SVGID_00000029023767923569142120000014861969201273944476_);fill:#FAE21F;}
	.st82{clip-path:url(#SVGID_00000006675319301776078700000002301298964672572307_);fill:#FAE21F;}
	.st83{clip-path:url(#SVGID_00000122722602519738298890000000340721730600928137_);fill:#FAE21F;}
	.st84{opacity:0.15;clip-path:url(#SVGID_00000089547391287581535340000009854592362002619582_);fill:#181919;}
	.st85{opacity:0.2;clip-path:url(#SVGID_00000098935096358598604130000016809267726707527300_);fill:#181919;}
	.st86{opacity:0.1;clip-path:url(#SVGID_00000017500144504713218150000008437916998949299355_);fill:#181919;}
	.st87{clip-path:url(#SVGID_00000106839165164700929970000001959343000475028365_);fill:#1E202E;}
	.st88{opacity:0.13;clip-path:url(#SVGID_00000089560539451406642200000009445030652598001810_);fill:#181919;}
	.st89{opacity:0.1;clip-path:url(#SVGID_00000159456414891149254080000005824937091555452069_);fill:#181919;}
	.st90{opacity:0.1;clip-path:url(#SVGID_00000078730952552071911420000003658770156099480196_);fill:#181919;}
	.st91{clip-path:url(#SVGID_00000172400092987073001720000003267398034279267250_);fill:#1E202E;}
	.st92{clip-path:url(#SVGID_00000027602864183531849940000003188511645504823224_);fill:#1E202E;}
	.st93{clip-path:url(#SVGID_00000016772557971892333580000011705336193239629184_);fill:#FFFFFF;}
	.st94{clip-path:url(#SVGID_00000009587316328048842880000003340705762041739197_);fill:#FFFFFF;}
	.st95{opacity:0.15;clip-path:url(#SVGID_00000111174503450159314700000010791064390465940158_);fill:#FAE21F;}
	.st96{opacity:0.2;clip-path:url(#SVGID_00000165920316408726023580000014654387743758918826_);fill:#FAE21F;}
	.st97{opacity:0.1;clip-path:url(#SVGID_00000023282219081715112140000004315504468327185083_);fill:#FAE21F;}
	.st98{clip-path:url(#SVGID_00000055694302932574886590000013998730585742035077_);fill:#FAE21F;}
	.st99{opacity:0.13;clip-path:url(#SVGID_00000081634211090270970650000006193515003696679552_);fill:#FAE21F;}
	.st100{opacity:0.1;clip-path:url(#SVGID_00000011019377102533480750000010593919088697467800_);fill:#FAE21F;}
	.st101{opacity:0.1;clip-path:url(#SVGID_00000168089490829662593880000006422389446631775917_);fill:#FAE21F;}
	.st102{clip-path:url(#SVGID_00000007426230157620161100000001193221285136516535_);fill:#FAE21F;}
	.st103{clip-path:url(#SVGID_00000174593444748913213660000008279677440682825638_);fill:#FAE21F;}
	.st104{clip-path:url(#SVGID_00000137826361864365699550000012730423295287233946_);fill:#FAE21F;}
	.st105{clip-path:url(#SVGID_00000002378950898607403950000009219212668181078445_);fill:#FAE21F;}
	.st106{opacity:0.15;clip-path:url(#SVGID_00000091716774761575182990000010818672102392305811_);fill:#181919;}
	.st107{opacity:0.2;clip-path:url(#SVGID_00000023258051528331918460000009605757873403056809_);fill:#181919;}
	.st108{opacity:0.1;clip-path:url(#SVGID_00000170247794502653963000000013792675647856712092_);fill:#181919;}
	.st109{clip-path:url(#SVGID_00000176734649934574169220000000457343507624310463_);fill:#1E202E;}
	.st110{opacity:0.13;clip-path:url(#SVGID_00000160913316102022760390000015130239878907246767_);fill:#181919;}
	.st111{opacity:0.1;clip-path:url(#SVGID_00000114050476741836951970000004609977028907181468_);fill:#181919;}
	.st112{opacity:0.1;clip-path:url(#SVGID_00000035524765776034390410000007698604788104553863_);fill:#181919;}
	.st113{clip-path:url(#SVGID_00000170982080700270666960000008781231302559569597_);fill:#1E202E;}
	.st114{clip-path:url(#SVGID_00000175302698610897277180000016329909067881837956_);fill:#1E202E;}
	.st115{clip-path:url(#SVGID_00000155129792940218690550000007484403465789343144_);fill:#FFFFFF;}
	.st116{clip-path:url(#SVGID_00000155863783207220859770000011709627527879478712_);fill:#FFFFFF;}
	.st117{fill:#F3DBCE;}
	.st118{fill:#E8E8E7;}
	.st119{fill:#6D7172;}
	.st120{opacity:0.15;clip-path:url(#SVGID_00000011712428383376722190000011308871852157652666_);fill:#FAE21F;}
	.st121{opacity:0.2;clip-path:url(#SVGID_00000018236561588237237190000003720646223355430556_);fill:#FAE21F;}
	.st122{opacity:0.1;clip-path:url(#SVGID_00000142160606965856139150000002107344575565505461_);fill:#FAE21F;}
	.st123{clip-path:url(#SVGID_00000157268218549914827770000007616298713671759014_);fill:#FAE21F;}
	.st124{opacity:0.13;clip-path:url(#SVGID_00000157997857214822431490000017414397896735121582_);fill:#FAE21F;}
	.st125{opacity:0.1;clip-path:url(#SVGID_00000017495393723192915880000005894168419088940680_);fill:#FAE21F;}
	.st126{opacity:0.1;clip-path:url(#SVGID_00000111187084899066839600000013472053171764038838_);fill:#FAE21F;}
	.st127{clip-path:url(#SVGID_00000057110461270568061980000011292224123849582762_);fill:#FAE21F;}
	.st128{clip-path:url(#SVGID_00000152965868657322025340000002768235468837189039_);fill:#FAE21F;}
	.st129{clip-path:url(#SVGID_00000047748514192266270910000013888135236033985469_);fill:#FAE21F;}
	.st130{clip-path:url(#SVGID_00000082334038754911046460000010266984436112459198_);fill:#FAE21F;}
	.st131{opacity:0.15;clip-path:url(#SVGID_00000173147851462750389070000013382567643927306673_);fill:#181919;}
	.st132{opacity:0.2;clip-path:url(#SVGID_00000010995408974180035290000015393257239848746430_);fill:#181919;}
	.st133{opacity:0.1;clip-path:url(#SVGID_00000020395734651748402550000013014762484642787982_);fill:#181919;}
	.st134{clip-path:url(#SVGID_00000080177802341366047550000007953670322907033744_);fill:#1E202E;}
	.st135{opacity:0.13;clip-path:url(#SVGID_00000096041561844580532220000002259466364956348544_);fill:#181919;}
	.st136{opacity:0.1;clip-path:url(#SVGID_00000097479633692007073280000012116773531429916547_);fill:#181919;}
	.st137{opacity:0.1;clip-path:url(#SVGID_00000154394319845300591820000016514015084594981534_);fill:#181919;}
	.st138{clip-path:url(#SVGID_00000177476543826691425930000013758835041969693611_);fill:#1E202E;}
	.st139{clip-path:url(#SVGID_00000016065373495663134910000002595697539341254310_);fill:#1E202E;}
	.st140{clip-path:url(#SVGID_00000063591529852217866030000009388520680776548279_);fill:#FFFFFF;}
	.st141{clip-path:url(#SVGID_00000043437877393406668480000017819175482360471946_);fill:#FFFFFF;}
	.st142{fill:#333333;stroke:#000000;stroke-width:5;stroke-miterlimit:10;}
	.st143{fill:#E34B4E;stroke:#000000;stroke-width:5;stroke-miterlimit:10;}
	.st144{fill:#333333;}
	.st145{fill:#E34B4E;}
	.st146{opacity:0.15;clip-path:url(#SVGID_00000181782564250808552310000013732811607372364703_);fill:#FAE21F;}
	.st147{opacity:0.2;clip-path:url(#SVGID_00000013187203767282405110000000151419111942207366_);fill:#FAE21F;}
	.st148{opacity:0.1;clip-path:url(#SVGID_00000077322008917887363930000008160136031033044121_);fill:#FAE21F;}
	.st149{clip-path:url(#SVGID_00000001629683381949428930000011667485565311084970_);fill:#FAE21F;}
	.st150{opacity:0.13;clip-path:url(#SVGID_00000040558892966481472170000017310979405213672080_);fill:#FAE21F;}
	.st151{opacity:0.1;clip-path:url(#SVGID_00000158708743380728245400000006880844139988516542_);fill:#FAE21F;}
	.st152{opacity:0.1;clip-path:url(#SVGID_00000101066336848526363070000001244486168342936733_);fill:#FAE21F;}
	.st153{clip-path:url(#SVGID_00000109732086705736269920000012651915749312362940_);fill:#FAE21F;}
	.st154{clip-path:url(#SVGID_00000058569656365284975170000005995363877768684188_);fill:#FAE21F;}
	.st155{clip-path:url(#SVGID_00000129190944525671652880000002497054226267920569_);fill:#FAE21F;}
	.st156{clip-path:url(#SVGID_00000135669881247924021270000007689959484021655945_);fill:#FAE21F;}
	.st157{opacity:0.15;clip-path:url(#SVGID_00000126306871701933817080000001269407018355264138_);fill:#181919;}
	.st158{opacity:0.2;clip-path:url(#SVGID_00000016759318559201777210000016572698174059261373_);fill:#181919;}
	.st159{opacity:0.1;clip-path:url(#SVGID_00000019667885798987740040000010810493733448149133_);fill:#181919;}
	.st160{clip-path:url(#SVGID_00000167373709869927692980000015393166044190679689_);fill:#1E202E;}
	.st161{opacity:0.13;clip-path:url(#SVGID_00000176728249062595843270000003663918100675194814_);fill:#181919;}
	.st162{opacity:0.1;clip-path:url(#SVGID_00000168110755745630989970000005422184516265268370_);fill:#181919;}
	.st163{opacity:0.1;clip-path:url(#SVGID_00000104704740981714529340000018042338594764528828_);fill:#181919;}
	.st164{clip-path:url(#SVGID_00000097479176453827488240000010704075738622348696_);fill:#1E202E;}
	.st165{clip-path:url(#SVGID_00000161624133698595393700000008007267067259564441_);fill:#1E202E;}
	.st166{clip-path:url(#SVGID_00000016048399710900390330000016577614551328571316_);fill:#FFFFFF;}
	.st167{clip-path:url(#SVGID_00000183221538426924845980000011887073137937499058_);fill:#FFFFFF;}
	.st168{opacity:0.66;fill:#FFFFFF;stroke:#000000;stroke-width:5;stroke-miterlimit:10;}
	.st169{fill:#EAF2DC;stroke:#000000;stroke-width:5;stroke-miterlimit:10;}
	.st170{fill:#A94141;stroke:#000000;stroke-width:5;stroke-miterlimit:10;}
	.st171{fill:#E8E8E7;stroke:#6D7172;stroke-width:5;stroke-miterlimit:10;}
	.st172{fill:#E2BFA9;}
	.st173{fill:#A67D65;}
	.st174{fill:#D9B29C;}
	.st175{opacity:0.15;clip-path:url(#SVGID_00000088123252357192664620000001396118762643515032_);fill:#FAE21F;}
	.st176{opacity:0.2;clip-path:url(#SVGID_00000165220544020451844570000000839872453488826302_);fill:#FAE21F;}
	.st177{opacity:0.1;clip-path:url(#SVGID_00000171719059412330635990000006507504129946026151_);fill:#FAE21F;}
	.st178{clip-path:url(#SVGID_00000070801739066591331790000016427564030420007342_);fill:#FAE21F;}
	.st179{opacity:0.13;clip-path:url(#SVGID_00000022518669945985093950000015591929478553221551_);fill:#FAE21F;}
	.st180{opacity:0.1;clip-path:url(#SVGID_00000091737715925837355020000006440929388323494046_);fill:#FAE21F;}
	.st181{opacity:0.1;clip-path:url(#SVGID_00000139295616116629434210000016788183565157065105_);fill:#FAE21F;}
	.st182{clip-path:url(#SVGID_00000132078154979894790650000004811149402354065292_);fill:#FAE21F;}
	.st183{clip-path:url(#SVGID_00000176723778712050589340000016556620549874751134_);fill:#FAE21F;}
	.st184{clip-path:url(#SVGID_00000177448920334874781910000009430703659534804363_);fill:#FAE21F;}
	.st185{clip-path:url(#SVGID_00000036962520615989455290000014638036778745191570_);fill:#FAE21F;}
	.st186{opacity:0.15;clip-path:url(#SVGID_00000070803739412357455970000009027547900143271313_);fill:#181919;}
	.st187{opacity:0.2;clip-path:url(#SVGID_00000165925263243930317930000006710485461970659740_);fill:#181919;}
	.st188{opacity:0.1;clip-path:url(#SVGID_00000108281931032400462840000008163806870852302747_);fill:#181919;}
	.st189{clip-path:url(#SVGID_00000095321252478681821980000010924024079847486642_);fill:#1E202E;}
	.st190{opacity:0.13;clip-path:url(#SVGID_00000109022616298547009600000008393373305408284548_);fill:#181919;}
	.st191{opacity:0.1;clip-path:url(#SVGID_00000095309878202425361540000000012271667013753999_);fill:#181919;}
	.st192{opacity:0.1;clip-path:url(#SVGID_00000119077479927384968100000009712409537028598677_);fill:#181919;}
	.st193{clip-path:url(#SVGID_00000137852458137133179350000017666034558247649446_);fill:#1E202E;}
	.st194{clip-path:url(#SVGID_00000067923412916995454710000002036997211898778253_);fill:#1E202E;}
	.st195{clip-path:url(#SVGID_00000026126134692156491630000010067969535815152259_);fill:#FFFFFF;}
	.st196{clip-path:url(#SVGID_00000036955462606427608770000011395033758271143566_);fill:#FFFFFF;}
	.st197{opacity:0.11;fill:#FFFFFF;}
	.st198{opacity:0.15;clip-path:url(#SVGID_00000112601239091738536460000001137888589655068580_);fill:#FAE21F;}
	.st199{opacity:0.2;clip-path:url(#SVGID_00000043433466312520885600000013645422545778298033_);fill:#FAE21F;}
	.st200{opacity:0.1;clip-path:url(#SVGID_00000181052287381651941590000006522421357210456245_);fill:#FAE21F;}
	.st201{clip-path:url(#SVGID_00000132060638937931218140000007071334209741053850_);fill:#FAE21F;}
	.st202{opacity:0.13;clip-path:url(#SVGID_00000020386436848037153180000003264086070243058097_);fill:#FAE21F;}
	.st203{opacity:0.1;clip-path:url(#SVGID_00000021090894737489499340000015630441737496609421_);fill:#FAE21F;}
	.st204{opacity:0.1;clip-path:url(#SVGID_00000148640035421498152050000011568641747199239062_);fill:#FAE21F;}
	.st205{clip-path:url(#SVGID_00000073696997802148503880000012345851584494096783_);fill:#FAE21F;}
	.st206{clip-path:url(#SVGID_00000064334894369038126620000001621560510029266603_);fill:#FAE21F;}
	.st207{clip-path:url(#SVGID_00000165934334945247905820000016584116959258464423_);fill:#FAE21F;}
	.st208{clip-path:url(#SVGID_00000101096823250745155840000010721894491070976136_);fill:#FAE21F;}
	.st209{opacity:0.15;clip-path:url(#SVGID_00000062163793207952826830000009496419323774583983_);fill:#181919;}
	.st210{opacity:0.2;clip-path:url(#SVGID_00000167364591422633185590000017508244724915420294_);fill:#181919;}
	.st211{opacity:0.1;clip-path:url(#SVGID_00000111180930099987436480000016062386336814021000_);fill:#181919;}
	.st212{clip-path:url(#SVGID_00000077294305822969915010000004896344991857442487_);fill:#1E202E;}
	.st213{opacity:0.13;clip-path:url(#SVGID_00000024719812592668855130000017707861037418597003_);fill:#181919;}
	.st214{opacity:0.1;clip-path:url(#SVGID_00000045602000661349695730000002385408094701859998_);fill:#181919;}
	.st215{opacity:0.1;clip-path:url(#SVGID_00000094579786277475414050000005634775913824460723_);fill:#181919;}
	.st216{clip-path:url(#SVGID_00000065787197134155325370000009818217824740400554_);fill:#1E202E;}
	.st217{clip-path:url(#SVGID_00000082366469705332243360000003867609153163965879_);fill:#1E202E;}
	.st218{clip-path:url(#SVGID_00000000187647375057504680000003264814134984140443_);fill:#FFFFFF;}
	.st219{clip-path:url(#SVGID_00000142875672361856921640000007702193393741591965_);fill:#FFFFFF;}
	.st220{fill:#AD6632;stroke:#000000;stroke-width:5;stroke-miterlimit:10;}
	.st221{fill:#FF6464;}
	.st222{fill:#FFFFFF;stroke:#000000;stroke-width:3;stroke-miterlimit:10;}
	.st223{fill:#EAF286;stroke:#000000;stroke-width:3;stroke-miterlimit:10;}
	.st224{fill:#E94949;stroke:#000000;stroke-width:3;stroke-miterlimit:10;}
	.st225{fill:#FFD11D;stroke:#000000;stroke-width:3;stroke-miterlimit:10;}
	.st226{fill:#8AE9FD;stroke:#000000;stroke-width:3;stroke-miterlimit:10;}
	.st227{fill:#FFB44B;stroke:#000000;stroke-width:3;stroke-miterlimit:10;}
	.st228{fill:none;stroke:#000000;stroke-width:2;stroke-miterlimit:10;}
	.st229{fill:#0A0B0C;stroke:#000000;stroke-width:5;stroke-miterlimit:10;}
	.st230{fill:#FFDDAA;stroke:#000000;stroke-width:5;stroke-miterlimit:10;}
	.st231{fill:#EAEAEA;}
	.st232{opacity:0.18;fill:#FFFFFF;}
	.st233{opacity:0.5;fill:#FFFFFF;}
	.st234{opacity:0.83;fill:#FFFFFF;}
	.st235{fill:#EC7525;}
	.st236{fill:#225EA5;}
	.st237{fill:#103051;stroke:#000000;stroke-width:4;stroke-miterlimit:10;}
	.st238{fill:#E63E6B;}
</style>
<g>
	
		<rect x="89.8" y="42.7" transform="matrix(0.9918 -0.1279 0.1279 0.9918 -10.5878 13.1223)" class="st58" width="14.1" height="92.7"/>
	
		<ellipse transform="matrix(0.4099 -0.9121 0.9121 0.4099 13.3504 109.2635)" class="st12" cx="91.1" cy="44.3" rx="35.4" ry="38.4"/>
	<g>
		
			<rect x="225.7" y="40.6" transform="matrix(0.9958 9.108016e-02 -9.108016e-02 0.9958 8.8893 -20.8352)" class="st58" width="14.1" height="92.7"/>
		<ellipse transform="matrix(0.5987 -0.801 0.801 0.5987 61.3251 206.6)" class="st12" cx="236.8" cy="42.1" rx="35.4" ry="38.4"/>
	</g>
	<polygon class="st1" points="235.2,334.2 235.3,334.3 235.2,334.3 	"/>
	<polygon class="st1" points="235.3,334.3 235.2,334.4 235.3,334.2 	"/>
	<polygon class="st1" points="235.1,334.4 235.1,334.4 235.2,334.3 	"/>
	<path class="st59" d="M295.7,276.3c-0.2,1.7-0.5,3.2-0.8,4.7c0,0,0,0,0,0c-2.1,8-7.3,14.7-14.3,18.7c-0.4,0.2-0.9,0.5-1.3,0.7
		c-47.2,25.1-179.6,24.8-225.9-0.3c-0.1,0-0.1-0.1-0.2-0.1c-7.5-4.2-13.1-11.4-15-20.1c0,0,0-0.1,0-0.1c-0.1-0.8-0.3-1.7-0.4-2.5
		c0,0,0,0,0-0.1c-4.1-26.2,4.4-82.8,11-120.1c3.7-20.7,23.6-27,42.7-35.8c50.4-23.4,99.6-23.4,150.5,0c19.1,8.8,39,15.1,42.7,35.7
		C291.2,194.1,299.6,249.8,295.7,276.3z"/>
	<g>
		<path class="st50" d="M100,300.2c-27.1,0-50.6-41.1-48.5-61.4c0.6-6.2,4.2-20.8,4.9-24.3c1.8-10.1-3.4-60.3,30.9-55.1
			c26,3.9,25.4,7.1,45.5,14c12.3,4.2,10.6,6.5,33.9,6.5s21.6-2.3,33.9-6.5c20.1-6.8,19.5-10,45.5-14c34.3-5.2,29.1,45.1,30.9,55.1
			c0.6,3.5,4.2,18.1,4.9,24.3c2,20.3-21.3,64.6-48.5,64.6L100,300.2z"/>
	</g>
	<path class="st13" d="M257.3,222.6c0,1,0,2.1-0.1,3.1c-1.6,16-15,28.5-31.4,28.5s-29.9-12.5-31.4-28.5c-0.1-1-0.1-2-0.1-3.1
		c0-17.4,14.1-31.6,31.6-31.6S257.3,205.1,257.3,222.6z"/>
	<path class="st13" d="M139.1,222.6c0,1,0,2.1-0.1,3.1c-1.6,16-15,28.5-31.4,28.5s-29.9-12.5-31.4-28.5c-0.1-1-0.1-2-0.1-3.1
		c0-17.4,14.1-31.6,31.6-31.6S139.1,205.1,139.1,222.6z"/>
	<g>
		<path class="st1" d="M139,229.4c-1.6,16-15,28.5-31.4,28.5c-16.4,0-29.9-12.5-31.4-28.5c1.6-16,15-28.5,31.4-28.5
			C123.9,200.9,137.4,213.4,139,229.4z"/>
		<path class="st1" d="M257.2,229.4c-1.6,16-15,28.5-31.4,28.5c-16.4,0-29.9-12.5-31.4-28.5c1.6-16,15-28.5,31.4-28.5
			C242.2,200.9,255.6,213.4,257.2,229.4z"/>
		<path class="st14" d="M139.1,222.6c0,1,0,2.1-0.1,3.1c-1.6,16-15,28.5-31.4,28.5c-16.4,0-29.9-12.5-31.4-28.5
			c-0.1-1-0.1-2-0.1-3.1c0-17.4,14.1-31.6,31.6-31.6C125,191,139.1,205.1,139.1,222.6z"/>
		<path class="st4" d="M139,225.7c-1.6,16-15,28.5-31.4,28.5c-16.4,0-29.9-12.5-31.4-28.5c1.6-16,15-28.5,31.4-28.5
			C123.9,197.2,137.4,209.7,139,225.7z"/>
		<path class="st14" d="M257.3,222.6c0,1,0,2.1-0.1,3.1c-1.6,16-15,28.5-31.4,28.5c-16.4,0-29.9-12.5-31.4-28.5
			c-0.1-1-0.1-2-0.1-3.1c0-17.4,14.1-31.6,31.6-31.6C243.2,191,257.3,205.1,257.3,222.6z"/>
		<path class="st4" d="M257.2,225.7c-1.6,16-15,28.5-31.4,28.5c-16.4,0-29.9-12.5-31.4-28.5c1.6-16,15-28.5,31.4-28.5
			C242.2,197.2,255.6,209.7,257.2,225.7z"/>
		<circle class="st1" cx="238.5" cy="224.2" r="21"/>
		<path class="st4" d="M239.7,216.8c-0.9,2.2-3.2,3.5-5.5,3.2c-1.7-0.2-3-1.2-3.8-2.5c-1.9,0.7-4.1,0.6-6.1-0.4
			c-2.8-1.4-4.5-4.5-4.2-7.7c0.5-4.9,5.3-8,9.9-6.7c3.2,0.9,5.3,3.7,5.6,6.8c0.3,0,0.5,0.1,0.8,0.2
			C239.3,210.5,240.9,213.8,239.7,216.8z"/>
		<circle class="st1" cx="117.9" cy="227.5" r="21"/>
		<path class="st4" d="M119.3,219.6c-0.8,2.8-3.7,4.4-6.5,3.6c-1.3-0.4-2.4-1.2-3-2.4c-1.5,0.5-3.1,0.6-4.7,0.1
			c-4.1-1.2-6.5-5.5-5.3-9.6c1.2-4.1,5.5-6.5,9.6-5.3c3.2,0.9,5.3,3.7,5.6,6.8c0.3,0,0.5,0.1,0.8,0.2
			C118.5,213.8,120.1,216.8,119.3,219.6z"/>
	</g>
	<path class="st2" d="M186.5,261.1c0,5.3-8.9,9.5-19.8,9.5s-19.8-4.3-19.8-9.5c0-5.3,8.7-4.4,19.7-4.4
		C177.5,256.7,186.5,255.8,186.5,261.1z"/>
	<g>
		<path d="M171,294L171,294c-0.1,0-0.2,0-0.2,0C170.9,294,170.9,294,171,294z"/>
		<path d="M169.1,293.8l0,0.6c-0.1,0-0.1,0-0.2,0.1c-0.8-0.2-1.5-0.4-2.3-0.5v0c0,0-0.1,0-0.1,0c0,0,0,0,0.1,0s0,0,0.1,0
			c0.4-0.1,0.9-0.1,1.3-0.1c0.1,0,0.2,0,0.4,0C168.6,293.8,168.9,293.8,169.1,293.8z"/>
	</g>
	<g>
		<path class="st60" d="M162.1,294L162.1,294c0.1,0,0.2,0,0.2,0C162.2,294,162.2,294,162.1,294z"/>
		<path class="st60" d="M166.5,294c0,0-0.1,0-0.1,0v0c-0.8,0.1-1.5,0.3-2.3,0.5c-0.1,0-0.1,0-0.2-0.1l0-0.6c0.3,0,0.6,0,0.9,0
			c0.1,0,0.2,0,0.4,0c0.4,0,0.8,0.1,1.2,0.1C166.4,293.9,166.4,294,166.5,294C166.5,294,166.5,294,166.5,294z"/>
	</g>
	<g class="st2">
		<path d="M92.8,177.6c0,0,26.3-11.4,57.3,18.8c0,0-16.4,1.2-24.1-5.9S117.2,180.9,92.8,177.6z"/>
		<path d="M241,177.2c0,0-26.3-11.4-57.3,18.8c0,0,16.4,1.2,24.1-5.9C215.5,183.1,216.6,180.5,241,177.2z"/>
	</g>
	<g>
		<path d="M90.8,175.6c0,0,26.3-11.4,57.3,18.8c0,0-16.4,1.2-24.1-5.9C116.3,181.5,115.3,178.9,90.8,175.6z"/>
		<path d="M242.6,175.6c0,0-26.3-11.4-57.3,18.8c0,0,16.4,1.2,24.1-5.9C217.1,181.5,218.1,178.9,242.6,175.6z"/>
	</g>
	<path class="st4" d="M118.5,40.4c3.8,3.5,2.6,10.5-4.2,11.7c-4.3-0.4-6.7-3.3-6.9-6.3c-4.1-0.5-7.9-3.6-8.8-9.4
		c1-9.9,11-12.6,16.6-7.4c3.1,2.8,3.9,7.2,2.4,10.8C117.9,39.9,118.2,40.1,118.5,40.4z"/>
	<path class="st4" d="M240.7,16.3c4.7-2.2,10.7,1.7,9.2,8.4c-2,3.8-5.6,4.9-8.5,3.9c-2.1,3.5-6.4,5.9-12,4.5
		c-8.8-4.8-7.3-15.1-0.4-18.2c3.8-1.7,8.1-0.8,10.9,1.9C240.1,16.6,240.4,16.5,240.7,16.3z"/>
	<path class="st52" d="M152.4,291.1c-2.4,0.4-4.5-2.3-4.5-5.7c0-3.2,1.8-5.7,4-5.7c0.2,0,0.4,0,0.6,0.1l0.2,0c9.2,2,18.7,2,27.9,0
		l0.2,0c0.2,0,0.4-0.1,0.6-0.1c2.2,0,4,2.5,4,5.7c0,3.4-2.1,6.1-4.5,5.7l0,0C172.2,298.9,162.9,300.7,152.4,291.1z"/>
	<path class="st53" d="M185.5,285.4c0,0.4,0,0.7-0.1,1c-0.3-2.7-2-4.7-3.9-4.7c-0.2,0-0.4,0-0.6,0.1h0c-9.3,2-19,2-28.3,0l0,0
		c-0.2,0-0.4-0.1-0.6-0.1c-1.9,0-3.6,2-3.9,4.7c0-0.3-0.1-0.7-0.1-1c0-3.2,1.8-5.7,4-5.7c0.2,0,0.4,0,0.6,0.1h0c9.3,2,19,2,28.3,0h0
		c0.2,0,0.4-0.1,0.6-0.1C183.6,279.7,185.5,282.2,185.5,285.4z"/>
</g>
</svg>
