<?xml version="1.0" encoding="utf-8"?>
<!-- Generator: Adobe Illustrator 27.1.1, SVG Export Plug-In . SVG Version: 6.00 Build 0)  -->
<svg version="1.1" id="Calque_1" xmlns="http://www.w3.org/2000/svg" xmlns:xlink="http://www.w3.org/1999/xlink" x="0px" y="0px"
	 viewBox="0 0 340 340" style="enable-background:new 0 0 340 340;" xml:space="preserve">
<style type="text/css">
	.st0{fill:none;}
	.st1{fill:#22242B;}
	.st2{opacity:0.2;}
	.st3{fill:#00BCD4;}
	.st4{fill:#FFFFFF;}
	.st5{fill:#584464;}
	.st6{fill:#F3DBCE;stroke:#000000;stroke-width:5;stroke-miterlimit:10;}
	.st7{fill:#A67D65;stroke:#000000;stroke-width:5;stroke-miterlimit:10;}
	.st8{fill:#6CC09A;stroke:#000000;stroke-width:5;stroke-miterlimit:10;}
	.st9{fill:#E8E8E7;stroke:#000000;stroke-width:5;stroke-miterlimit:10;}
	.st10{fill:#22242B;stroke:#000000;stroke-width:5;stroke-miterlimit:10;}
	.st11{opacity:0.2;stroke:#000000;stroke-width:5;stroke-miterlimit:10;}
	.st12{fill:#00BCD4;stroke:#000000;stroke-width:5;stroke-miterlimit:10;}
	.st13{fill:none;stroke:#000000;stroke-width:5;stroke-miterlimit:10;}
	.st14{fill:#5F3E60;}
	.st15{fill:none;stroke:#313333;stroke-width:5;stroke-miterlimit:10;}
	.st16{fill:#313333;}
	.st17{fill:#6D7172;stroke:#000000;stroke-width:5;stroke-miterlimit:10;}
	.st18{fill:#FAE21F;}
	.st19{opacity:0.15;clip-path:url(#SVGID_00000099639990282551012990000013774506370561517724_);fill:#FAE21F;}
	.st20{opacity:0.2;clip-path:url(#SVGID_00000057128199615703886270000010094066185797888667_);fill:#FAE21F;}
	.st21{opacity:0.1;clip-path:url(#SVGID_00000142139171671207103230000015309037938993377724_);fill:#FAE21F;}
	.st22{clip-path:url(#SVGID_00000030479615739349631700000017520071678373572256_);fill:#FAE21F;}
	.st23{opacity:0.13;clip-path:url(#SVGID_00000171714877894648106620000009061324921736097936_);fill:#FAE21F;}
	.st24{opacity:0.1;clip-path:url(#SVGID_00000120545265209959256830000011903613163032914822_);fill:#FAE21F;}
	.st25{opacity:0.1;clip-path:url(#SVGID_00000008141609978983642230000013861822394182274460_);fill:#FAE21F;}
	.st26{clip-path:url(#SVGID_00000097491275066763152730000014726527459493660855_);fill:#FAE21F;}
	.st27{clip-path:url(#SVGID_00000105397659795150502710000006421228526635457965_);fill:#FAE21F;}
	.st28{clip-path:url(#SVGID_00000133511142953070295800000004096280049823476134_);fill:#FAE21F;}
	.st29{clip-path:url(#SVGID_00000039106831865787418430000011212278038631450293_);fill:#FAE21F;}
	.st30{opacity:0.15;clip-path:url(#SVGID_00000103983226928302211600000006727157445511177910_);fill:#181919;}
	.st31{opacity:0.2;clip-path:url(#SVGID_00000133518625152648557000000018317179200282979235_);fill:#181919;}
	.st32{opacity:0.1;clip-path:url(#SVGID_00000061446292188803915510000012027280119044280733_);fill:#181919;}
	.st33{clip-path:url(#SVGID_00000003081267932500603220000012438589564271175822_);fill:#1E202E;}
	.st34{fill:#422827;}
	.st35{opacity:0.13;clip-path:url(#SVGID_00000064354134081346698910000006653283032708150445_);fill:#181919;}
	.st36{opacity:0.1;clip-path:url(#SVGID_00000060021438778151177610000012880747664227785353_);fill:#181919;}
	.st37{opacity:0.1;clip-path:url(#SVGID_00000082330516861785182070000007012028854675973032_);fill:#181919;}
	.st38{clip-path:url(#SVGID_00000012461295284977615600000017460550967875630495_);fill:#1E202E;}
	.st39{clip-path:url(#SVGID_00000118392368897181946490000017949826427768327309_);fill:#1E202E;}
	.st40{fill:#DE3942;}
	.st41{fill:#18181E;}
	.st42{clip-path:url(#SVGID_00000065067616973619880540000014933596480995116977_);fill:#FFFFFF;}
	.st43{clip-path:url(#SVGID_00000115512245977652926000000017144160211199997590_);fill:#FFFFFF;}
	.st44{fill:#242258;}
	.st45{fill:#EF548B;}
	.st46{fill:#0087A3;}
	.st47{fill:#37C093;}
	.st48{fill:#FF3D00;}
	.st49{fill:#EF548B;stroke:#000000;stroke-width:5;stroke-miterlimit:10;}
	.st50{fill:#F7EFEB;stroke:#000000;stroke-width:5;stroke-miterlimit:10;}
	.st51{fill:#E83131;}
	.st52{fill:#A94141;}
	.st53{fill:#E94949;}
	.st54{fill:#825626;stroke:#000000;stroke-width:5;stroke-miterlimit:10;}
	.st55{opacity:0.72;fill:#D9B29C;}
	.st56{stroke:#000000;stroke-width:5;stroke-miterlimit:10;}
	.st57{fill:#FFFFFF;stroke:#000000;stroke-width:5;stroke-miterlimit:10;}
	.st58{fill:#E94949;stroke:#000000;stroke-width:5;stroke-miterlimit:10;}
	.st59{fill:#37C093;stroke:#000000;stroke-width:5;stroke-miterlimit:10;}
	.st60{fill:#825626;}
	.st61{fill:#F7EFEB;}
	.st62{fill:#EAF286;}
	.st63{fill:#50FA7B;}
	.st64{fill:#8AE9FD;}
	.st65{fill:#FF79C6;}
	.st66{fill:#BE93F9;}
	.st67{fill:#00A7D9;}
	.st68{fill:#BE93F9;stroke:#000000;stroke-width:5;stroke-miterlimit:10;}
	.st69{fill:#FF79C6;stroke:#000000;stroke-width:5;stroke-miterlimit:10;}
	.st70{fill:#8AE9FD;stroke:#000000;stroke-width:5;stroke-miterlimit:10;}
	.st71{fill:#50FA7B;stroke:#000000;stroke-width:5;stroke-miterlimit:10;}
	.st72{fill:#EAF286;stroke:#000000;stroke-width:5;stroke-miterlimit:10;}
	.st73{opacity:0.15;clip-path:url(#SVGID_00000052803957017881309970000004500705796393352585_);fill:#FAE21F;}
	.st74{opacity:0.2;clip-path:url(#SVGID_00000013899587010214881980000007153691843643637159_);fill:#FAE21F;}
	.st75{opacity:0.1;clip-path:url(#SVGID_00000014615369813974651110000009937494001783015841_);fill:#FAE21F;}
	.st76{clip-path:url(#SVGID_00000022561274284493010380000010884644100423182254_);fill:#FAE21F;}
	.st77{opacity:0.13;clip-path:url(#SVGID_00000088846794293701958720000009290785795567426184_);fill:#FAE21F;}
	.st78{opacity:0.1;clip-path:url(#SVGID_00000151508453959873639870000003699016045241797818_);fill:#FAE21F;}
	.st79{opacity:0.1;clip-path:url(#SVGID_00000033370597921887256230000007024910230870006970_);fill:#FAE21F;}
	.st80{clip-path:url(#SVGID_00000026883119800675675100000013949092347292501917_);fill:#FAE21F;}
	.st81{clip-path:url(#SVGID_00000052801071519220371120000011760565298528614795_);fill:#FAE21F;}
	.st82{clip-path:url(#SVGID_00000034086764644471128810000007132628342554776456_);fill:#FAE21F;}
	.st83{clip-path:url(#SVGID_00000167355922517073578520000002626756743162195636_);fill:#FAE21F;}
	.st84{opacity:0.15;clip-path:url(#SVGID_00000094589884503511742140000015022211417061158027_);fill:#181919;}
	.st85{opacity:0.2;clip-path:url(#SVGID_00000049908399869892649960000017793439439772892068_);fill:#181919;}
	.st86{opacity:0.1;clip-path:url(#SVGID_00000078758788788194845910000018389497214039867563_);fill:#181919;}
	.st87{clip-path:url(#SVGID_00000070094570039525586480000017067671659232334988_);fill:#1E202E;}
	.st88{opacity:0.13;clip-path:url(#SVGID_00000083809529050803228920000001123624369534544261_);fill:#181919;}
	.st89{opacity:0.1;clip-path:url(#SVGID_00000096048431026555126210000010504335831517959840_);fill:#181919;}
	.st90{opacity:0.1;clip-path:url(#SVGID_00000021111792487434913490000002289907352661821371_);fill:#181919;}
	.st91{clip-path:url(#SVGID_00000106843052685121450550000004830516752621130164_);fill:#1E202E;}
	.st92{clip-path:url(#SVGID_00000164488291703147291710000002620468153098801578_);fill:#1E202E;}
	.st93{clip-path:url(#SVGID_00000160149505394694727400000000580039010619055001_);fill:#FFFFFF;}
	.st94{clip-path:url(#SVGID_00000140002747711735449470000018363755385832696759_);fill:#FFFFFF;}
	.st95{opacity:0.15;clip-path:url(#SVGID_00000057139560551596207550000015900808287187612851_);fill:#FAE21F;}
	.st96{opacity:0.2;clip-path:url(#SVGID_00000136373282929138382680000004414970372895218110_);fill:#FAE21F;}
	.st97{opacity:0.1;clip-path:url(#SVGID_00000031885864331362104020000014823418066669248147_);fill:#FAE21F;}
	.st98{clip-path:url(#SVGID_00000005988952862460143090000006859244272440724159_);fill:#FAE21F;}
	.st99{opacity:0.13;clip-path:url(#SVGID_00000054957427637233432910000009958168283358280845_);fill:#FAE21F;}
	.st100{opacity:0.1;clip-path:url(#SVGID_00000142883713081016362030000003847550587045182103_);fill:#FAE21F;}
	.st101{opacity:0.1;clip-path:url(#SVGID_00000098206492564077018930000005359000167112802738_);fill:#FAE21F;}
	.st102{clip-path:url(#SVGID_00000160881583348079608120000012866112189890986934_);fill:#FAE21F;}
	.st103{clip-path:url(#SVGID_00000035494334214675460390000017234062826941389698_);fill:#FAE21F;}
	.st104{clip-path:url(#SVGID_00000050638990543854334420000002954365516174516916_);fill:#FAE21F;}
	.st105{clip-path:url(#SVGID_00000017494929021417532510000007403937177127510657_);fill:#FAE21F;}
	.st106{opacity:0.15;clip-path:url(#SVGID_00000013915513643279386480000007575280418266404029_);fill:#181919;}
	.st107{opacity:0.2;clip-path:url(#SVGID_00000061445292353996840090000006799209484156826295_);fill:#181919;}
	.st108{opacity:0.1;clip-path:url(#SVGID_00000144340059095493082800000013242448148940818603_);fill:#181919;}
	.st109{clip-path:url(#SVGID_00000123398780007310297120000009156536253411809440_);fill:#1E202E;}
	.st110{opacity:0.13;clip-path:url(#SVGID_00000104663949803784635970000001275108430667812483_);fill:#181919;}
	.st111{opacity:0.1;clip-path:url(#SVGID_00000143604775478964568630000009479246060506307459_);fill:#181919;}
	.st112{opacity:0.1;clip-path:url(#SVGID_00000011733167454336623570000003725121986003371155_);fill:#181919;}
	.st113{clip-path:url(#SVGID_00000143601510426827525290000011416742556903905169_);fill:#1E202E;}
	.st114{clip-path:url(#SVGID_00000008841365460644994880000017763181428425967270_);fill:#1E202E;}
	.st115{clip-path:url(#SVGID_00000010996446929599829320000005944168140536904122_);fill:#FFFFFF;}
	.st116{clip-path:url(#SVGID_00000057841236456754718220000001231572049332042673_);fill:#FFFFFF;}
	.st117{fill:#F3DBCE;}
	.st118{fill:#E8E8E7;}
	.st119{fill:#6D7172;}
	.st120{opacity:0.15;clip-path:url(#SVGID_00000048495901445737273050000016523264562130813610_);fill:#FAE21F;}
	.st121{opacity:0.2;clip-path:url(#SVGID_00000026860325190215826320000000750120306197433510_);fill:#FAE21F;}
	.st122{opacity:0.1;clip-path:url(#SVGID_00000116235446461067219660000010196750134110543261_);fill:#FAE21F;}
	.st123{clip-path:url(#SVGID_00000150092780489541066620000009624320013415095939_);fill:#FAE21F;}
	.st124{opacity:0.13;clip-path:url(#SVGID_00000183938802568338916470000001875066312251624121_);fill:#FAE21F;}
	.st125{opacity:0.1;clip-path:url(#SVGID_00000099653941389635618900000017011751528286007436_);fill:#FAE21F;}
	.st126{opacity:0.1;clip-path:url(#SVGID_00000120541826547968598580000009306468661248013207_);fill:#FAE21F;}
	.st127{clip-path:url(#SVGID_00000012448577196343231840000004992371203550672032_);fill:#FAE21F;}
	.st128{clip-path:url(#SVGID_00000102515507846718332230000016136938248707226548_);fill:#FAE21F;}
	.st129{clip-path:url(#SVGID_00000082350303826469796820000000233733010367691137_);fill:#FAE21F;}
	.st130{clip-path:url(#SVGID_00000172404902377034415760000007522567026949732005_);fill:#FAE21F;}
	.st131{opacity:0.15;clip-path:url(#SVGID_00000062905929343986482660000009809639527228369031_);fill:#181919;}
	.st132{opacity:0.2;clip-path:url(#SVGID_00000066502720937914788500000008501412648163495304_);fill:#181919;}
	.st133{opacity:0.1;clip-path:url(#SVGID_00000168109104506311914560000013119745504268397708_);fill:#181919;}
	.st134{clip-path:url(#SVGID_00000013898865822501812410000001284245621563757992_);fill:#1E202E;}
	.st135{opacity:0.13;clip-path:url(#SVGID_00000005228929452907473010000008702994463832989836_);fill:#181919;}
	.st136{opacity:0.1;clip-path:url(#SVGID_00000017474575415427266460000013249724764893884815_);fill:#181919;}
	.st137{opacity:0.1;clip-path:url(#SVGID_00000108288600155732645000000002220572720496830655_);fill:#181919;}
	.st138{clip-path:url(#SVGID_00000182509641067529435930000009799435371758033319_);fill:#1E202E;}
	.st139{clip-path:url(#SVGID_00000106121932387203119860000000072674183433975961_);fill:#1E202E;}
	.st140{clip-path:url(#SVGID_00000037656424402296875650000001749365648812595075_);fill:#FFFFFF;}
	.st141{clip-path:url(#SVGID_00000111883315961906771460000012244301896516077484_);fill:#FFFFFF;}
	.st142{fill:#333333;stroke:#000000;stroke-width:5;stroke-miterlimit:10;}
	.st143{fill:#E34B4E;stroke:#000000;stroke-width:5;stroke-miterlimit:10;}
	.st144{fill:#333333;}
	.st145{fill:#E34B4E;}
	.st146{opacity:0.15;clip-path:url(#SVGID_00000044177631842827340740000008076439434689326735_);fill:#FAE21F;}
	.st147{opacity:0.2;clip-path:url(#SVGID_00000061452566113411568480000007917173123522973058_);fill:#FAE21F;}
	.st148{opacity:0.1;clip-path:url(#SVGID_00000013163724064311659160000016783229941600838841_);fill:#FAE21F;}
	.st149{clip-path:url(#SVGID_00000047032187828170235080000008167433283280795576_);fill:#FAE21F;}
	.st150{opacity:0.13;clip-path:url(#SVGID_00000111149637939642453120000014242574319939404973_);fill:#FAE21F;}
	.st151{opacity:0.1;clip-path:url(#SVGID_00000081618601594630325050000018143641142988382081_);fill:#FAE21F;}
	.st152{opacity:0.1;clip-path:url(#SVGID_00000131327996969855391130000009697568497455581324_);fill:#FAE21F;}
	.st153{clip-path:url(#SVGID_00000060003357422614609370000002160177439480236945_);fill:#FAE21F;}
	.st154{clip-path:url(#SVGID_00000042720291720872700090000017666234879194502039_);fill:#FAE21F;}
	.st155{clip-path:url(#SVGID_00000163069138212807610180000002394162056484729728_);fill:#FAE21F;}
	.st156{clip-path:url(#SVGID_00000067939439022849168960000008109369232989111450_);fill:#FAE21F;}
	.st157{opacity:0.15;clip-path:url(#SVGID_00000027604767879691725080000013672683168791646869_);fill:#181919;}
	.st158{opacity:0.2;clip-path:url(#SVGID_00000116212645790474575410000003596476391290150277_);fill:#181919;}
	.st159{opacity:0.1;clip-path:url(#SVGID_00000138547241545313343250000015767253740613773233_);fill:#181919;}
	.st160{clip-path:url(#SVGID_00000002377211177453088210000007505015836265462421_);fill:#1E202E;}
	.st161{opacity:0.13;clip-path:url(#SVGID_00000034084795712504804260000006010194667370837929_);fill:#181919;}
	.st162{opacity:0.1;clip-path:url(#SVGID_00000024712866792277911360000015187914136866676611_);fill:#181919;}
	.st163{opacity:0.1;clip-path:url(#SVGID_00000003811944879750709310000000289875904232611721_);fill:#181919;}
	.st164{clip-path:url(#SVGID_00000054980318965350669740000014945594780465858694_);fill:#1E202E;}
	.st165{clip-path:url(#SVGID_00000046328815596341505420000015723484598965220542_);fill:#1E202E;}
	.st166{clip-path:url(#SVGID_00000143597826921679401650000002364536739050130080_);fill:#FFFFFF;}
	.st167{clip-path:url(#SVGID_00000044865232307119397210000013000101750208609726_);fill:#FFFFFF;}
	.st168{opacity:0.66;fill:#FFFFFF;stroke:#000000;stroke-width:5;stroke-miterlimit:10;}
	.st169{fill:#EAF2DC;stroke:#000000;stroke-width:5;stroke-miterlimit:10;}
	.st170{fill:#A94141;stroke:#000000;stroke-width:5;stroke-miterlimit:10;}
	.st171{fill:#E8E8E7;stroke:#6D7172;stroke-width:5;stroke-miterlimit:10;}
	.st172{fill:#E2BFA9;}
	.st173{fill:#A67D65;}
	.st174{fill:#D9B29C;}
	.st175{opacity:0.15;clip-path:url(#SVGID_00000178910552027838835310000000128911509070015659_);fill:#FAE21F;}
	.st176{opacity:0.2;clip-path:url(#SVGID_00000105427919518718760450000017202084548299543466_);fill:#FAE21F;}
	.st177{opacity:0.1;clip-path:url(#SVGID_00000159440919666977319940000012511590675231454142_);fill:#FAE21F;}
	.st178{clip-path:url(#SVGID_00000156562523912553650460000007863784685869975174_);fill:#FAE21F;}
	.st179{opacity:0.13;clip-path:url(#SVGID_00000026885969544956890930000005176597687151224470_);fill:#FAE21F;}
	.st180{opacity:0.1;clip-path:url(#SVGID_00000168089475077239324440000015639808445590592160_);fill:#FAE21F;}
	.st181{opacity:0.1;clip-path:url(#SVGID_00000139255536304297917690000003719222417273266061_);fill:#FAE21F;}
	.st182{clip-path:url(#SVGID_00000049924757704575667460000000333888865543896965_);fill:#FAE21F;}
	.st183{clip-path:url(#SVGID_00000160167676455742220730000011321363341782787001_);fill:#FAE21F;}
	.st184{clip-path:url(#SVGID_00000086654844964134956150000007427170884542902149_);fill:#FAE21F;}
	.st185{clip-path:url(#SVGID_00000016033391061785069690000010868455071020610222_);fill:#FAE21F;}
	.st186{opacity:0.15;clip-path:url(#SVGID_00000033342500223543340210000007717613438105693883_);fill:#181919;}
	.st187{opacity:0.2;clip-path:url(#SVGID_00000114075110699361345090000008330525945717859490_);fill:#181919;}
	.st188{opacity:0.1;clip-path:url(#SVGID_00000087383096345925190770000002828316270505799072_);fill:#181919;}
	.st189{clip-path:url(#SVGID_00000044892465816806118030000018266378564238718379_);fill:#1E202E;}
	.st190{opacity:0.13;clip-path:url(#SVGID_00000021082116092415618280000009242987600354812351_);fill:#181919;}
	.st191{opacity:0.1;clip-path:url(#SVGID_00000108298116562771621840000001584324855791680430_);fill:#181919;}
	.st192{opacity:0.1;clip-path:url(#SVGID_00000008114519732135689550000011606695100876989063_);fill:#181919;}
	.st193{clip-path:url(#SVGID_00000168078370717782472490000011089833939304158109_);fill:#1E202E;}
	.st194{clip-path:url(#SVGID_00000062879519702703554060000016691219536699506084_);fill:#1E202E;}
	.st195{clip-path:url(#SVGID_00000172415468764539157700000008493070758396049854_);fill:#FFFFFF;}
	.st196{clip-path:url(#SVGID_00000063595868968703846720000012772032061007927959_);fill:#FFFFFF;}
	.st197{opacity:0.11;fill:#FFFFFF;}
	.st198{opacity:0.15;clip-path:url(#SVGID_00000120520612400281418500000007659434424496865686_);fill:#FAE21F;}
	.st199{opacity:0.2;clip-path:url(#SVGID_00000136413556136587980520000013071802245769882290_);fill:#FAE21F;}
	.st200{opacity:0.1;clip-path:url(#SVGID_00000123432937397971921010000001659008960213037755_);fill:#FAE21F;}
	.st201{clip-path:url(#SVGID_00000073686919712852030670000000401582308559268516_);fill:#FAE21F;}
	.st202{opacity:0.13;clip-path:url(#SVGID_00000070100138366838533810000011242822182169960331_);fill:#FAE21F;}
	.st203{opacity:0.1;clip-path:url(#SVGID_00000094604479073582322070000006984953085255939745_);fill:#FAE21F;}
	.st204{opacity:0.1;clip-path:url(#SVGID_00000183951186683578337980000008964408631129882501_);fill:#FAE21F;}
	.st205{clip-path:url(#SVGID_00000079460538776182359370000002627450368391931031_);fill:#FAE21F;}
	.st206{clip-path:url(#SVGID_00000072984898783619953130000003235866005164760706_);fill:#FAE21F;}
	.st207{clip-path:url(#SVGID_00000049217976955898077700000017849865792940164757_);fill:#FAE21F;}
	.st208{clip-path:url(#SVGID_00000127022371324486492860000010535955924839019916_);fill:#FAE21F;}
	.st209{opacity:0.15;clip-path:url(#SVGID_00000093151842392701679770000000556800481005317553_);fill:#181919;}
	.st210{opacity:0.2;clip-path:url(#SVGID_00000067947045753282195080000009424025992949186699_);fill:#181919;}
	.st211{opacity:0.1;clip-path:url(#SVGID_00000070830699779905261060000007263971936996270509_);fill:#181919;}
	.st212{clip-path:url(#SVGID_00000060711157849134724100000009210166076316074425_);fill:#1E202E;}
	.st213{opacity:0.13;clip-path:url(#SVGID_00000047739407790435087750000002580689772888728223_);fill:#181919;}
	.st214{opacity:0.1;clip-path:url(#SVGID_00000082365447874740560630000008970305661161663893_);fill:#181919;}
	.st215{opacity:0.1;clip-path:url(#SVGID_00000054265716906868277010000017130255473045671313_);fill:#181919;}
	.st216{clip-path:url(#SVGID_00000058590866808130148390000012996995007044985740_);fill:#1E202E;}
	.st217{clip-path:url(#SVGID_00000151537175359860242650000006108943262772590985_);fill:#1E202E;}
	.st218{clip-path:url(#SVGID_00000060019830106027508210000014585878811200534960_);fill:#FFFFFF;}
	.st219{clip-path:url(#SVGID_00000003066460192543547410000000624360916133614492_);fill:#FFFFFF;}
	.st220{fill:#AD6632;stroke:#000000;stroke-width:5;stroke-miterlimit:10;}
	.st221{fill:#FF6464;}
	.st222{fill:#FFFFFF;stroke:#000000;stroke-width:3;stroke-miterlimit:10;}
	.st223{fill:#EAF286;stroke:#000000;stroke-width:3;stroke-miterlimit:10;}
	.st224{fill:#E94949;stroke:#000000;stroke-width:3;stroke-miterlimit:10;}
	.st225{fill:#FFD11D;stroke:#000000;stroke-width:3;stroke-miterlimit:10;}
	.st226{fill:#8AE9FD;stroke:#000000;stroke-width:3;stroke-miterlimit:10;}
	.st227{fill:#FFB44B;stroke:#000000;stroke-width:3;stroke-miterlimit:10;}
	.st228{fill:none;stroke:#000000;stroke-width:2;stroke-miterlimit:10;}
	.st229{fill:#0A0B0C;stroke:#000000;stroke-width:5;stroke-miterlimit:10;}
	.st230{fill:#FFDDAA;stroke:#000000;stroke-width:5;stroke-miterlimit:10;}
	.st231{fill:#EAEAEA;}
	.st232{opacity:0.18;fill:#FFFFFF;}
	.st233{opacity:0.5;fill:#FFFFFF;}
	.st234{opacity:0.83;fill:#FFFFFF;}
	.st235{fill:#EC7525;}
	.st236{fill:#225EA5;}
	.st237{fill:#103051;stroke:#000000;stroke-width:4;stroke-miterlimit:10;}
	.st238{fill:#E63E6B;}
</style>
<g>
	<g>
		<path class="st67" d="M46.5,121c-0.3,0.7-0.6,1.4-1,2.1C46.1,121.9,46.5,121.1,46.5,121z"/>
	</g>
	<g>
		<path class="st62" d="M294.8,191.4L82.9,100.4c0.6-0.2,1.2-0.4,1.7-0.5c3.3-1,6.7-1.6,10.3-1.9c50.5-4.2,99.6-4.2,150.1,0
			c21.1,1.7,37.4,15.4,40.7,34c2.8,15.6,6.3,37,8.8,58.2C294.7,190.5,294.8,191,294.8,191.4z"/>
		<path class="st63" d="M297.9,234.4c0,6-0.3,11.4-0.9,15.9c-0.2,1.5-0.5,3-0.7,4.3l-0.1,0.2v0.2c-1.7,6.2-5.5,11.7-10.7,15.5
			c-0.4,0.3-0.8,0.5-1.1,0.8L48.1,170c0.1-0.4,0.1-0.8,0.2-1.2c2-13.6,4.1-26.5,6-36.8c2.6-14.9,13.6-26.6,28.7-31.5
			c0.6-0.2,1.2-0.4,1.7-0.5l210,90.2c0.1,0.5,0.1,0.9,0.2,1.4C296.6,206.8,297.9,221.9,297.9,234.4z"/>
		<path class="st64" d="M285.4,270.6c-0.4,0.3-0.8,0.5-1.1,0.8c-0.4,0.3-0.9,0.6-1.4,0.8c-0.4,0.2-0.8,0.4-1.2,0.7
			c-29.5,15.7-93.7,21.3-148.2,16.9c-1.3-0.1-2.5-0.2-3.7-0.3l-86.2-37c-0.1-0.3-0.1-0.7-0.2-1l0-0.2l-0.1-0.2v0
			c-2.8-18.1,0.6-51.3,4.9-81.2c0.1-0.4,0.1-0.8,0.2-1.2L285.4,270.6z"/>
		<path class="st65" d="M133.4,289.9c-1.3-0.1-2.5-0.2-3.7-0.3c-29.6-2.7-55.9-8.3-71.9-16.9c-0.1,0-0.1-0.1-0.2-0.1
			c-7.1-3.9-12.2-10.7-13.9-18.7c-0.1-0.4-0.2-0.9-0.2-1.3c-0.1-0.3-0.1-0.7-0.2-1l0-0.2l-0.1-0.2L133.4,289.9z"/>
	</g>
	<polygon class="st1" points="238.6,309 238.6,309.1 238.5,309.1 	"/>
	<polygon class="st1" points="238.6,309.1 238.5,309.1 238.6,309 	"/>
	<polygon class="st1" points="238.4,309.2 238.4,309.2 238.5,309.1 	"/>
	<path class="st13" d="M299,251.1c-0.2,1.7-0.5,3.2-0.8,4.7c0,0,0,0,0,0c-2.1,8-7.3,14.7-14.3,18.7c-0.4,0.2-0.9,0.5-1.3,0.7
		C235.4,300.4,103,300.1,56.7,275c-0.1,0-0.1-0.1-0.2-0.1c-7.5-4.2-13.1-11.4-15-20.1c0,0,0-0.1,0-0.1c-0.1-0.8-0.3-1.7-0.4-2.5
		c0,0,0,0,0-0.1C37,225.9,45.4,169.3,52,132c3.7-20.7,21.7-34.1,42.7-35.8c50.7-4.2,99.8-4.2,150.5,0c20.9,1.7,39,15.1,42.7,35.7
		C294.5,168.9,302.9,224.6,299,251.1z"/>
	<g>
		<path class="st6" d="M236,234.4c-16.2,0-30.6-5.9-39.5-15l0,0c-6.6-6.5-16-10.5-26.5-10.5s-19.8,4-26.5,10.5l0,0
			c-9,9.1-23.3,15-39.5,15c-27.1,0-51.2-0.5-49.1-20.8c0.6-6.2,4.2-20.8,4.9-24.3c1.8-10.1-3.4-60.3,30.9-55.1
			c26,3.9,25.4,7.1,45.5,14c12.3,4.2,10.6,6.5,33.9,6.5s21.6-2.3,33.9-6.5c20.1-6.8,19.5-10,45.5-14c34.3-5.2,29.1,45.1,30.9,55.1
			c0.6,3.5,4.2,18.1,4.9,24.3C287.2,233.9,263.2,234.4,236,234.4z"/>
	</g>
	<path class="st13" d="M260.7,186.2c0,1,0,2.1-0.1,3.1c-1.6,16-15,28.5-31.4,28.5s-29.9-12.5-31.4-28.5c-0.1-1-0.1-2-0.1-3.1
		c0-17.4,14.1-31.6,31.6-31.6S260.7,168.8,260.7,186.2z"/>
	<path class="st13" d="M142.5,186.2c0,1,0,2.1-0.1,3.1c-1.6,16-15,28.5-31.4,28.5S81,205.3,79.5,189.3c-0.1-1-0.1-2-0.1-3.1
		c0-17.4,14.1-31.6,31.6-31.6S142.5,168.8,142.5,186.2z"/>
	<g>
		<path class="st1" d="M142.3,193c-1.6,16-15,28.5-31.4,28.5C94.5,221.5,81,209,79.5,193c1.6-16,15-28.5,31.4-28.5
			C127.3,164.6,140.7,177.1,142.3,193z"/>
		<path class="st1" d="M260.5,193c-1.6,16-15,28.5-31.4,28.5c-16.4,0-29.9-12.5-31.4-28.5c1.6-16,15-28.5,31.4-28.5
			C245.5,164.6,259,177.1,260.5,193z"/>
		<path class="st14" d="M142.5,186.2c0,1,0,2.1-0.1,3.1c-1.6,16-15,28.5-31.4,28.5c-16.4,0-29.9-12.5-31.4-28.5
			c-0.1-1-0.1-2-0.1-3.1c0-17.4,14.1-31.6,31.6-31.6C128.3,154.7,142.5,168.8,142.5,186.2z"/>
		<path class="st4" d="M142.3,189.3c-1.6,16-15,28.5-31.4,28.5c-16.4,0-29.9-12.5-31.4-28.5c1.6-16,15-28.5,31.4-28.5
			C127.3,160.9,140.7,173.3,142.3,189.3z"/>
		<path class="st14" d="M260.7,186.2c0,1,0,2.1-0.1,3.1c-1.6,16-15,28.5-31.4,28.5c-16.4,0-29.9-12.5-31.4-28.5
			c-0.1-1-0.1-2-0.1-3.1c0-17.4,14.1-31.6,31.6-31.6C246.5,154.7,260.7,168.8,260.7,186.2z"/>
		<path class="st4" d="M260.5,189.3c-1.6,16-15,28.5-31.4,28.5c-16.4,0-29.9-12.5-31.4-28.5c1.6-16,15-28.5,31.4-28.5
			C245.5,160.9,259,173.3,260.5,189.3z"/>
		<circle class="st1" cx="230.3" cy="199.2" r="21"/>
		<path class="st4" d="M231.7,191.2c-0.8,2.8-3.7,4.4-6.5,3.6c-1.3-0.4-2.4-1.2-3-2.4c-1.5,0.5-3.1,0.6-4.7,0.1
			c-4.1-1.2-6.5-5.5-5.3-9.6c1.2-4.1,5.5-6.5,9.6-5.3c3.2,0.9,5.3,3.7,5.6,6.8c0.3,0,0.5,0.1,0.8,0.2
			C230.9,185.5,232.5,188.5,231.7,191.2z"/>
		<circle class="st1" cx="110.9" cy="199.2" r="21"/>
		<path class="st4" d="M112.3,191.2c-0.8,2.8-3.7,4.4-6.5,3.6c-1.3-0.4-2.4-1.2-3-2.4c-1.5,0.5-3.1,0.6-4.7,0.1
			c-4.1-1.2-6.5-5.5-5.3-9.6c1.2-4.1,5.5-6.5,9.6-5.3c3.2,0.9,5.3,3.7,5.6,6.8c0.3,0,0.5,0.1,0.8,0.2
			C111.5,185.5,113.1,188.5,112.3,191.2z"/>
	</g>
	<ellipse class="st2" cx="170" cy="240" rx="19.8" ry="9.5"/>
	<circle class="st68" cx="170" cy="113.9" r="31.9"/>
	<circle class="st69" cx="170" cy="90.2" r="23.7"/>
	<circle class="st70" cx="170" cy="66.6" r="15.8"/>
	<circle class="st71" cx="170" cy="50.7" r="10.4"/>
	<circle class="st72" cx="170" cy="38.7" r="7.9"/>
</g>
</svg>
