<?xml version="1.0" encoding="utf-8"?>
<!-- Generator: Adobe Illustrator 27.1.1, SVG Export Plug-In . SVG Version: 6.00 Build 0)  -->
<svg version="1.1" id="Calque_1" xmlns="http://www.w3.org/2000/svg" xmlns:xlink="http://www.w3.org/1999/xlink" x="0px" y="0px"
	 viewBox="0 0 340 340" style="enable-background:new 0 0 340 340;" xml:space="preserve">
<style type="text/css">
	.st0{fill:none;}
	.st1{fill:#22242B;}
	.st2{opacity:0.2;}
	.st3{fill:#00BCD4;}
	.st4{fill:#FFFFFF;}
	.st5{fill:#584464;}
	.st6{fill:#F3DBCE;stroke:#000000;stroke-width:5;stroke-miterlimit:10;}
	.st7{fill:#A67D65;stroke:#000000;stroke-width:5;stroke-miterlimit:10;}
	.st8{fill:#6CC09A;stroke:#000000;stroke-width:5;stroke-miterlimit:10;}
	.st9{fill:#E8E8E7;stroke:#000000;stroke-width:5;stroke-miterlimit:10;}
	.st10{fill:#22242B;stroke:#000000;stroke-width:5;stroke-miterlimit:10;}
	.st11{opacity:0.2;stroke:#000000;stroke-width:5;stroke-miterlimit:10;}
	.st12{fill:#00BCD4;stroke:#000000;stroke-width:5;stroke-miterlimit:10;}
	.st13{fill:none;stroke:#000000;stroke-width:5;stroke-miterlimit:10;}
	.st14{fill:#5F3E60;}
	.st15{fill:none;stroke:#313333;stroke-width:5;stroke-miterlimit:10;}
	.st16{fill:#313333;}
	.st17{fill:#6D7172;stroke:#000000;stroke-width:5;stroke-miterlimit:10;}
	.st18{fill:#FAE21F;}
	.st19{opacity:0.15;clip-path:url(#SVGID_00000059288845578874299380000000315053807163155616_);fill:#FAE21F;}
	.st20{opacity:0.2;clip-path:url(#SVGID_00000127723346356059328310000006255187575720410268_);fill:#FAE21F;}
	.st21{opacity:0.1;clip-path:url(#SVGID_00000044870342967096519750000009754304489873964457_);fill:#FAE21F;}
	.st22{clip-path:url(#SVGID_00000080195196368654755830000005655187888510196114_);fill:#FAE21F;}
	.st23{opacity:0.13;clip-path:url(#SVGID_00000110468838635721145220000017520984390598304652_);fill:#FAE21F;}
	.st24{opacity:0.1;clip-path:url(#SVGID_00000097481858650415607230000002654715977581411239_);fill:#FAE21F;}
	.st25{opacity:0.1;clip-path:url(#SVGID_00000047030342348253760730000005790098998105502351_);fill:#FAE21F;}
	.st26{clip-path:url(#SVGID_00000118382770998001320620000002728416386673446045_);fill:#FAE21F;}
	.st27{clip-path:url(#SVGID_00000076587108274296616870000012734785866002565806_);fill:#FAE21F;}
	.st28{clip-path:url(#SVGID_00000041292738276815350470000014366415675802719398_);fill:#FAE21F;}
	.st29{clip-path:url(#SVGID_00000013887999939007935220000013733771275850538421_);fill:#FAE21F;}
	.st30{opacity:0.15;clip-path:url(#SVGID_00000010294601778144843390000001121107697689004964_);fill:#181919;}
	.st31{opacity:0.2;clip-path:url(#SVGID_00000127741719253146709530000005425612247444305310_);fill:#181919;}
	.st32{opacity:0.1;clip-path:url(#SVGID_00000168799135713960921590000014106194249660167861_);fill:#181919;}
	.st33{clip-path:url(#SVGID_00000150070909539263955940000017395986247599416458_);fill:#1E202E;}
	.st34{fill:#422827;}
	.st35{opacity:0.13;clip-path:url(#SVGID_00000082335108719948355540000015214737104866786179_);fill:#181919;}
	.st36{opacity:0.1;clip-path:url(#SVGID_00000011724894115066651600000007054345113285046695_);fill:#181919;}
	.st37{opacity:0.1;clip-path:url(#SVGID_00000129905378104167651070000000145009860306255012_);fill:#181919;}
	.st38{clip-path:url(#SVGID_00000074431389982755939880000003867390570866367110_);fill:#1E202E;}
	.st39{clip-path:url(#SVGID_00000001658789951351450180000007877395715057724337_);fill:#1E202E;}
	.st40{fill:#DE3942;}
	.st41{fill:#18181E;}
	.st42{clip-path:url(#SVGID_00000123409495833526633040000011807783030123245447_);fill:#FFFFFF;}
	.st43{clip-path:url(#SVGID_00000145052703401214599220000000368766976343634314_);fill:#FFFFFF;}
	.st44{fill:#242258;}
	.st45{fill:#EF548B;}
	.st46{fill:#0087A3;}
	.st47{fill:#37C093;}
	.st48{fill:#FF3D00;}
	.st49{fill:#EF548B;stroke:#000000;stroke-width:5;stroke-miterlimit:10;}
	.st50{fill:#F7EFEB;stroke:#000000;stroke-width:5;stroke-miterlimit:10;}
	.st51{fill:#E83131;}
	.st52{fill:#A94141;}
	.st53{fill:#E94949;}
	.st54{fill:#825626;stroke:#000000;stroke-width:5;stroke-miterlimit:10;}
	.st55{opacity:0.72;fill:#D9B29C;}
	.st56{stroke:#000000;stroke-width:5;stroke-miterlimit:10;}
	.st57{fill:#FFFFFF;stroke:#000000;stroke-width:5;stroke-miterlimit:10;}
	.st58{fill:#E94949;stroke:#000000;stroke-width:5;stroke-miterlimit:10;}
	.st59{fill:#37C093;stroke:#000000;stroke-width:5;stroke-miterlimit:10;}
	.st60{fill:#825626;}
	.st61{fill:#F7EFEB;}
	.st62{fill:#EAF286;}
	.st63{fill:#50FA7B;}
	.st64{fill:#8AE9FD;}
	.st65{fill:#FF79C6;}
	.st66{fill:#BE93F9;}
	.st67{fill:#00A7D9;}
	.st68{fill:#BE93F9;stroke:#000000;stroke-width:5;stroke-miterlimit:10;}
	.st69{fill:#FF79C6;stroke:#000000;stroke-width:5;stroke-miterlimit:10;}
	.st70{fill:#8AE9FD;stroke:#000000;stroke-width:5;stroke-miterlimit:10;}
	.st71{fill:#50FA7B;stroke:#000000;stroke-width:5;stroke-miterlimit:10;}
	.st72{fill:#EAF286;stroke:#000000;stroke-width:5;stroke-miterlimit:10;}
	.st73{opacity:0.15;clip-path:url(#SVGID_00000006704203492259098180000012777966315081838777_);fill:#FAE21F;}
	.st74{opacity:0.2;clip-path:url(#SVGID_00000098178989376027709610000003991536764458173580_);fill:#FAE21F;}
	.st75{opacity:0.1;clip-path:url(#SVGID_00000096031150394143329760000000796859563281692289_);fill:#FAE21F;}
	.st76{clip-path:url(#SVGID_00000180329216176136332490000000494149645616233857_);fill:#FAE21F;}
	.st77{opacity:0.13;clip-path:url(#SVGID_00000143618205743999597220000002240021734096617404_);fill:#FAE21F;}
	.st78{opacity:0.1;clip-path:url(#SVGID_00000010990912706201932020000007564188968155210160_);fill:#FAE21F;}
	.st79{opacity:0.1;clip-path:url(#SVGID_00000150090917387163308930000001280756384495995279_);fill:#FAE21F;}
	.st80{clip-path:url(#SVGID_00000139292076636248659830000001756538813266921138_);fill:#FAE21F;}
	.st81{clip-path:url(#SVGID_00000047050589214823609030000007620630492903528579_);fill:#FAE21F;}
	.st82{clip-path:url(#SVGID_00000000189625453972366450000004645327905403183270_);fill:#FAE21F;}
	.st83{clip-path:url(#SVGID_00000103242349996255308270000001810830448234148764_);fill:#FAE21F;}
	.st84{opacity:0.15;clip-path:url(#SVGID_00000016034140092032120390000001884242839845811587_);fill:#181919;}
	.st85{opacity:0.2;clip-path:url(#SVGID_00000016052820885971362690000013423111026609627059_);fill:#181919;}
	.st86{opacity:0.1;clip-path:url(#SVGID_00000010997289185242273410000008605687474703215768_);fill:#181919;}
	.st87{clip-path:url(#SVGID_00000183245320028164904990000016098176680402840228_);fill:#1E202E;}
	.st88{opacity:0.13;clip-path:url(#SVGID_00000183250094834498652370000012269483839337257399_);fill:#181919;}
	.st89{opacity:0.1;clip-path:url(#SVGID_00000089540021948985641740000004543100798903597994_);fill:#181919;}
	.st90{opacity:0.1;clip-path:url(#SVGID_00000109011360480046977410000018025980142672286882_);fill:#181919;}
	.st91{clip-path:url(#SVGID_00000016073252700921961040000008164157444930152599_);fill:#1E202E;}
	.st92{clip-path:url(#SVGID_00000096738986967251998260000016290948024808183204_);fill:#1E202E;}
	.st93{clip-path:url(#SVGID_00000040551394590043417950000002586042633486456734_);fill:#FFFFFF;}
	.st94{clip-path:url(#SVGID_00000122700260772421932400000016640037014781141384_);fill:#FFFFFF;}
	.st95{opacity:0.15;clip-path:url(#SVGID_00000084507761278704209070000002750325636182089641_);fill:#FAE21F;}
	.st96{opacity:0.2;clip-path:url(#SVGID_00000169545593725637762260000005860132204045552768_);fill:#FAE21F;}
	.st97{opacity:0.1;clip-path:url(#SVGID_00000140737225912205572460000003164191134143012739_);fill:#FAE21F;}
	.st98{clip-path:url(#SVGID_00000042735584768113100430000000771089398413068718_);fill:#FAE21F;}
	.st99{opacity:0.13;clip-path:url(#SVGID_00000119810047536186490000000002961565705090246588_);fill:#FAE21F;}
	.st100{opacity:0.1;clip-path:url(#SVGID_00000052063100076629924500000008997853346820332464_);fill:#FAE21F;}
	.st101{opacity:0.1;clip-path:url(#SVGID_00000028323191142896588480000003599335973251787685_);fill:#FAE21F;}
	.st102{clip-path:url(#SVGID_00000060025892751340487250000009659894121289719201_);fill:#FAE21F;}
	.st103{clip-path:url(#SVGID_00000137823527847356598650000003517753851461485487_);fill:#FAE21F;}
	.st104{clip-path:url(#SVGID_00000114772121108953264780000000038458740283920512_);fill:#FAE21F;}
	.st105{clip-path:url(#SVGID_00000152947199103770517130000000206505191529496971_);fill:#FAE21F;}
	.st106{opacity:0.15;clip-path:url(#SVGID_00000183242217446381879870000005572912151971900347_);fill:#181919;}
	.st107{opacity:0.2;clip-path:url(#SVGID_00000058590514390310331840000015960163406096386465_);fill:#181919;}
	.st108{opacity:0.1;clip-path:url(#SVGID_00000132800538644772083500000000024915558541690013_);fill:#181919;}
	.st109{clip-path:url(#SVGID_00000103258282651008935570000017749784627382341290_);fill:#1E202E;}
	.st110{opacity:0.13;clip-path:url(#SVGID_00000013187024556309333580000012620559656479528381_);fill:#181919;}
	.st111{opacity:0.1;clip-path:url(#SVGID_00000011736568919560328120000015441125960744265866_);fill:#181919;}
	.st112{opacity:0.1;clip-path:url(#SVGID_00000155136074368575684310000016663789798829466274_);fill:#181919;}
	.st113{clip-path:url(#SVGID_00000147911694445065413970000004146776041469255816_);fill:#1E202E;}
	.st114{clip-path:url(#SVGID_00000039092063009693659500000013070022887116942254_);fill:#1E202E;}
	.st115{clip-path:url(#SVGID_00000047056309783742092900000001141210437582902459_);fill:#FFFFFF;}
	.st116{clip-path:url(#SVGID_00000080165460255302380570000011693486273168282033_);fill:#FFFFFF;}
	.st117{fill:#F3DBCE;}
	.st118{fill:#E8E8E7;}
	.st119{fill:#6D7172;}
	.st120{opacity:0.15;clip-path:url(#SVGID_00000174584375886105235630000017039880977040520326_);fill:#FAE21F;}
	.st121{opacity:0.2;clip-path:url(#SVGID_00000142175318164750990340000018097736255760786575_);fill:#FAE21F;}
	.st122{opacity:0.1;clip-path:url(#SVGID_00000041991000882965431500000008855242958263618462_);fill:#FAE21F;}
	.st123{clip-path:url(#SVGID_00000026122262425037771660000015371366208754509733_);fill:#FAE21F;}
	.st124{opacity:0.13;clip-path:url(#SVGID_00000052783319526701773510000012345951839543523766_);fill:#FAE21F;}
	.st125{opacity:0.1;clip-path:url(#SVGID_00000165956687980595003540000016690336053026367370_);fill:#FAE21F;}
	.st126{opacity:0.1;clip-path:url(#SVGID_00000126324727511500771000000006563391450791695548_);fill:#FAE21F;}
	.st127{clip-path:url(#SVGID_00000044862029577675498750000000479834494712996252_);fill:#FAE21F;}
	.st128{clip-path:url(#SVGID_00000030471003742046834350000006212591951368492220_);fill:#FAE21F;}
	.st129{clip-path:url(#SVGID_00000140705309497555694550000013666424781850839947_);fill:#FAE21F;}
	.st130{clip-path:url(#SVGID_00000183220037184228448190000013258855428510107014_);fill:#FAE21F;}
	.st131{opacity:0.15;clip-path:url(#SVGID_00000129164085723134302070000011408674642898960023_);fill:#181919;}
	.st132{opacity:0.2;clip-path:url(#SVGID_00000183945194638781481860000000347697694772181687_);fill:#181919;}
	.st133{opacity:0.1;clip-path:url(#SVGID_00000132793535364024282680000006358733079641716142_);fill:#181919;}
	.st134{clip-path:url(#SVGID_00000177455030281825917290000002424431872666253471_);fill:#1E202E;}
	.st135{opacity:0.13;clip-path:url(#SVGID_00000165914789790357078940000007937472577731252881_);fill:#181919;}
	.st136{opacity:0.1;clip-path:url(#SVGID_00000059293619173595445550000001008099226615888785_);fill:#181919;}
	.st137{opacity:0.1;clip-path:url(#SVGID_00000039093849917003248230000007086032196518494850_);fill:#181919;}
	.st138{clip-path:url(#SVGID_00000119802916981140439140000008370838818016216724_);fill:#1E202E;}
	.st139{clip-path:url(#SVGID_00000047028351685531740400000006858550018926571448_);fill:#1E202E;}
	.st140{clip-path:url(#SVGID_00000088128565005926948670000012406548659238399649_);fill:#FFFFFF;}
	.st141{clip-path:url(#SVGID_00000154425136413448306540000005341359229745204896_);fill:#FFFFFF;}
	.st142{fill:#333333;stroke:#000000;stroke-width:5;stroke-miterlimit:10;}
	.st143{fill:#E34B4E;stroke:#000000;stroke-width:5;stroke-miterlimit:10;}
	.st144{fill:#333333;}
	.st145{fill:#E34B4E;}
	.st146{opacity:0.15;clip-path:url(#SVGID_00000084516861254536800990000006036887089488009904_);fill:#FAE21F;}
	.st147{opacity:0.2;clip-path:url(#SVGID_00000166640347769339086170000015148226016862826883_);fill:#FAE21F;}
	.st148{opacity:0.1;clip-path:url(#SVGID_00000114774683120425992950000011281295908376935357_);fill:#FAE21F;}
	.st149{clip-path:url(#SVGID_00000011751012520387283150000010906613850730806700_);fill:#FAE21F;}
	.st150{opacity:0.13;clip-path:url(#SVGID_00000148630602305663751020000000229418460163060127_);fill:#FAE21F;}
	.st151{opacity:0.1;clip-path:url(#SVGID_00000031209374929443021000000018088987200333987491_);fill:#FAE21F;}
	.st152{opacity:0.1;clip-path:url(#SVGID_00000005254264885875649070000016972640931840272298_);fill:#FAE21F;}
	.st153{clip-path:url(#SVGID_00000111878789177550242910000009506454982337007261_);fill:#FAE21F;}
	.st154{clip-path:url(#SVGID_00000070798795512586146060000008185121892546533033_);fill:#FAE21F;}
	.st155{clip-path:url(#SVGID_00000147915723705784778840000017879384478589067960_);fill:#FAE21F;}
	.st156{clip-path:url(#SVGID_00000112630373915021394170000002332490718869085596_);fill:#FAE21F;}
	.st157{opacity:0.15;clip-path:url(#SVGID_00000149381458225020989190000017111537200320788888_);fill:#181919;}
	.st158{opacity:0.2;clip-path:url(#SVGID_00000005982696055570578250000010835260205901980595_);fill:#181919;}
	.st159{opacity:0.1;clip-path:url(#SVGID_00000101817386631148985190000000494530115620395678_);fill:#181919;}
	.st160{clip-path:url(#SVGID_00000127015562717712855730000003400608815549874620_);fill:#1E202E;}
	.st161{opacity:0.13;clip-path:url(#SVGID_00000052791545156399413000000000071699447320951993_);fill:#181919;}
	.st162{opacity:0.1;clip-path:url(#SVGID_00000084503805999608607050000010068909538989929092_);fill:#181919;}
	.st163{opacity:0.1;clip-path:url(#SVGID_00000136381070506252118540000001725963967591546753_);fill:#181919;}
	.st164{clip-path:url(#SVGID_00000013187639343927197550000014190902932098160519_);fill:#1E202E;}
	.st165{clip-path:url(#SVGID_00000090284241130208759030000009280399218028643749_);fill:#1E202E;}
	.st166{clip-path:url(#SVGID_00000176045627791337789520000000799771427943806099_);fill:#FFFFFF;}
	.st167{clip-path:url(#SVGID_00000120556974020727567850000016588961659599964809_);fill:#FFFFFF;}
	.st168{opacity:0.66;fill:#FFFFFF;stroke:#000000;stroke-width:5;stroke-miterlimit:10;}
	.st169{fill:#EAF2DC;stroke:#000000;stroke-width:5;stroke-miterlimit:10;}
	.st170{fill:#A94141;stroke:#000000;stroke-width:5;stroke-miterlimit:10;}
	.st171{fill:#E8E8E7;stroke:#6D7172;stroke-width:5;stroke-miterlimit:10;}
	.st172{fill:#E2BFA9;}
	.st173{fill:#A67D65;}
	.st174{fill:#D9B29C;}
	.st175{opacity:0.15;clip-path:url(#SVGID_00000147920194382697672490000012869050946129045679_);fill:#FAE21F;}
	.st176{opacity:0.2;clip-path:url(#SVGID_00000078763145546689307880000009076822629514355879_);fill:#FAE21F;}
	.st177{opacity:0.1;clip-path:url(#SVGID_00000039838159865309688180000011884928097849522874_);fill:#FAE21F;}
	.st178{clip-path:url(#SVGID_00000142135497527847352420000000042834958015134107_);fill:#FAE21F;}
	.st179{opacity:0.13;clip-path:url(#SVGID_00000067918128839317718840000006846304062805837203_);fill:#FAE21F;}
	.st180{opacity:0.1;clip-path:url(#SVGID_00000046319594596037134580000009179487914428728750_);fill:#FAE21F;}
	.st181{opacity:0.1;clip-path:url(#SVGID_00000026148607223224445380000014314966214977043130_);fill:#FAE21F;}
	.st182{clip-path:url(#SVGID_00000005234899427492875240000000723736614938220210_);fill:#FAE21F;}
	.st183{clip-path:url(#SVGID_00000028313669298040821240000014474541271647464362_);fill:#FAE21F;}
	.st184{clip-path:url(#SVGID_00000061465553787428326020000005811570172479566722_);fill:#FAE21F;}
	.st185{clip-path:url(#SVGID_00000106838030452779270920000006892113695428429245_);fill:#FAE21F;}
	.st186{opacity:0.15;clip-path:url(#SVGID_00000134221209653108425620000001328724982633355444_);fill:#181919;}
	.st187{opacity:0.2;clip-path:url(#SVGID_00000057835044916140374030000011607832612303459977_);fill:#181919;}
	.st188{opacity:0.1;clip-path:url(#SVGID_00000028300044549946389280000006061855327665149374_);fill:#181919;}
	.st189{clip-path:url(#SVGID_00000092441341411735014610000000699699650248907664_);fill:#1E202E;}
	.st190{opacity:0.13;clip-path:url(#SVGID_00000024002886160113222130000015967140994300975540_);fill:#181919;}
	.st191{opacity:0.1;clip-path:url(#SVGID_00000000216584219537103580000006986958886251128249_);fill:#181919;}
	.st192{opacity:0.1;clip-path:url(#SVGID_00000137117519312018155590000003144348555512006288_);fill:#181919;}
	.st193{clip-path:url(#SVGID_00000025401428374947913590000002433111159556999089_);fill:#1E202E;}
	.st194{clip-path:url(#SVGID_00000059274990350628442330000002920249685500071350_);fill:#1E202E;}
	.st195{clip-path:url(#SVGID_00000053518602350263277210000003025853158345045635_);fill:#FFFFFF;}
	.st196{clip-path:url(#SVGID_00000049909412089085717380000005543918241768633528_);fill:#FFFFFF;}
	.st197{opacity:0.11;fill:#FFFFFF;}
	.st198{opacity:0.15;clip-path:url(#SVGID_00000121965579138659711950000012681623244731519135_);fill:#FAE21F;}
	.st199{opacity:0.2;clip-path:url(#SVGID_00000116914830366042683390000007545739173551532164_);fill:#FAE21F;}
	.st200{opacity:0.1;clip-path:url(#SVGID_00000115492701862117481310000015384826518982008989_);fill:#FAE21F;}
	.st201{clip-path:url(#SVGID_00000028294499410838831410000003833517231121246857_);fill:#FAE21F;}
	.st202{opacity:0.13;clip-path:url(#SVGID_00000129205339014848341260000014415560607260970402_);fill:#FAE21F;}
	.st203{opacity:0.1;clip-path:url(#SVGID_00000140723351459730503100000006567322688272565129_);fill:#FAE21F;}
	.st204{opacity:0.1;clip-path:url(#SVGID_00000055681246550936938710000000475130332222311860_);fill:#FAE21F;}
	.st205{clip-path:url(#SVGID_00000009556988818892853760000003243974307480161676_);fill:#FAE21F;}
	.st206{clip-path:url(#SVGID_00000017490311047218339480000007772090561381882241_);fill:#FAE21F;}
	.st207{clip-path:url(#SVGID_00000123419724156045114410000016390399573377657515_);fill:#FAE21F;}
	.st208{clip-path:url(#SVGID_00000166671602239019893770000009159525239506563518_);fill:#FAE21F;}
	.st209{opacity:0.15;clip-path:url(#SVGID_00000142897923756862234690000012566605601574366116_);fill:#181919;}
	.st210{opacity:0.2;clip-path:url(#SVGID_00000110446892125448007920000010169099409284831151_);fill:#181919;}
	.st211{opacity:0.1;clip-path:url(#SVGID_00000032607673925438301110000012116924106037232520_);fill:#181919;}
	.st212{clip-path:url(#SVGID_00000094596979371615141280000002827013912464947898_);fill:#1E202E;}
	.st213{opacity:0.13;clip-path:url(#SVGID_00000168820874164837103520000017336959478295953308_);fill:#181919;}
	.st214{opacity:0.1;clip-path:url(#SVGID_00000173161567741480496140000005472054638899413403_);fill:#181919;}
	.st215{opacity:0.1;clip-path:url(#SVGID_00000162323131861490686550000006752627465413669564_);fill:#181919;}
	.st216{clip-path:url(#SVGID_00000166667801844858186250000000463232512247862453_);fill:#1E202E;}
	.st217{clip-path:url(#SVGID_00000129192346356052145440000008678364401246783619_);fill:#1E202E;}
	.st218{clip-path:url(#SVGID_00000047056314224558695510000002868171053178185634_);fill:#FFFFFF;}
	.st219{clip-path:url(#SVGID_00000110434090006196969970000015285357832695443106_);fill:#FFFFFF;}
	.st220{fill:#AD6632;stroke:#000000;stroke-width:5;stroke-miterlimit:10;}
	.st221{fill:#FF6464;}
	.st222{fill:#FFFFFF;stroke:#000000;stroke-width:3;stroke-miterlimit:10;}
	.st223{fill:#EAF286;stroke:#000000;stroke-width:3;stroke-miterlimit:10;}
	.st224{fill:#E94949;stroke:#000000;stroke-width:3;stroke-miterlimit:10;}
	.st225{fill:#FFD11D;stroke:#000000;stroke-width:3;stroke-miterlimit:10;}
	.st226{fill:#8AE9FD;stroke:#000000;stroke-width:3;stroke-miterlimit:10;}
	.st227{fill:#FFB44B;stroke:#000000;stroke-width:3;stroke-miterlimit:10;}
	.st228{fill:none;stroke:#000000;stroke-width:2;stroke-miterlimit:10;}
	.st229{fill:#0A0B0C;stroke:#000000;stroke-width:5;stroke-miterlimit:10;}
	.st230{fill:#FFDDAA;stroke:#000000;stroke-width:5;stroke-miterlimit:10;}
	.st231{fill:#EAEAEA;}
	.st232{opacity:0.18;fill:#FFFFFF;}
	.st233{opacity:0.5;fill:#FFFFFF;}
	.st234{opacity:0.83;fill:#FFFFFF;}
	.st235{fill:#EC7525;}
	.st236{fill:#225EA5;}
	.st237{fill:#103051;stroke:#000000;stroke-width:4;stroke-miterlimit:10;}
	.st238{fill:#E63E6B;}
</style>
<g>
	<g>
		<polygon class="st1" points="238.6,277.9 238.6,277.9 238.5,278 		"/>
		<polygon class="st1" points="238.6,277.9 238.5,278 238.6,277.9 		"/>
		<polygon class="st1" points="238.4,278.1 238.4,278.1 238.5,278 		"/>
		<path class="st142" d="M299,220c-0.2,1.7-0.5,3.2-0.8,4.7c0,0,0,0,0,0c-2.1,8-7.3,14.7-14.3,18.7c-0.4,0.2-0.9,0.5-1.3,0.7
			C235.4,269.3,103,269,56.7,243.9c-0.1,0-0.1-0.1-0.2-0.1c-7.5-4.2-13.1-11.4-15-20.1c0,0,0-0.1,0-0.1c-0.1-0.8-0.3-1.7-0.4-2.5
			c0,0,0,0,0-0.1c-4.1-26.2,4.4-82.8,11-120.1c3.7-20.7,21.7-34.1,42.7-35.8c50.7-4.2,99.8-4.2,150.5,0c20.9,1.7,39,15.1,42.7,35.7
			C294.5,137.7,302.9,193.5,299,220z"/>
		<path class="st2" d="M164.2,257.9c6.8,0.8,13.6,0.5,20.4-0.2c2.6-0.3,5.4-0.8,7-2.8c1.4-1.8,1.5-4.5,0.1-6.3
			c-0.6-0.8-1.4-1.4-2.2-2c-5.7-4.1-12.4-7-19.4-7.8c-7-0.8-14.3,0.6-20.1,4.6c-1.9,1.3-7.2,5.9-5.2,8.6c0.9,1.2,3.8,1.9,5.1,2.4
			c2.1,0.8,4.3,1.5,6.5,2C159.1,257.1,161.7,257.6,164.2,257.9z"/>
		<g>
			<path class="st6" d="M236,203.3c-16.2,0-30.6-5.9-39.5-15l0,0c-6.6-6.5-16-10.5-26.5-10.5s-19.8,4-26.5,10.5l0,0
				c-9,9.1-23.3,15-39.5,15c-27.1,0-51.2-0.5-49.1-20.8c0.6-6.2,4.2-20.8,4.9-24.3c1.8-10.1-3.4-60.3,30.9-55.1
				c26,3.9,25.4,7.1,45.5,14c12.3,4.2,10.6,6.5,33.9,6.5s21.6-2.3,33.9-6.5c20.1-6.8,19.5-10,45.5-14c34.3-5.2,29.1,45.1,30.9,55.1
				c0.6,3.5,4.2,18.1,4.9,24.3C287.2,202.7,263.2,203.3,236,203.3z"/>
		</g>
		<path class="st13" d="M260.7,155.1c0,1,0,2.1-0.1,3.1c-1.6,16-15,28.5-31.4,28.5s-29.9-12.5-31.4-28.5c-0.1-1-0.1-2-0.1-3.1
			c0-17.4,14.1-31.6,31.6-31.6S260.7,137.7,260.7,155.1z"/>
		<path class="st13" d="M142.5,155.1c0,1,0,2.1-0.1,3.1c-1.6,16-15,28.5-31.4,28.5S81,174.2,79.5,158.2c-0.1-1-0.1-2-0.1-3.1
			c0-17.4,14.1-31.6,31.6-31.6S142.5,137.7,142.5,155.1z"/>
		<g>
			<path class="st1" d="M142.3,161.9c-1.6,16-15,28.5-31.4,28.5c-16.4,0-29.9-12.5-31.4-28.5c1.6-16,15-28.5,31.4-28.5
				C127.3,133.4,140.7,145.9,142.3,161.9z"/>
			<path class="st1" d="M260.5,161.9c-1.6,16-15,28.5-31.4,28.5c-16.4,0-29.9-12.5-31.4-28.5c1.6-16,15-28.5,31.4-28.5
				C245.5,133.4,259,145.9,260.5,161.9z"/>
			<path class="st14" d="M142.5,155.1c0,1,0,2.1-0.1,3.1c-1.6,16-15,28.5-31.4,28.5c-16.4,0-29.9-12.5-31.4-28.5
				c-0.1-1-0.1-2-0.1-3.1c0-17.4,14.1-31.6,31.6-31.6C128.3,123.5,142.5,137.7,142.5,155.1z"/>
			<path class="st4" d="M142.3,158.2c-1.6,16-15,28.5-31.4,28.5c-16.4,0-29.9-12.5-31.4-28.5c1.6-16,15-28.5,31.4-28.5
				C127.3,129.7,140.7,142.2,142.3,158.2z"/>
			<path class="st14" d="M260.7,155.1c0,1,0,2.1-0.1,3.1c-1.6,16-15,28.5-31.4,28.5c-16.4,0-29.9-12.5-31.4-28.5
				c-0.1-1-0.1-2-0.1-3.1c0-17.4,14.1-31.6,31.6-31.6C246.5,123.5,260.7,137.7,260.7,155.1z"/>
			<path class="st4" d="M260.5,158.2c-1.6,16-15,28.5-31.4,28.5c-16.4,0-29.9-12.5-31.4-28.5c1.6-16,15-28.5,31.4-28.5
				C245.5,129.7,259,142.2,260.5,158.2z"/>
			<circle class="st1" cx="220.8" cy="163.7" r="21"/>
			<path class="st4" d="M222.2,155.7c-0.8,2.8-3.7,4.4-6.5,3.6c-1.3-0.4-2.4-1.2-3-2.4c-1.5,0.5-3.1,0.6-4.7,0.1
				c-4.1-1.2-6.5-5.5-5.3-9.6c1.2-4.1,5.5-6.5,9.6-5.3c3.2,0.9,5.3,3.7,5.6,6.8c0.3,0,0.5,0.1,0.8,0.2
				C221.4,150,223,152.9,222.2,155.7z"/>
			<circle class="st1" cx="114.2" cy="151.1" r="21"/>
			<path class="st4" d="M115.5,143.1c-0.8,2.8-3.7,4.4-6.5,3.6c-1.3-0.4-2.4-1.2-3-2.4c-1.5,0.5-3.1,0.6-4.7,0.1
				c-4.1-1.2-6.5-5.5-5.3-9.6c1.2-4.1,5.5-6.5,9.6-5.3c3.2,0.9,5.3,3.7,5.6,6.8c0.3,0,0.5,0.1,0.8,0.2
				C114.7,137.4,116.3,140.3,115.5,143.1z"/>
		</g>
		<path class="st2" d="M189.8,207.2c0,5.3-8.9,9.5-19.8,9.5s-19.8-4.3-19.8-9.5c0-5.3,8.9-13,19.8-13S189.8,202,189.8,207.2z"/>
	</g>
	<path class="st49" d="M187.2,251l-14.3-8.1c-2.4-1.4-5-1.4-7.4,0l-14.3,8.1c-7.9,4.5-15.9-6-15.9-20.6v0c0-14.3,7.7-24.7,15.4-20.9
		l15.2,7.5c2.1,1.1,4.4,1.1,6.5,0l15.2-7.5c7.8-3.8,15.4,6.5,15.4,20.9v0C203.1,245.1,195.1,255.5,187.2,251z"/>
	<path class="st57" d="M153.1,229.4c-3,0-5.2,2.9-4.4,5.8c2.5,8.9,10.7,15.4,20.5,15.4s17.9-6.5,20.5-15.4c0.8-2.9-1.4-5.8-4.4-5.8
		h0c-2,0-3.8,1.3-4.4,3.2c-1.4,5.1-6.1,8.9-11.7,8.9s-10.3-3.8-11.7-8.9C156.9,230.7,155.1,229.4,153.1,229.4L153.1,229.4z"/>
</g>
</svg>
