<?xml version="1.0" encoding="utf-8"?>
<!-- Generator: Adobe Illustrator 27.1.1, SVG Export Plug-In . SVG Version: 6.00 Build 0)  -->
<svg version="1.1" id="Calque_1" xmlns="http://www.w3.org/2000/svg" xmlns:xlink="http://www.w3.org/1999/xlink" x="0px" y="0px"
	 viewBox="0 0 340 340" style="enable-background:new 0 0 340 340;" xml:space="preserve">
<style type="text/css">
	.st0{fill:none;}
	.st1{fill:#22242B;}
	.st2{opacity:0.2;}
	.st3{fill:#00BCD4;}
	.st4{fill:#FFFFFF;}
	.st5{fill:#584464;}
	.st6{fill:#F3DBCE;stroke:#000000;stroke-width:5;stroke-miterlimit:10;}
	.st7{fill:#A67D65;stroke:#000000;stroke-width:5;stroke-miterlimit:10;}
	.st8{fill:#6CC09A;stroke:#000000;stroke-width:5;stroke-miterlimit:10;}
	.st9{fill:#E8E8E7;stroke:#000000;stroke-width:5;stroke-miterlimit:10;}
	.st10{fill:#22242B;stroke:#000000;stroke-width:5;stroke-miterlimit:10;}
	.st11{opacity:0.2;stroke:#000000;stroke-width:5;stroke-miterlimit:10;}
	.st12{fill:#00BCD4;stroke:#000000;stroke-width:5;stroke-miterlimit:10;}
	.st13{fill:none;stroke:#000000;stroke-width:5;stroke-miterlimit:10;}
	.st14{fill:#5F3E60;}
	.st15{fill:none;stroke:#313333;stroke-width:5;stroke-miterlimit:10;}
	.st16{fill:#313333;}
	.st17{fill:#6D7172;stroke:#000000;stroke-width:5;stroke-miterlimit:10;}
	.st18{fill:#FAE21F;}
	.st19{opacity:0.15;clip-path:url(#SVGID_00000058589861505633109780000004090763254119285686_);fill:#FAE21F;}
	.st20{opacity:0.2;clip-path:url(#SVGID_00000026139823758418469060000000906182574915312782_);fill:#FAE21F;}
	.st21{opacity:0.1;clip-path:url(#SVGID_00000085212985665393976900000004235082675741062024_);fill:#FAE21F;}
	.st22{clip-path:url(#SVGID_00000048484380100985854490000012199031226835776689_);fill:#FAE21F;}
	.st23{opacity:0.13;clip-path:url(#SVGID_00000180351836047925863420000012416044108490201488_);fill:#FAE21F;}
	.st24{opacity:0.1;clip-path:url(#SVGID_00000034790852038877797080000017070614079021119368_);fill:#FAE21F;}
	.st25{opacity:0.1;clip-path:url(#SVGID_00000147941605013476217210000001077153603546889876_);fill:#FAE21F;}
	.st26{clip-path:url(#SVGID_00000094593378524442830560000007409815226025791676_);fill:#FAE21F;}
	.st27{clip-path:url(#SVGID_00000041983493525529910670000008109706622769996167_);fill:#FAE21F;}
	.st28{clip-path:url(#SVGID_00000124875276422720498320000008134182955103431096_);fill:#FAE21F;}
	.st29{clip-path:url(#SVGID_00000116914073913958372270000014209627067120025515_);fill:#FAE21F;}
	.st30{opacity:0.15;clip-path:url(#SVGID_00000108305427912427962270000004401733045818656896_);fill:#181919;}
	.st31{opacity:0.2;clip-path:url(#SVGID_00000171691302483419370540000009232848406708466576_);fill:#181919;}
	.st32{opacity:0.1;clip-path:url(#SVGID_00000051359542089877918020000007253126536676987066_);fill:#181919;}
	.st33{clip-path:url(#SVGID_00000160871990887928052260000006773591341747115161_);fill:#1E202E;}
	.st34{fill:#422827;}
	.st35{opacity:0.13;clip-path:url(#SVGID_00000081620250862468702610000006174826928775708846_);fill:#181919;}
	.st36{opacity:0.1;clip-path:url(#SVGID_00000154396168620448143630000017417047388160910259_);fill:#181919;}
	.st37{opacity:0.1;clip-path:url(#SVGID_00000096027650689114675910000012229108457854010040_);fill:#181919;}
	.st38{clip-path:url(#SVGID_00000177484512956320647200000008930033584739203985_);fill:#1E202E;}
	.st39{clip-path:url(#SVGID_00000010991283817667105380000016409988193358387856_);fill:#1E202E;}
	.st40{fill:#DE3942;}
	.st41{fill:#18181E;}
	.st42{clip-path:url(#SVGID_00000003821684080945458860000014314100056229112196_);fill:#FFFFFF;}
	.st43{clip-path:url(#SVGID_00000157998255003969873190000004640864087393801402_);fill:#FFFFFF;}
	.st44{fill:#242258;}
	.st45{fill:#EF548B;}
	.st46{fill:#0087A3;}
	.st47{fill:#37C093;}
	.st48{fill:#FF3D00;}
	.st49{fill:#EF548B;stroke:#000000;stroke-width:5;stroke-miterlimit:10;}
	.st50{fill:#F7EFEB;stroke:#000000;stroke-width:5;stroke-miterlimit:10;}
	.st51{fill:#E83131;}
	.st52{fill:#A94141;}
	.st53{fill:#E94949;}
	.st54{fill:#825626;stroke:#000000;stroke-width:5;stroke-miterlimit:10;}
	.st55{opacity:0.72;fill:#D9B29C;}
	.st56{stroke:#000000;stroke-width:5;stroke-miterlimit:10;}
	.st57{fill:#FFFFFF;stroke:#000000;stroke-width:5;stroke-miterlimit:10;}
	.st58{fill:#E94949;stroke:#000000;stroke-width:5;stroke-miterlimit:10;}
	.st59{fill:#37C093;stroke:#000000;stroke-width:5;stroke-miterlimit:10;}
	.st60{fill:#825626;}
	.st61{fill:#F7EFEB;}
	.st62{fill:#EAF286;}
	.st63{fill:#50FA7B;}
	.st64{fill:#8AE9FD;}
	.st65{fill:#FF79C6;}
	.st66{fill:#BE93F9;}
	.st67{fill:#00A7D9;}
	.st68{fill:#BE93F9;stroke:#000000;stroke-width:5;stroke-miterlimit:10;}
	.st69{fill:#FF79C6;stroke:#000000;stroke-width:5;stroke-miterlimit:10;}
	.st70{fill:#8AE9FD;stroke:#000000;stroke-width:5;stroke-miterlimit:10;}
	.st71{fill:#50FA7B;stroke:#000000;stroke-width:5;stroke-miterlimit:10;}
	.st72{fill:#EAF286;stroke:#000000;stroke-width:5;stroke-miterlimit:10;}
	.st73{opacity:0.15;clip-path:url(#SVGID_00000016763543507174631190000014925403754841100448_);fill:#FAE21F;}
	.st74{opacity:0.2;clip-path:url(#SVGID_00000183945772224976356490000008078965558991298204_);fill:#FAE21F;}
	.st75{opacity:0.1;clip-path:url(#SVGID_00000119840384645438288700000017844352702662569116_);fill:#FAE21F;}
	.st76{clip-path:url(#SVGID_00000091724460968538862040000014431184730557118884_);fill:#FAE21F;}
	.st77{opacity:0.13;clip-path:url(#SVGID_00000072977664026765592090000005462149513507002246_);fill:#FAE21F;}
	.st78{opacity:0.1;clip-path:url(#SVGID_00000107572316827492629560000005626364544141007781_);fill:#FAE21F;}
	.st79{opacity:0.1;clip-path:url(#SVGID_00000181803275193562970850000016064327262727809415_);fill:#FAE21F;}
	.st80{clip-path:url(#SVGID_00000047740878365019716700000011666728504612026501_);fill:#FAE21F;}
	.st81{clip-path:url(#SVGID_00000173158461354262071970000002863022513644420768_);fill:#FAE21F;}
	.st82{clip-path:url(#SVGID_00000005237656370581496690000017370160674362807223_);fill:#FAE21F;}
	.st83{clip-path:url(#SVGID_00000141440006888390625490000014057209202046380714_);fill:#FAE21F;}
	.st84{opacity:0.15;clip-path:url(#SVGID_00000141423939458383223250000018032893880115248802_);fill:#181919;}
	.st85{opacity:0.2;clip-path:url(#SVGID_00000013184575766532760400000012306071688105173649_);fill:#181919;}
	.st86{opacity:0.1;clip-path:url(#SVGID_00000167389325263163218960000012470130820101130169_);fill:#181919;}
	.st87{clip-path:url(#SVGID_00000148655072193225403060000005974400612608759974_);fill:#1E202E;}
	.st88{opacity:0.13;clip-path:url(#SVGID_00000047749619481459105230000010467512192545730981_);fill:#181919;}
	.st89{opacity:0.1;clip-path:url(#SVGID_00000018916196332712523750000007155135689841375626_);fill:#181919;}
	.st90{opacity:0.1;clip-path:url(#SVGID_00000160175123043780047000000011743173048513053075_);fill:#181919;}
	.st91{clip-path:url(#SVGID_00000068654698323431213260000004069671199637088652_);fill:#1E202E;}
	.st92{clip-path:url(#SVGID_00000153692958869204647280000016558995124806038694_);fill:#1E202E;}
	.st93{clip-path:url(#SVGID_00000058584721350750576420000010730656629829701011_);fill:#FFFFFF;}
	.st94{clip-path:url(#SVGID_00000141452020342481003460000008919217802531128208_);fill:#FFFFFF;}
	.st95{opacity:0.15;clip-path:url(#SVGID_00000011031818808212949710000014691575312357190303_);fill:#FAE21F;}
	.st96{opacity:0.2;clip-path:url(#SVGID_00000171684170602761485770000018242401648585626296_);fill:#FAE21F;}
	.st97{opacity:0.1;clip-path:url(#SVGID_00000042017634496155884660000011825126493157054086_);fill:#FAE21F;}
	.st98{clip-path:url(#SVGID_00000146472722937913588930000012815092648137635259_);fill:#FAE21F;}
	.st99{opacity:0.13;clip-path:url(#SVGID_00000088107256973295850480000014266139089823207607_);fill:#FAE21F;}
	.st100{opacity:0.1;clip-path:url(#SVGID_00000132776148270445042390000010632945564433286078_);fill:#FAE21F;}
	.st101{opacity:0.1;clip-path:url(#SVGID_00000023265349040612881440000002287573367705482666_);fill:#FAE21F;}
	.st102{clip-path:url(#SVGID_00000031186244544394205400000015041428762175937944_);fill:#FAE21F;}
	.st103{clip-path:url(#SVGID_00000103239816394475663310000015643067183803891851_);fill:#FAE21F;}
	.st104{clip-path:url(#SVGID_00000182530125987397123870000017611842516816439709_);fill:#FAE21F;}
	.st105{clip-path:url(#SVGID_00000030472499666680670630000017172162265610197435_);fill:#FAE21F;}
	.st106{opacity:0.15;clip-path:url(#SVGID_00000117679006137394489590000010972796679168234930_);fill:#181919;}
	.st107{opacity:0.2;clip-path:url(#SVGID_00000183225300806623093800000004479148295517196429_);fill:#181919;}
	.st108{opacity:0.1;clip-path:url(#SVGID_00000124143673861265546690000018195016371238295482_);fill:#181919;}
	.st109{clip-path:url(#SVGID_00000183954315028109641930000008570641929525389700_);fill:#1E202E;}
	.st110{opacity:0.13;clip-path:url(#SVGID_00000026132070435601285110000000428892519561179058_);fill:#181919;}
	.st111{opacity:0.1;clip-path:url(#SVGID_00000091001374637472912010000014981735726494318722_);fill:#181919;}
	.st112{opacity:0.1;clip-path:url(#SVGID_00000056427413923353745120000012299605090440844684_);fill:#181919;}
	.st113{clip-path:url(#SVGID_00000003098272151362683730000000606688547426457494_);fill:#1E202E;}
	.st114{clip-path:url(#SVGID_00000074438638944532549400000018327436829448100798_);fill:#1E202E;}
	.st115{clip-path:url(#SVGID_00000010282659898050775220000008084893626575419526_);fill:#FFFFFF;}
	.st116{clip-path:url(#SVGID_00000039839974527316706320000009581741835318224556_);fill:#FFFFFF;}
	.st117{fill:#F3DBCE;}
	.st118{fill:#E8E8E7;}
	.st119{fill:#6D7172;}
	.st120{opacity:0.15;clip-path:url(#SVGID_00000129190176381517135500000009091246363239580349_);fill:#FAE21F;}
	.st121{opacity:0.2;clip-path:url(#SVGID_00000015324072239670274130000012941382731156147133_);fill:#FAE21F;}
	.st122{opacity:0.1;clip-path:url(#SVGID_00000021099727870538611000000005619303394099020451_);fill:#FAE21F;}
	.st123{clip-path:url(#SVGID_00000080164173408695125660000005284226474869843101_);fill:#FAE21F;}
	.st124{opacity:0.13;clip-path:url(#SVGID_00000153687393088127739530000007316946676497101208_);fill:#FAE21F;}
	.st125{opacity:0.1;clip-path:url(#SVGID_00000170980789731930777580000005166518924254046876_);fill:#FAE21F;}
	.st126{opacity:0.1;clip-path:url(#SVGID_00000087413562688647915650000003953269001961792701_);fill:#FAE21F;}
	.st127{clip-path:url(#SVGID_00000044866738763203542110000009270427509006013593_);fill:#FAE21F;}
	.st128{clip-path:url(#SVGID_00000103945945325164234880000013961125210470993318_);fill:#FAE21F;}
	.st129{clip-path:url(#SVGID_00000177463631409252098320000012353667492504647335_);fill:#FAE21F;}
	.st130{clip-path:url(#SVGID_00000075859588474729749210000009535968675935393176_);fill:#FAE21F;}
	.st131{opacity:0.15;clip-path:url(#SVGID_00000111878958128359589030000012866888460615711362_);fill:#181919;}
	.st132{opacity:0.2;clip-path:url(#SVGID_00000054962506352456981160000000941011966877325222_);fill:#181919;}
	.st133{opacity:0.1;clip-path:url(#SVGID_00000049915020546223642770000017244653057231657391_);fill:#181919;}
	.st134{clip-path:url(#SVGID_00000038372204812584908060000008704100367711818133_);fill:#1E202E;}
	.st135{opacity:0.13;clip-path:url(#SVGID_00000154401864875437091000000017427706053535744950_);fill:#181919;}
	.st136{opacity:0.1;clip-path:url(#SVGID_00000115494172998798517180000008034352667930923957_);fill:#181919;}
	.st137{opacity:0.1;clip-path:url(#SVGID_00000147219127933121201700000014231745830216385207_);fill:#181919;}
	.st138{clip-path:url(#SVGID_00000065776508161071867190000013371616676458051004_);fill:#1E202E;}
	.st139{clip-path:url(#SVGID_00000034774277145500278930000008323967590054939286_);fill:#1E202E;}
	.st140{clip-path:url(#SVGID_00000063604367973921961980000003758329942382580889_);fill:#FFFFFF;}
	.st141{clip-path:url(#SVGID_00000148656212495272887690000018032913824074018439_);fill:#FFFFFF;}
	.st142{fill:#333333;stroke:#000000;stroke-width:5;stroke-miterlimit:10;}
	.st143{fill:#E34B4E;stroke:#000000;stroke-width:5;stroke-miterlimit:10;}
	.st144{fill:#333333;}
	.st145{fill:#E34B4E;}
	.st146{opacity:0.15;clip-path:url(#SVGID_00000137820816524598179680000000167689009667968648_);fill:#FAE21F;}
	.st147{opacity:0.2;clip-path:url(#SVGID_00000145741999819829546560000001050793651882187141_);fill:#FAE21F;}
	.st148{opacity:0.1;clip-path:url(#SVGID_00000042000641842719003740000011652377290174230190_);fill:#FAE21F;}
	.st149{clip-path:url(#SVGID_00000135692046770877040390000002005134696614226821_);fill:#FAE21F;}
	.st150{opacity:0.13;clip-path:url(#SVGID_00000134222395404946441470000002359986629348355742_);fill:#FAE21F;}
	.st151{opacity:0.1;clip-path:url(#SVGID_00000088846486191667224370000000652191505941658497_);fill:#FAE21F;}
	.st152{opacity:0.1;clip-path:url(#SVGID_00000006671886041990354460000002273338451758693293_);fill:#FAE21F;}
	.st153{clip-path:url(#SVGID_00000078023159702599453310000008126954780975159444_);fill:#FAE21F;}
	.st154{clip-path:url(#SVGID_00000142169597674933922230000007545540138375473818_);fill:#FAE21F;}
	.st155{clip-path:url(#SVGID_00000013909913997779022820000018009843240271149470_);fill:#FAE21F;}
	.st156{clip-path:url(#SVGID_00000085244136237584058570000002323342756132586666_);fill:#FAE21F;}
	.st157{opacity:0.15;clip-path:url(#SVGID_00000053518023196136712070000015961992888761693629_);fill:#181919;}
	.st158{opacity:0.2;clip-path:url(#SVGID_00000083080771355272767570000011985097953767070086_);fill:#181919;}
	.st159{opacity:0.1;clip-path:url(#SVGID_00000089554218361030128430000014770780017798270098_);fill:#181919;}
	.st160{clip-path:url(#SVGID_00000016060554430444628860000006399102461889126544_);fill:#1E202E;}
	.st161{opacity:0.13;clip-path:url(#SVGID_00000172401115940259818110000018377227488859135386_);fill:#181919;}
	.st162{opacity:0.1;clip-path:url(#SVGID_00000151511135104584422410000005663171244615754626_);fill:#181919;}
	.st163{opacity:0.1;clip-path:url(#SVGID_00000154426406951998489330000013553541819979248552_);fill:#181919;}
	.st164{clip-path:url(#SVGID_00000171000817513518635000000006100825410294250134_);fill:#1E202E;}
	.st165{clip-path:url(#SVGID_00000171693712336060275570000002652533301055192740_);fill:#1E202E;}
	.st166{clip-path:url(#SVGID_00000098941058986082493990000006297761224209321113_);fill:#FFFFFF;}
	.st167{clip-path:url(#SVGID_00000135690947205576615960000014619507096396521631_);fill:#FFFFFF;}
	.st168{opacity:0.66;fill:#FFFFFF;stroke:#000000;stroke-width:5;stroke-miterlimit:10;}
	.st169{fill:#EAF2DC;stroke:#000000;stroke-width:5;stroke-miterlimit:10;}
	.st170{fill:#A94141;stroke:#000000;stroke-width:5;stroke-miterlimit:10;}
	.st171{fill:#E8E8E7;stroke:#6D7172;stroke-width:5;stroke-miterlimit:10;}
	.st172{fill:#E2BFA9;}
	.st173{fill:#A67D65;}
	.st174{fill:#D9B29C;}
	.st175{opacity:0.15;clip-path:url(#SVGID_00000155109689596899713170000007079549083926127014_);fill:#FAE21F;}
	.st176{opacity:0.2;clip-path:url(#SVGID_00000031910217170553017400000015524618008778305683_);fill:#FAE21F;}
	.st177{opacity:0.1;clip-path:url(#SVGID_00000061443921914464860260000008796907654560237732_);fill:#FAE21F;}
	.st178{clip-path:url(#SVGID_00000091008839395425450370000004901569145281900443_);fill:#FAE21F;}
	.st179{opacity:0.13;clip-path:url(#SVGID_00000062905622148909058140000007899263679144338312_);fill:#FAE21F;}
	.st180{opacity:0.1;clip-path:url(#SVGID_00000178186955002118484100000003161301046304847022_);fill:#FAE21F;}
	.st181{opacity:0.1;clip-path:url(#SVGID_00000005981098580904823690000018118929475941649793_);fill:#FAE21F;}
	.st182{clip-path:url(#SVGID_00000033367197050669705030000004542508428218832772_);fill:#FAE21F;}
	.st183{clip-path:url(#SVGID_00000098188407442406952830000011672880074188657559_);fill:#FAE21F;}
	.st184{clip-path:url(#SVGID_00000040539835456026186430000008011570756550193578_);fill:#FAE21F;}
	.st185{clip-path:url(#SVGID_00000154423104971095267640000002180893762323670194_);fill:#FAE21F;}
	.st186{opacity:0.15;clip-path:url(#SVGID_00000047051603845627045530000016638390367651057800_);fill:#181919;}
	.st187{opacity:0.2;clip-path:url(#SVGID_00000174589923259274216130000010429112086325569683_);fill:#181919;}
	.st188{opacity:0.1;clip-path:url(#SVGID_00000029004352771196919780000003051328923327633836_);fill:#181919;}
	.st189{clip-path:url(#SVGID_00000105394946123813932150000004694363727889161624_);fill:#1E202E;}
	.st190{opacity:0.13;clip-path:url(#SVGID_00000043436695497118369200000005688122267860829849_);fill:#181919;}
	.st191{opacity:0.1;clip-path:url(#SVGID_00000150808006429275786140000000642182970185766561_);fill:#181919;}
	.st192{opacity:0.1;clip-path:url(#SVGID_00000003094460599049259050000000049518531139501243_);fill:#181919;}
	.st193{clip-path:url(#SVGID_00000068664887597906768820000015763127839691719352_);fill:#1E202E;}
	.st194{clip-path:url(#SVGID_00000054982111727036085580000002652779360865010833_);fill:#1E202E;}
	.st195{clip-path:url(#SVGID_00000000913251983246778970000017802722928190433671_);fill:#FFFFFF;}
	.st196{clip-path:url(#SVGID_00000011737177774029607390000017968086071918627714_);fill:#FFFFFF;}
	.st197{opacity:0.11;fill:#FFFFFF;}
	.st198{opacity:0.15;clip-path:url(#SVGID_00000061444331198817791720000014399342708729526914_);fill:#FAE21F;}
	.st199{opacity:0.2;clip-path:url(#SVGID_00000154408769587617430430000006398149994798315664_);fill:#FAE21F;}
	.st200{opacity:0.1;clip-path:url(#SVGID_00000066488038349925004300000008974522145671735714_);fill:#FAE21F;}
	.st201{clip-path:url(#SVGID_00000044860678741770690970000015024332892275656079_);fill:#FAE21F;}
	.st202{opacity:0.13;clip-path:url(#SVGID_00000030470396308526395410000005074148958189522621_);fill:#FAE21F;}
	.st203{opacity:0.1;clip-path:url(#SVGID_00000117642232400498552940000002133837221027279004_);fill:#FAE21F;}
	.st204{opacity:0.1;clip-path:url(#SVGID_00000060739082171305356670000009702799488796063411_);fill:#FAE21F;}
	.st205{clip-path:url(#SVGID_00000024689894155463273320000000855116856424684191_);fill:#FAE21F;}
	.st206{clip-path:url(#SVGID_00000112621008029810037400000005161736078376312742_);fill:#FAE21F;}
	.st207{clip-path:url(#SVGID_00000093886287823730029330000012974291552428820117_);fill:#FAE21F;}
	.st208{clip-path:url(#SVGID_00000060023030162694740130000010299724386607308163_);fill:#FAE21F;}
	.st209{opacity:0.15;clip-path:url(#SVGID_00000008127058495448773760000009162834471405773970_);fill:#181919;}
	.st210{opacity:0.2;clip-path:url(#SVGID_00000131328175721717335010000014583922563464618397_);fill:#181919;}
	.st211{opacity:0.1;clip-path:url(#SVGID_00000157297230574503723540000015439073362253012379_);fill:#181919;}
	.st212{clip-path:url(#SVGID_00000175302855078041788390000012781257588883645608_);fill:#1E202E;}
	.st213{opacity:0.13;clip-path:url(#SVGID_00000167389587173723861170000017000394425596349578_);fill:#181919;}
	.st214{opacity:0.1;clip-path:url(#SVGID_00000127758720126943639470000007677005977723014329_);fill:#181919;}
	.st215{opacity:0.1;clip-path:url(#SVGID_00000152259676174719202720000013849147938873805210_);fill:#181919;}
	.st216{clip-path:url(#SVGID_00000072964230037420143740000016560284190701934977_);fill:#1E202E;}
	.st217{clip-path:url(#SVGID_00000132767276826022592940000015616051339153333637_);fill:#1E202E;}
	.st218{clip-path:url(#SVGID_00000118371611897702852960000005397993746716833448_);fill:#FFFFFF;}
	.st219{clip-path:url(#SVGID_00000095304818110460170570000009961332852990004912_);fill:#FFFFFF;}
	.st220{fill:#AD6632;stroke:#000000;stroke-width:5;stroke-miterlimit:10;}
	.st221{fill:#FF6464;}
	.st222{fill:#FFFFFF;stroke:#000000;stroke-width:3;stroke-miterlimit:10;}
	.st223{fill:#EAF286;stroke:#000000;stroke-width:3;stroke-miterlimit:10;}
	.st224{fill:#E94949;stroke:#000000;stroke-width:3;stroke-miterlimit:10;}
	.st225{fill:#FFD11D;stroke:#000000;stroke-width:3;stroke-miterlimit:10;}
	.st226{fill:#8AE9FD;stroke:#000000;stroke-width:3;stroke-miterlimit:10;}
	.st227{fill:#FFB44B;stroke:#000000;stroke-width:3;stroke-miterlimit:10;}
	.st228{fill:none;stroke:#000000;stroke-width:2;stroke-miterlimit:10;}
	.st229{fill:#0A0B0C;stroke:#000000;stroke-width:5;stroke-miterlimit:10;}
	.st230{fill:#FFDDAA;stroke:#000000;stroke-width:5;stroke-miterlimit:10;}
	.st231{fill:#EAEAEA;}
	.st232{opacity:0.18;fill:#FFFFFF;}
	.st233{opacity:0.5;fill:#FFFFFF;}
	.st234{opacity:0.83;fill:#FFFFFF;}
	.st235{fill:#EC7525;}
	.st236{fill:#225EA5;}
	.st237{fill:#103051;stroke:#000000;stroke-width:4;stroke-miterlimit:10;}
	.st238{fill:#E63E6B;}
</style>
<g>
	<g>
		<polygon class="st1" points="236.9,291.1 236.9,291.2 236.8,291.2 		"/>
		<polygon class="st1" points="236.9,291.2 236.8,291.3 236.9,291.2 		"/>
		<polygon class="st1" points="236.8,291.3 236.8,291.3 236.8,291.2 		"/>
		<g>
			<path d="M173.9,251.7c-0.1,0-0.2,0-0.2,0"/>
			<path d="M171.7,293.6l0,1.3c-0.2,0-0.3,0-0.5,0c-0.6,0-1.1-0.1-1.6-0.3C170.3,294.3,171,294,171.7,293.6z"/>
		</g>
	</g>
	<g>
		<path class="st57" d="M296.5,234.4c-0.2,1.6-0.5,3.2-0.8,4.6c0,0,0,0,0,0c-2,7.8-7.1,14.4-14,18.4c-0.4,0.2-0.8,0.5-1.3,0.7
			c-46.3,24.6-176.1,24.3-221.5-0.3c-0.1,0-0.1-0.1-0.2-0.1c-7.4-4.1-12.9-11.2-14.7-19.7c0,0,0-0.1,0-0.1c-0.1-0.8-0.3-1.6-0.4-2.5
			c0,0,0,0,0-0.1c-4-25.7,4.3-81.2,10.8-117.8c3.6-20.3,21.3-33.4,41.9-35.1c49.7-4.1,97.9-4.1,147.6,0c20.5,1.7,38.2,14.8,41.9,35
			C292.1,153.7,300.3,208.4,296.5,234.4z"/>
		<path class="st2" d="M50.1,142.7c0,0,9.4-21.7,29.4-26.6s23-32.3,23-32.3L65.4,96.3l-10.6,17L50.1,142.7z"/>
		<path class="st2" d="M290.2,142.7c0,0-9.4-21.7-29.4-26.6s-23-32.3-23-32.3L275,96.3l10.6,17L290.2,142.7z"/>
		<g>
			<polygon class="st1" points="254.6,194.7 254.6,194.7 254.5,194.8 			"/>
			<polygon class="st1" points="254.6,194.7 254.5,194.8 254.6,194.7 			"/>
			<polygon class="st1" points="254.5,194.8 254.5,194.8 254.5,194.8 			"/>
			<g>
				<g>
					<path class="st230" d="M104.7,259.3c-26.6,0-49.6-40.3-47.6-60.2c0.6-6.1,4.2-20.4,4.8-23.8c1.8-9.9-3.3-59.1,30.3-54.1
						c25.5,3.8,24.9,7,44.6,13.7c12.1,4.1,10.4,6.4,33.3,6.4s21.1-2.3,33.3-6.4c19.7-6.7,19.1-9.8,44.6-13.7
						c33.6-5.1,28.5,44.2,30.3,54.1c0.6,3.4,4.2,17.8,4.8,23.8c2,19.9-20.9,63.3-47.5,63.3L104.7,259.3z"/>
				</g>
				<path class="st13" d="M258.9,183.2c0,1,0,2-0.1,3c-1.5,15.7-14.7,27.9-30.8,27.9s-29.3-12.2-30.8-27.9c-0.1-1-0.1-2-0.1-3
					c0-17.1,13.9-30.9,30.9-30.9S258.9,166.2,258.9,183.2z"/>
				<path class="st13" d="M143,183.2c0,1,0,2-0.1,3c-1.5,15.7-14.7,27.9-30.8,27.9S82.8,202,81.2,186.3c-0.1-1-0.1-2-0.1-3
					c0-17.1,13.9-30.9,30.9-30.9S143,166.2,143,183.2z"/>
				<g>
					<path class="st1" d="M142.9,189.9c-1.5,15.7-14.7,27.9-30.8,27.9c-16.1,0-29.3-12.2-30.8-27.9C82.8,174.3,96,162,112,162
						C128.1,162,141.3,174.3,142.9,189.9z"/>
					<path class="st1" d="M258.8,189.9c-1.5,15.7-14.7,27.9-30.8,27.9s-29.3-12.2-30.8-27.9c1.5-15.7,14.7-27.9,30.8-27.9
						S257.2,174.3,258.8,189.9z"/>
					<path class="st1" d="M143,183.2c0,1,0,2-0.1,3c-1.5,15.7-14.7,27.9-30.8,27.9c-16.1,0-29.3-12.2-30.8-27.9c-0.1-1-0.1-2-0.1-3
						c0-17.1,13.9-30.9,30.9-30.9C129.1,152.3,143,166.2,143,183.2z"/>
					<path class="st4" d="M142.9,186.3c-1.5,15.7-14.7,27.9-30.8,27.9c-16.1,0-29.3-12.2-30.8-27.9c1.5-15.7,14.7-27.9,30.8-27.9
						C128.1,158.4,141.3,170.6,142.9,186.3z"/>
					<path class="st1" d="M258.9,183.2c0,1,0,2-0.1,3c-1.5,15.7-14.7,27.9-30.8,27.9s-29.3-12.2-30.8-27.9c-0.1-1-0.1-2-0.1-3
						c0-17.1,13.9-30.9,30.9-30.9C245,152.3,258.9,166.2,258.9,183.2z"/>
					<path class="st4" d="M258.8,186.3c-1.5,15.7-14.7,27.9-30.8,27.9s-29.3-12.2-30.8-27.9c1.5-15.7,14.7-27.9,30.8-27.9
						S257.2,170.6,258.8,186.3z"/>
					<circle class="st1" cx="236.2" cy="192.6" r="20.6"/>
					<path class="st4" d="M237.5,184.7c-0.8,2.7-3.7,4.3-6.4,3.5c-1.3-0.4-2.3-1.2-3-2.3c-1.4,0.5-3,0.6-4.6,0.1
						c-4-1.2-6.3-5.4-5.2-9.4c1.2-4,5.4-6.3,9.4-5.2c3.1,0.9,5.2,3.6,5.4,6.7c0.3,0,0.5,0.1,0.8,0.2
						C236.8,179.1,238.3,182,237.5,184.7z"/>
					<circle class="st1" cx="119.1" cy="192.6" r="20.6"/>
					<path class="st4" d="M120.4,184.7c-0.8,2.7-3.7,4.3-6.4,3.5c-1.3-0.4-2.3-1.2-3-2.3c-1.4,0.5-3,0.6-4.6,0.1
						c-4-1.2-6.3-5.4-5.2-9.4c1.2-4,5.4-6.3,9.4-5.2c3.1,0.9,5.2,3.6,5.4,6.7c0.3,0,0.5,0.1,0.8,0.2
						C119.6,179.1,121.2,182,120.4,184.7z"/>
				</g>
				<g>
					<path d="M174.3,253.3c-0.1,0-0.2,0-0.2,0"/>
				</g>
				<g>
					<polygon class="st1" points="259.3,208.2 259.3,208.2 259.3,208.2 					"/>
					<polygon class="st1" points="259.3,208.2 259.3,208.3 259.3,208.2 					"/>
					<polygon class="st1" points="259.2,208.3 259.2,208.3 259.3,208.2 					"/>
					<g>
						<path d="M220.8,184L220.8,184c0,0-0.1,0-0.1,0C220.7,184,220.7,184,220.8,184z"/>
					</g>
				</g>
			</g>
			<g>
				<g>
					<line class="st61" x1="208.1" y1="208.8" x2="205.8" y2="219.6"/>
					<polygon class="st1" points="210.5,209.3 205.8,219.6 205.6,208.3 210.5,209.3 					"/>
				</g>
				<g>
					<line class="st61" x1="213.7" y1="211.8" x2="211.1" y2="220"/>
					<polygon class="st1" points="216.1,212.5 211.1,220 211.4,211 216.1,212.5 					"/>
				</g>
				<g>
					<path class="st61" d="M246.4,156.9c0,0,9.6-7.8,7.2-15.4"/>
					<path d="M244.8,154.9c3.4-2.2,6.8-5.3,8.3-9.2c0.5-1.3,0.7-2.8,0.4-4.3c1.3,2.9,0.8,6.3-0.4,9.2c-1.3,3.1-3,5.6-5.3,8.1
						C248,158.8,244.8,154.9,244.8,154.9L244.8,154.9z"/>
				</g>
				<g>
					<path class="st61" d="M252.3,164c0,0,9.6-7.8,7.2-15.4"/>
					<path d="M250.7,162.1c3.4-2.2,6.8-5.3,8.3-9.2c0.5-1.3,0.7-2.8,0.4-4.3c1.3,2.9,0.8,6.3-0.4,9.2c-1.3,3.1-3,5.6-5.3,8.1
						C253.9,165.9,250.7,162.1,250.7,162.1L250.7,162.1z"/>
				</g>
			</g>
			<g>
				<g>
					<line class="st61" x1="131.4" y1="208.8" x2="133.7" y2="219.6"/>
					<polygon class="st1" points="133.8,208.3 133.7,219.6 129,209.3 133.8,208.3 					"/>
				</g>
				<g>
					<line class="st61" x1="125.7" y1="211.8" x2="128.4" y2="220"/>
					<polygon class="st1" points="128.1,211 128.4,220 123.3,212.5 128.1,211 					"/>
				</g>
				<g>
					<path class="st61" d="M93.1,156.9c0,0-9.6-7.8-7.2-15.4"/>
					<path d="M91.5,158.8c-4-4.6-8.1-11.2-5.6-17.3c-0.6,4.5,2.3,8.3,5.5,11c1,0.9,2.2,1.8,3.3,2.5
						C94.7,154.9,91.5,158.8,91.5,158.8L91.5,158.8z"/>
				</g>
				<g>
					<path class="st61" d="M87.2,164c0,0-9.6-7.8-7.2-15.4"/>
					<path d="M85.6,165.9c-4-4.6-8.1-11.2-5.6-17.3c-0.6,4.5,2.3,8.3,5.5,11c1,0.9,2.2,1.8,3.3,2.5L85.6,165.9L85.6,165.9z"/>
				</g>
			</g>
		</g>
		<path class="st57" d="M296.5,234.4c-0.2,1.6-0.5,3.2-0.8,4.6c0,0,0,0,0,0c-2,7.8-7.1,14.4-14,18.4c-0.4,0.2-0.8,0.5-1.3,0.7
			c-46.3,24.6-176.1,24.3-221.5-0.3c-0.1,0-0.1-0.1-0.2-0.1c-7.4-4.1-12.9-11.2-14.7-19.7c0,0,0-0.1,0-0.1c-0.1-0.8-0.3-1.6-0.4-2.5
			c0,0,0,0,0-0.1c-1.5-9.6-1.3-23.5-0.1-39c86,21.9,170.4,22.9,253,0.3C297.7,211.5,297.9,224.9,296.5,234.4z"/>
		<polygon class="st2" points="57.1,199.2 44.4,186.3 43.4,197.5 		"/>
		<polygon class="st2" points="283,199.2 295.7,186.3 296.7,197.5 		"/>
		<path class="st2" d="M42.5,224.7c0-6.2,254.9-6.2,254.9,0v-30.4c-84.9,24.5-169.5,24.6-254,0L42.5,224.7z"/>
		<path class="st2" d="M276.4,141.5c0,0-31.2-9.6-47.3-5.2c-16.1,4.4-43.3,12.2-59.2,12.3c-15.9-0.1-43.1-8-59.2-12.3
			c-16.1-4.4-47.3,5.2-47.3,5.2c2.3-12.5,14.8-19.1,14.8-19.1s23.3-6.5,38.5,4.7c15.1,11.2,53.2,14.3,53.2,14.3s38.1-3.2,53.2-14.3
			c15.1-11.2,38.5-4.7,38.5-4.7S274.2,128.9,276.4,141.5z"/>
		<path class="st2" d="M52.7,253.2c78.2,15.5,156.4,15.5,234.7,0c0,0-32.8,23.2-115.1,23.2S52.7,253.2,52.7,253.2z"/>
	</g>
	<g>
		<path class="st231" d="M195.1,128.6h-50.2c-9.4,0-17.1-7.6-17.1-17.1v-7.2c0-9.4,7.6-17.1,17.1-17.1h50.2
			c9.4,0,17.1,7.6,17.1,17.1v7.2C212.2,121,204.5,128.6,195.1,128.6z"/>
	</g>
	<path class="st1" d="M184.4,105.1L184.4,105.1h-5.8V93.5h-5.8v11.5h-1.3h-4.5h-5.8h-5.8c-1.6,0-2.9-1.3-2.9-2.9v0
		c0-1.6,1.3-2.9,2.9-2.9h5.8v4.3h5.8V93.5h-5.8v0h-5.8c0,0,0,0,0,0c-4.8,0-8.7,3.9-8.7,8.7v0c0,4.8,3.9,8.7,8.7,8.7h0h5.8v11.5h5.8
		v-11.5h3.7h2h5.8h2.4h3.3c1.6,0,2.9,1.3,2.9,2.9v0c0,1.6-1.3,2.9-2.9,2.9h-5.8v-4.3h-5.8v10.1h5.8v0h5.8c0,0,0,0,0,0
		c4.8,0,8.7-3.9,8.7-8.7v0C193.1,108.9,189.2,105.1,184.4,105.1z"/>
	<g>
		<g>
			<circle class="st10" cx="268.3" cy="76.8" r="31.7"/>
			<path class="st10" d="M251.4,69.5c0,0,18.3,15.3,33.7,10.7"/>
			<line class="st10" x1="256.8" y1="104.8" x2="267" y2="77.2"/>
		</g>
		<path class="st2" d="M251.4,70c0,0,3.8,11.3,6.7,13.7c2.9,2.4-1.3,20.3-1.3,20.3l13.6-15.5l13.8-7.9
			C284.3,80.5,268.3,85.9,251.4,70z"/>
	</g>
	<g>
		<g>
			<circle class="st10" cx="71.7" cy="76.8" r="31.7"/>
			<path class="st10" d="M88.6,69.5c0,0-18.3,15.3-33.7,10.7"/>
			<line class="st10" x1="83.2" y1="104.8" x2="73" y2="77.2"/>
		</g>
		<path class="st2" d="M88.6,70c0,0-3.8,11.3-6.7,13.7c-2.9,2.4,1.3,20.3,1.3,20.3L69.5,88.5l-13.8-7.9C55.7,80.5,71.7,85.9,88.6,70
			z"/>
	</g>
	<polygon class="st232" points="143.5,89.8 158.4,127.9 177.2,129.7 150.4,87.3 	"/>
	<polygon class="st233" points="169.9,88.6 191.1,127.9 199.6,127.9 173.3,88.6 	"/>
	<polygon class="st234" points="190.4,127.9 189.4,127.9 168.2,88.6 169.2,88.6 	"/>
	<path class="st1" d="M197.6,131.6h-55.2c-9.7,0-17.5-7.9-17.5-17.5v-12.2c0-9.7,7.9-17.5,17.5-17.5h55.2c9.7,0,17.5,7.9,17.5,17.5
		V114C215.1,123.7,207.3,131.6,197.6,131.6z M142.4,90.3c-6.4,0-11.6,5.2-11.6,11.6V114c0,6.4,5.2,11.6,11.6,11.6h55.2
		c6.4,0,11.6-5.2,11.6-11.6v-12.2c0-6.4-5.2-11.6-11.6-11.6H142.4z"/>
</g>
</svg>
