<?xml version="1.0" encoding="utf-8"?>
<!-- Generator: Adobe Illustrator 27.1.1, SVG Export Plug-In . SVG Version: 6.00 Build 0)  -->
<svg version="1.1" id="Calque_1" xmlns="http://www.w3.org/2000/svg" xmlns:xlink="http://www.w3.org/1999/xlink" x="0px" y="0px"
	 viewBox="0 0 340 340" style="enable-background:new 0 0 340 340;" xml:space="preserve">
<style type="text/css">
	.st0{fill:none;}
	.st1{fill:#22242B;}
	.st2{opacity:0.2;}
	.st3{fill:#00BCD4;}
	.st4{fill:#FFFFFF;}
	.st5{fill:#584464;}
	.st6{fill:#F3DBCE;stroke:#000000;stroke-width:5;stroke-miterlimit:10;}
	.st7{fill:#A67D65;stroke:#000000;stroke-width:5;stroke-miterlimit:10;}
	.st8{fill:#6CC09A;stroke:#000000;stroke-width:5;stroke-miterlimit:10;}
	.st9{fill:#E8E8E7;stroke:#000000;stroke-width:5;stroke-miterlimit:10;}
	.st10{fill:#22242B;stroke:#000000;stroke-width:5;stroke-miterlimit:10;}
	.st11{opacity:0.2;stroke:#000000;stroke-width:5;stroke-miterlimit:10;}
	.st12{fill:#00BCD4;stroke:#000000;stroke-width:5;stroke-miterlimit:10;}
	.st13{fill:none;stroke:#000000;stroke-width:5;stroke-miterlimit:10;}
	.st14{fill:#5F3E60;}
	.st15{fill:none;stroke:#313333;stroke-width:5;stroke-miterlimit:10;}
	.st16{fill:#313333;}
	.st17{fill:#6D7172;stroke:#000000;stroke-width:5;stroke-miterlimit:10;}
	.st18{fill:#FAE21F;}
	.st19{opacity:0.15;clip-path:url(#SVGID_00000023992767773807823360000005510529690574602656_);fill:#FAE21F;}
	.st20{opacity:0.2;clip-path:url(#SVGID_00000075854895713104138900000005844743233781978546_);fill:#FAE21F;}
	.st21{opacity:0.1;clip-path:url(#SVGID_00000149383626445052991110000016827217372397559689_);fill:#FAE21F;}
	.st22{clip-path:url(#SVGID_00000092420290066348248060000015878345011418046379_);fill:#FAE21F;}
	.st23{opacity:0.13;clip-path:url(#SVGID_00000183225322362675662810000016642273794091323014_);fill:#FAE21F;}
	.st24{opacity:0.1;clip-path:url(#SVGID_00000139255930521209840550000014612625735425944199_);fill:#FAE21F;}
	.st25{opacity:0.1;clip-path:url(#SVGID_00000000944386554183716910000005929670979437417399_);fill:#FAE21F;}
	.st26{clip-path:url(#SVGID_00000105408712987192844450000002122901413886445737_);fill:#FAE21F;}
	.st27{clip-path:url(#SVGID_00000055668182796276603510000013611615058109948043_);fill:#FAE21F;}
	.st28{clip-path:url(#SVGID_00000127002285331347234020000006170809734643974817_);fill:#FAE21F;}
	.st29{clip-path:url(#SVGID_00000081647329444659036960000003470357418903266218_);fill:#FAE21F;}
	.st30{opacity:0.15;clip-path:url(#SVGID_00000162340954300942602020000005222598113498178204_);fill:#181919;}
	.st31{opacity:0.2;clip-path:url(#SVGID_00000001649208065718515820000005943218647918177926_);fill:#181919;}
	.st32{opacity:0.1;clip-path:url(#SVGID_00000069363801639366353950000001114748640784550053_);fill:#181919;}
	.st33{clip-path:url(#SVGID_00000103947508226831859630000014283283085213166466_);fill:#1E202E;}
	.st34{fill:#422827;}
	.st35{opacity:0.13;clip-path:url(#SVGID_00000021115075279035228020000010763352427997970835_);fill:#181919;}
	.st36{opacity:0.1;clip-path:url(#SVGID_00000123400694098502266950000002655183122567837372_);fill:#181919;}
	.st37{opacity:0.1;clip-path:url(#SVGID_00000089564264289025418200000012185471439886658750_);fill:#181919;}
	.st38{clip-path:url(#SVGID_00000157270358142739487410000016167418686763784610_);fill:#1E202E;}
	.st39{clip-path:url(#SVGID_00000044158169885129746000000005095195044760165038_);fill:#1E202E;}
	.st40{fill:#DE3942;}
	.st41{fill:#18181E;}
	.st42{clip-path:url(#SVGID_00000085970421103634623280000000015235930582794152_);fill:#FFFFFF;}
	.st43{clip-path:url(#SVGID_00000047035779803198419990000011483139488658119854_);fill:#FFFFFF;}
	.st44{fill:#242258;}
	.st45{fill:#EF548B;}
	.st46{fill:#0087A3;}
	.st47{fill:#37C093;}
	.st48{fill:#FF3D00;}
	.st49{fill:#EF548B;stroke:#000000;stroke-width:5;stroke-miterlimit:10;}
	.st50{fill:#F7EFEB;stroke:#000000;stroke-width:5;stroke-miterlimit:10;}
	.st51{fill:#E83131;}
	.st52{fill:#A94141;}
	.st53{fill:#E94949;}
	.st54{fill:#825626;stroke:#000000;stroke-width:5;stroke-miterlimit:10;}
	.st55{opacity:0.72;fill:#D9B29C;}
	.st56{stroke:#000000;stroke-width:5;stroke-miterlimit:10;}
	.st57{fill:#FFFFFF;stroke:#000000;stroke-width:5;stroke-miterlimit:10;}
	.st58{fill:#E94949;stroke:#000000;stroke-width:5;stroke-miterlimit:10;}
	.st59{fill:#37C093;stroke:#000000;stroke-width:5;stroke-miterlimit:10;}
	.st60{fill:#825626;}
	.st61{fill:#F7EFEB;}
	.st62{fill:#EAF286;}
	.st63{fill:#50FA7B;}
	.st64{fill:#8AE9FD;}
	.st65{fill:#FF79C6;}
	.st66{fill:#BE93F9;}
	.st67{fill:#00A7D9;}
	.st68{fill:#BE93F9;stroke:#000000;stroke-width:5;stroke-miterlimit:10;}
	.st69{fill:#FF79C6;stroke:#000000;stroke-width:5;stroke-miterlimit:10;}
	.st70{fill:#8AE9FD;stroke:#000000;stroke-width:5;stroke-miterlimit:10;}
	.st71{fill:#50FA7B;stroke:#000000;stroke-width:5;stroke-miterlimit:10;}
	.st72{fill:#EAF286;stroke:#000000;stroke-width:5;stroke-miterlimit:10;}
	.st73{opacity:0.15;clip-path:url(#SVGID_00000128458024983389521650000003004876662564502667_);fill:#FAE21F;}
	.st74{opacity:0.2;clip-path:url(#SVGID_00000042720717941206411880000011917124319243920045_);fill:#FAE21F;}
	.st75{opacity:0.1;clip-path:url(#SVGID_00000136382978048219997770000015227562609167738550_);fill:#FAE21F;}
	.st76{clip-path:url(#SVGID_00000170266246145020088490000017187197160189669772_);fill:#FAE21F;}
	.st77{opacity:0.13;clip-path:url(#SVGID_00000072248614678884970210000013833435212147510196_);fill:#FAE21F;}
	.st78{opacity:0.1;clip-path:url(#SVGID_00000180366157135307610120000014447606738481282947_);fill:#FAE21F;}
	.st79{opacity:0.1;clip-path:url(#SVGID_00000122700045011984239440000011169163914855560612_);fill:#FAE21F;}
	.st80{clip-path:url(#SVGID_00000071523443713659905520000014985466210049559429_);fill:#FAE21F;}
	.st81{clip-path:url(#SVGID_00000016051785224902202550000014643646491361041296_);fill:#FAE21F;}
	.st82{clip-path:url(#SVGID_00000169553250417384890460000003717093994092657581_);fill:#FAE21F;}
	.st83{clip-path:url(#SVGID_00000151542961185876272500000011523859655969354631_);fill:#FAE21F;}
	.st84{opacity:0.15;clip-path:url(#SVGID_00000137829395755747177260000005203827713816570543_);fill:#181919;}
	.st85{opacity:0.2;clip-path:url(#SVGID_00000073721883268105927120000012386468384778324651_);fill:#181919;}
	.st86{opacity:0.1;clip-path:url(#SVGID_00000002386516785221608730000012258842301350397347_);fill:#181919;}
	.st87{clip-path:url(#SVGID_00000072242603149605614470000006359271149915623344_);fill:#1E202E;}
	.st88{opacity:0.13;clip-path:url(#SVGID_00000183957318582723553520000009588076222234142888_);fill:#181919;}
	.st89{opacity:0.1;clip-path:url(#SVGID_00000054946665619760770550000005194328612299795847_);fill:#181919;}
	.st90{opacity:0.1;clip-path:url(#SVGID_00000117635146520827631890000015690070307231926186_);fill:#181919;}
	.st91{clip-path:url(#SVGID_00000085932725086777037370000004345214444274958492_);fill:#1E202E;}
	.st92{clip-path:url(#SVGID_00000078005403317952967920000000696117781445384074_);fill:#1E202E;}
	.st93{clip-path:url(#SVGID_00000019661276419396964620000011408619823289810082_);fill:#FFFFFF;}
	.st94{clip-path:url(#SVGID_00000155845374326039455790000006751786049844338876_);fill:#FFFFFF;}
	.st95{opacity:0.15;clip-path:url(#SVGID_00000025413108440802507740000009215749456359834769_);fill:#FAE21F;}
	.st96{opacity:0.2;clip-path:url(#SVGID_00000096054810209533322300000009851319462100578712_);fill:#FAE21F;}
	.st97{opacity:0.1;clip-path:url(#SVGID_00000080896110635127160380000005587746435853156017_);fill:#FAE21F;}
	.st98{clip-path:url(#SVGID_00000036933757591315413000000016633205667230927750_);fill:#FAE21F;}
	.st99{opacity:0.13;clip-path:url(#SVGID_00000075846004337423924420000003043180047111121303_);fill:#FAE21F;}
	.st100{opacity:0.1;clip-path:url(#SVGID_00000170250631270222344960000013999320234074756232_);fill:#FAE21F;}
	.st101{opacity:0.1;clip-path:url(#SVGID_00000075127058739263988640000009077668131304287651_);fill:#FAE21F;}
	.st102{clip-path:url(#SVGID_00000098918026702502299860000016248821365975706516_);fill:#FAE21F;}
	.st103{clip-path:url(#SVGID_00000160183813394231208690000003337290610211450760_);fill:#FAE21F;}
	.st104{clip-path:url(#SVGID_00000135672300961039540240000015421151317820789666_);fill:#FAE21F;}
	.st105{clip-path:url(#SVGID_00000168816367103464288880000010859841468123913637_);fill:#FAE21F;}
	.st106{opacity:0.15;clip-path:url(#SVGID_00000010282231122340726820000002794690926713327496_);fill:#181919;}
	.st107{opacity:0.2;clip-path:url(#SVGID_00000011736979917399421030000015057460243874561971_);fill:#181919;}
	.st108{opacity:0.1;clip-path:url(#SVGID_00000039854664772110416530000005928234435932645286_);fill:#181919;}
	.st109{clip-path:url(#SVGID_00000050635659025500528990000003195587149615809425_);fill:#1E202E;}
	.st110{opacity:0.13;clip-path:url(#SVGID_00000005268604682299520690000001769923322127523219_);fill:#181919;}
	.st111{opacity:0.1;clip-path:url(#SVGID_00000106133650900635152910000017087873300097018757_);fill:#181919;}
	.st112{opacity:0.1;clip-path:url(#SVGID_00000122716148422965388970000010911642480012339095_);fill:#181919;}
	.st113{clip-path:url(#SVGID_00000108287842609990530590000011827860919377923519_);fill:#1E202E;}
	.st114{clip-path:url(#SVGID_00000124847284352635556770000012712211958349978792_);fill:#1E202E;}
	.st115{clip-path:url(#SVGID_00000008860327612162386670000005285548774980975529_);fill:#FFFFFF;}
	.st116{clip-path:url(#SVGID_00000006667769328999744670000001076699886395297665_);fill:#FFFFFF;}
	.st117{fill:#F3DBCE;}
	.st118{fill:#E8E8E7;}
	.st119{fill:#6D7172;}
	.st120{opacity:0.15;clip-path:url(#SVGID_00000036939670615077327640000002051785202827934608_);fill:#FAE21F;}
	.st121{opacity:0.2;clip-path:url(#SVGID_00000062161856256393425620000002772601543403692961_);fill:#FAE21F;}
	.st122{opacity:0.1;clip-path:url(#SVGID_00000040553484656364494230000017667617044696380339_);fill:#FAE21F;}
	.st123{clip-path:url(#SVGID_00000072267022588141446680000014816491819123636400_);fill:#FAE21F;}
	.st124{opacity:0.13;clip-path:url(#SVGID_00000062902090541017838790000009627269403363928968_);fill:#FAE21F;}
	.st125{opacity:0.1;clip-path:url(#SVGID_00000065066552832293915980000009343368516696896904_);fill:#FAE21F;}
	.st126{opacity:0.1;clip-path:url(#SVGID_00000158743310946250471950000006551296798621019825_);fill:#FAE21F;}
	.st127{clip-path:url(#SVGID_00000090286925561943656400000014225323383999478697_);fill:#FAE21F;}
	.st128{clip-path:url(#SVGID_00000126324874868962183600000005871797643775763631_);fill:#FAE21F;}
	.st129{clip-path:url(#SVGID_00000067236139004094924130000007770008177115644830_);fill:#FAE21F;}
	.st130{clip-path:url(#SVGID_00000092433009141092830120000003831958791078853763_);fill:#FAE21F;}
	.st131{opacity:0.15;clip-path:url(#SVGID_00000016769616024480262610000000041666804091063706_);fill:#181919;}
	.st132{opacity:0.2;clip-path:url(#SVGID_00000160905674109336907500000012321652892880933805_);fill:#181919;}
	.st133{opacity:0.1;clip-path:url(#SVGID_00000121248778154294236650000002046332594627223696_);fill:#181919;}
	.st134{clip-path:url(#SVGID_00000143590009000685219370000001395448759087997076_);fill:#1E202E;}
	.st135{opacity:0.13;clip-path:url(#SVGID_00000142142928044345229950000001806569604150114988_);fill:#181919;}
	.st136{opacity:0.1;clip-path:url(#SVGID_00000067209191318484222540000007996608796340571305_);fill:#181919;}
	.st137{opacity:0.1;clip-path:url(#SVGID_00000096060972388515291860000008480743103163958682_);fill:#181919;}
	.st138{clip-path:url(#SVGID_00000039117207136908336430000016443180854244626088_);fill:#1E202E;}
	.st139{clip-path:url(#SVGID_00000065070646725976009600000003386605636954566565_);fill:#1E202E;}
	.st140{clip-path:url(#SVGID_00000178924530639057605480000009585789509345554073_);fill:#FFFFFF;}
	.st141{clip-path:url(#SVGID_00000046318322981223445220000010794379400724517013_);fill:#FFFFFF;}
	.st142{fill:#333333;stroke:#000000;stroke-width:5;stroke-miterlimit:10;}
	.st143{fill:#E34B4E;stroke:#000000;stroke-width:5;stroke-miterlimit:10;}
	.st144{fill:#333333;}
	.st145{fill:#E34B4E;}
	.st146{opacity:0.15;clip-path:url(#SVGID_00000103986940029096263790000016754128726375397798_);fill:#FAE21F;}
	.st147{opacity:0.2;clip-path:url(#SVGID_00000168836940666268511500000009507291883741785986_);fill:#FAE21F;}
	.st148{opacity:0.1;clip-path:url(#SVGID_00000159467548718608786050000014021481123612362127_);fill:#FAE21F;}
	.st149{clip-path:url(#SVGID_00000039851559046641699690000015228746384493598126_);fill:#FAE21F;}
	.st150{opacity:0.13;clip-path:url(#SVGID_00000146468054452901019560000001484402014855814290_);fill:#FAE21F;}
	.st151{opacity:0.1;clip-path:url(#SVGID_00000072239781360170041220000015263187480223808398_);fill:#FAE21F;}
	.st152{opacity:0.1;clip-path:url(#SVGID_00000144330280270789111970000003753529772520403588_);fill:#FAE21F;}
	.st153{clip-path:url(#SVGID_00000013881293498105760850000014338080583710781575_);fill:#FAE21F;}
	.st154{clip-path:url(#SVGID_00000163787350558401336270000001730154385448974726_);fill:#FAE21F;}
	.st155{clip-path:url(#SVGID_00000127722924949380520850000003390135420892993179_);fill:#FAE21F;}
	.st156{clip-path:url(#SVGID_00000085233660308798195940000007154475552584795267_);fill:#FAE21F;}
	.st157{opacity:0.15;clip-path:url(#SVGID_00000134964893540535982030000005301772844351167641_);fill:#181919;}
	.st158{opacity:0.2;clip-path:url(#SVGID_00000011725234704546767690000006158909797254206882_);fill:#181919;}
	.st159{opacity:0.1;clip-path:url(#SVGID_00000083801906990750584060000002030341435550426764_);fill:#181919;}
	.st160{clip-path:url(#SVGID_00000166641537724300767630000005460502815375603624_);fill:#1E202E;}
	.st161{opacity:0.13;clip-path:url(#SVGID_00000065067205823697914120000008092086028723874196_);fill:#181919;}
	.st162{opacity:0.1;clip-path:url(#SVGID_00000123400699909385130170000007872556165676156306_);fill:#181919;}
	.st163{opacity:0.1;clip-path:url(#SVGID_00000023273171649898204610000014741487020639005602_);fill:#181919;}
	.st164{clip-path:url(#SVGID_00000142855831814810460720000003298168541534623373_);fill:#1E202E;}
	.st165{clip-path:url(#SVGID_00000066493070150428281750000008124917662076791197_);fill:#1E202E;}
	.st166{clip-path:url(#SVGID_00000131335397072055285810000000734919683166897825_);fill:#FFFFFF;}
	.st167{clip-path:url(#SVGID_00000044154781421000806060000007226854810357240224_);fill:#FFFFFF;}
	.st168{opacity:0.66;fill:#FFFFFF;stroke:#000000;stroke-width:5;stroke-miterlimit:10;}
	.st169{fill:#EAF2DC;stroke:#000000;stroke-width:5;stroke-miterlimit:10;}
	.st170{fill:#A94141;stroke:#000000;stroke-width:5;stroke-miterlimit:10;}
	.st171{fill:#E8E8E7;stroke:#6D7172;stroke-width:5;stroke-miterlimit:10;}
	.st172{fill:#E2BFA9;}
	.st173{fill:#A67D65;}
	.st174{fill:#D9B29C;}
	.st175{opacity:0.15;clip-path:url(#SVGID_00000170973263480133817120000007609222091752572823_);fill:#FAE21F;}
	.st176{opacity:0.2;clip-path:url(#SVGID_00000170241556945381134800000009590726076422675853_);fill:#FAE21F;}
	.st177{opacity:0.1;clip-path:url(#SVGID_00000098223390955486541760000015362376729424823959_);fill:#FAE21F;}
	.st178{clip-path:url(#SVGID_00000172425070461709139810000018178679932970320266_);fill:#FAE21F;}
	.st179{opacity:0.13;clip-path:url(#SVGID_00000051344338389870758370000012218235019869745059_);fill:#FAE21F;}
	.st180{opacity:0.1;clip-path:url(#SVGID_00000119081128564410980360000009683338394788709541_);fill:#FAE21F;}
	.st181{opacity:0.1;clip-path:url(#SVGID_00000052083085627524490940000010690448964694146736_);fill:#FAE21F;}
	.st182{clip-path:url(#SVGID_00000142172648648158281820000013866664310156186535_);fill:#FAE21F;}
	.st183{clip-path:url(#SVGID_00000122680311054059711890000003710167443519192752_);fill:#FAE21F;}
	.st184{clip-path:url(#SVGID_00000027585677261654819810000002800982422827639211_);fill:#FAE21F;}
	.st185{clip-path:url(#SVGID_00000137134029810677982420000001235075266963426203_);fill:#FAE21F;}
	.st186{opacity:0.15;clip-path:url(#SVGID_00000178911286556363475130000001271115498870803895_);fill:#181919;}
	.st187{opacity:0.2;clip-path:url(#SVGID_00000116237352965228343350000008345206806382722200_);fill:#181919;}
	.st188{opacity:0.1;clip-path:url(#SVGID_00000065795423482407529430000005445241702046434996_);fill:#181919;}
	.st189{clip-path:url(#SVGID_00000178191951796677270300000001669808115947680912_);fill:#1E202E;}
	.st190{opacity:0.13;clip-path:url(#SVGID_00000056394934706034649150000001900446426262069662_);fill:#181919;}
	.st191{opacity:0.1;clip-path:url(#SVGID_00000101081098665037871310000003021636784635715254_);fill:#181919;}
	.st192{opacity:0.1;clip-path:url(#SVGID_00000017490215251794063390000001786700731159302281_);fill:#181919;}
	.st193{clip-path:url(#SVGID_00000030473893967642869870000011104630942260761734_);fill:#1E202E;}
	.st194{clip-path:url(#SVGID_00000136381494872859963520000003146112271826834342_);fill:#1E202E;}
	.st195{clip-path:url(#SVGID_00000149365277733621166150000017939110866160712381_);fill:#FFFFFF;}
	.st196{clip-path:url(#SVGID_00000074435689278820896200000006300785942302064015_);fill:#FFFFFF;}
	.st197{opacity:0.11;fill:#FFFFFF;}
	.st198{opacity:0.15;clip-path:url(#SVGID_00000131354000944935936950000013625087256641707931_);fill:#FAE21F;}
	.st199{opacity:0.2;clip-path:url(#SVGID_00000037677577722261630660000016905566670435243414_);fill:#FAE21F;}
	.st200{opacity:0.1;clip-path:url(#SVGID_00000165950048269941771170000000066971358361447040_);fill:#FAE21F;}
	.st201{clip-path:url(#SVGID_00000062149966526878470830000015598756917592162482_);fill:#FAE21F;}
	.st202{opacity:0.13;clip-path:url(#SVGID_00000113320285595078846410000005486949878934549916_);fill:#FAE21F;}
	.st203{opacity:0.1;clip-path:url(#SVGID_00000182512296864485044850000013133362893853631167_);fill:#FAE21F;}
	.st204{opacity:0.1;clip-path:url(#SVGID_00000127013985851309714630000010070337690096725407_);fill:#FAE21F;}
	.st205{clip-path:url(#SVGID_00000115497407099546051210000013441162525158882725_);fill:#FAE21F;}
	.st206{clip-path:url(#SVGID_00000078758153381666250550000003624378853823868314_);fill:#FAE21F;}
	.st207{clip-path:url(#SVGID_00000116925107374148222780000010058144111401954730_);fill:#FAE21F;}
	.st208{clip-path:url(#SVGID_00000162335564006295699160000005474570973310907056_);fill:#FAE21F;}
	.st209{opacity:0.15;clip-path:url(#SVGID_00000036933111979421443160000015528117757343585952_);fill:#181919;}
	.st210{opacity:0.2;clip-path:url(#SVGID_00000112605389551411439250000014828451249972657026_);fill:#181919;}
	.st211{opacity:0.1;clip-path:url(#SVGID_00000150088908627603540330000015662150087124435100_);fill:#181919;}
	.st212{clip-path:url(#SVGID_00000149368462119104651940000004235940850129572017_);fill:#1E202E;}
	.st213{opacity:0.13;clip-path:url(#SVGID_00000160175951415846876630000003811007502001798048_);fill:#181919;}
	.st214{opacity:0.1;clip-path:url(#SVGID_00000041268667421480997750000018231359502540136370_);fill:#181919;}
	.st215{opacity:0.1;clip-path:url(#SVGID_00000000914217635017102070000006003192091574622090_);fill:#181919;}
	.st216{clip-path:url(#SVGID_00000055709350087790018600000014275385637689323906_);fill:#1E202E;}
	.st217{clip-path:url(#SVGID_00000101095274858655754970000016159058726495635082_);fill:#1E202E;}
	.st218{clip-path:url(#SVGID_00000109028038250687161320000017344405397187409572_);fill:#FFFFFF;}
	.st219{clip-path:url(#SVGID_00000094584194869291321030000008186595763727405221_);fill:#FFFFFF;}
	.st220{fill:#AD6632;stroke:#000000;stroke-width:5;stroke-miterlimit:10;}
	.st221{fill:#FF6464;}
	.st222{fill:#FFFFFF;stroke:#000000;stroke-width:3;stroke-miterlimit:10;}
	.st223{fill:#EAF286;stroke:#000000;stroke-width:3;stroke-miterlimit:10;}
	.st224{fill:#E94949;stroke:#000000;stroke-width:3;stroke-miterlimit:10;}
	.st225{fill:#FFD11D;stroke:#000000;stroke-width:3;stroke-miterlimit:10;}
	.st226{fill:#8AE9FD;stroke:#000000;stroke-width:3;stroke-miterlimit:10;}
	.st227{fill:#FFB44B;stroke:#000000;stroke-width:3;stroke-miterlimit:10;}
	.st228{fill:none;stroke:#000000;stroke-width:2;stroke-miterlimit:10;}
	.st229{fill:#0A0B0C;stroke:#000000;stroke-width:5;stroke-miterlimit:10;}
	.st230{fill:#FFDDAA;stroke:#000000;stroke-width:5;stroke-miterlimit:10;}
	.st231{fill:#EAEAEA;}
	.st232{opacity:0.18;fill:#FFFFFF;}
	.st233{opacity:0.5;fill:#FFFFFF;}
	.st234{opacity:0.83;fill:#FFFFFF;}
	.st235{fill:#EC7525;}
	.st236{fill:#225EA5;}
	.st237{fill:#103051;stroke:#000000;stroke-width:4;stroke-miterlimit:10;}
	.st238{fill:#E63E6B;}
</style>
<g>
	<polygon class="st1" points="238.6,317.2 238.6,317.2 238.5,317.3 	"/>
	<polygon class="st1" points="238.6,317.2 238.5,317.3 238.6,317.2 	"/>
	<polygon class="st1" points="238.4,317.3 238.4,317.3 238.5,317.3 	"/>
	<path class="st49" d="M299,259.3c-0.2,1.7-0.5,3.2-0.8,4.7c0,0,0,0,0,0c-2.1,8-7.3,14.7-14.3,18.7c-0.4,0.2-0.9,0.5-1.3,0.7
		c-47.2,25.1-179.6,24.8-225.9-0.3c-0.1,0-0.1-0.1-0.2-0.1c-7.5-4.2-13.1-11.4-15-20.1c0,0,0-0.1,0-0.1c-0.1-0.8-0.3-1.7-0.4-2.5
		c0,0,0,0,0-0.1C37,234,45.4,177.5,52,140.2c3.7-20.7,21.7-34.1,42.7-35.8c50.7-4.2,99.8-4.2,150.5,0c20.9,1.7,39,15.1,42.7,35.7
		C294.5,177,302.9,232.8,299,259.3z"/>
	<g>
		<path class="st50" d="M103.4,283.1c-27.1,0-50.6-41.1-48.5-61.4c0.6-6.2,4.2-20.8,4.9-24.3c1.8-10.1-3.4-60.3,30.9-55.1
			c26,3.9,25.4,7.1,45.5,14c12.3,4.2,10.6,6.5,33.9,6.5s21.6-2.3,33.9-6.5c20.1-6.8,19.5-10,45.5-14c34.3-5.2,29.1,45.1,30.9,55.1
			c0.6,3.5,4.2,18.1,4.9,24.3c2,20.3-21.3,64.6-48.5,64.6L103.4,283.1z"/>
	</g>
	<path class="st13" d="M260.7,205.5c0,1,0,2.1-0.1,3.1c-1.6,16-15,28.5-31.4,28.5s-29.9-12.5-31.4-28.5c-0.1-1-0.1-2-0.1-3.1
		c0-17.4,14.1-31.6,31.6-31.6S260.7,188.1,260.7,205.5z"/>
	<path class="st13" d="M142.5,205.5c0,1,0,2.1-0.1,3.1c-1.6,16-15,28.5-31.4,28.5S81,224.6,79.5,208.6c-0.1-1-0.1-2-0.1-3.1
		c0-17.4,14.1-31.6,31.6-31.6S142.5,188.1,142.5,205.5z"/>
	<g>
		<path class="st1" d="M142.3,212.3c-1.6,16-15,28.5-31.4,28.5c-16.4,0-29.9-12.5-31.4-28.5c1.6-16,15-28.5,31.4-28.5
			C127.3,183.8,140.7,196.3,142.3,212.3z"/>
		<path class="st1" d="M260.5,212.3c-1.6,16-15,28.5-31.4,28.5c-16.4,0-29.9-12.5-31.4-28.5c1.6-16,15-28.5,31.4-28.5
			C245.5,183.8,259,196.3,260.5,212.3z"/>
		<path class="st14" d="M142.5,205.5c0,1,0,2.1-0.1,3.1c-1.6,16-15,28.5-31.4,28.5c-16.4,0-29.9-12.5-31.4-28.5
			c-0.1-1-0.1-2-0.1-3.1c0-17.4,14.1-31.6,31.6-31.6C128.3,173.9,142.5,188.1,142.5,205.5z"/>
		<path class="st51" d="M142.3,208.6c-1.6,16-15,28.5-31.4,28.5c-16.4,0-29.9-12.5-31.4-28.5c1.6-16,15-28.5,31.4-28.5
			C127.3,180.1,140.7,192.6,142.3,208.6z"/>
		<path class="st14" d="M260.7,205.5c0,1,0,2.1-0.1,3.1c-1.6,16-15,28.5-31.4,28.5c-16.4,0-29.9-12.5-31.4-28.5
			c-0.1-1-0.1-2-0.1-3.1c0-17.4,14.1-31.6,31.6-31.6C246.5,173.9,260.7,188.1,260.7,205.5z"/>
		<path class="st51" d="M260.5,208.6c-1.6,16-15,28.5-31.4,28.5c-16.4,0-29.9-12.5-31.4-28.5c1.6-16,15-28.5,31.4-28.5
			C245.5,180.1,259,192.6,260.5,208.6z"/>
		<circle class="st1" cx="230.3" cy="218.5" r="21"/>
		<path class="st4" d="M231.7,210.5c-0.8,2.8-3.7,4.4-6.5,3.6c-1.3-0.4-2.4-1.2-3-2.4c-1.5,0.5-3.1,0.6-4.7,0.1
			c-4.1-1.2-6.5-5.5-5.3-9.6c1.2-4.1,5.5-6.5,9.6-5.3c3.2,0.9,5.3,3.7,5.6,6.8c0.3,0,0.5,0.1,0.8,0.2
			C230.9,204.8,232.5,207.7,231.7,210.5z"/>
		<circle class="st1" cx="110.9" cy="218.5" r="21"/>
		<path class="st4" d="M112.3,210.5c-0.8,2.8-3.7,4.4-6.5,3.6c-1.3-0.4-2.4-1.2-3-2.4c-1.5,0.5-3.1,0.6-4.7,0.1
			c-4.1-1.2-6.5-5.5-5.3-9.6c1.2-4.1,5.5-6.5,9.6-5.3c3.2,0.9,5.3,3.7,5.6,6.8c0.3,0,0.5,0.1,0.8,0.2
			C111.5,204.8,113.1,207.7,112.3,210.5z"/>
	</g>
	<path class="st2" d="M189.8,242.5c0,5.3-8.9,9.5-19.8,9.5s-19.8-4.3-19.8-9.5c0-5.3,8.7-4.4,19.7-4.4S189.8,237.3,189.8,242.5z"/>
	<path class="st2" d="M167.7,274.7c5.8-0.5,7,0.2,12.7,1.3c1.3,0.3,2.6,0.5,3.9,0.4c1.3-0.1,2.6-0.7,3.3-1.7c1-1.5,0.5-3.8-1-4.8
		c-0.8-0.5-1.8-0.6-2.7-0.7c-1.9-0.2-3.7-0.4-5.6-0.7c-2.4-0.3-4.8-0.6-7.3-0.7c-6-0.3-12.2-0.3-18.1-0.9c-3.8-0.4-2.2,9,2.3,8.9
		C155.2,275.8,164.4,275,167.7,274.7z"/>
	<path class="st52" d="M188.8,268.3c0,3.4-2.1,6.1-4.5,5.7h0c-9.5-1.6-19.1-1.6-28.6,0h0c-2.4,0.4-4.5-2.3-4.5-5.7
		c0-3.2,1.8-5.7,4-5.7c0.2,0,0.4,0,0.6,0.1l0.2,0c9.2,2,18.7,2,27.9,0l0.2,0c0.2,0,0.4-0.1,0.6-0.1
		C187,262.6,188.8,265.1,188.8,268.3z"/>
	<path class="st53" d="M188.8,268.3c0,0.4,0,0.7-0.1,1c-0.3-2.7-2-4.7-3.9-4.7c-0.2,0-0.4,0-0.6,0.1h0c-9.3,2-19,2-28.3,0h0
		c-0.2,0-0.4-0.1-0.6-0.1c-1.9,0-3.6,2-3.9,4.7c0-0.3-0.1-0.7-0.1-1c0-3.2,1.8-5.7,4-5.7c0.2,0,0.4,0,0.6,0.1l0,0c9.3,2,19,2,28.3,0
		h0c0.2,0,0.4-0.1,0.6-0.1C187,262.6,188.8,265.1,188.8,268.3z"/>
	<g>
		<path d="M174.3,276.9L174.3,276.9c-0.1,0-0.2,0-0.2,0C174.2,276.9,174.3,276.9,174.3,276.9z"/>
		<path d="M172.5,276.7l0,0.6c-0.1,0-0.1,0-0.2,0.1c-0.8-0.2-1.5-0.4-2.3-0.5v0c0,0-0.1,0-0.1,0c0,0,0,0,0.1,0s0,0,0.1,0
			c0.4-0.1,0.9-0.1,1.3-0.1c0.1,0,0.2,0,0.4,0C171.9,276.7,172.2,276.7,172.5,276.7z"/>
	</g>
	<g>
		<path class="st54" d="M165.4,276.9L165.4,276.9c0.1,0,0.2,0,0.2,0C165.6,276.9,165.5,276.9,165.4,276.9z"/>
		<path class="st54" d="M193.5,277.8c-0.1,0-0.1,0-0.2,0c-2.4,0-4.5,1.1-5.7,2.7c-1.3-1.6-3.3-2.7-5.7-2.7c-0.9,0-1.8,0.2-2.6,0.5
			c-1.2-0.9-2.7-1.4-4.3-1.4c-0.9,0-1.8,0.2-2.6,0.5c-0.1,0-0.1,0-0.2,0.1c-0.8-0.2-1.5-0.4-2.3-0.5v0c0,0-0.1,0-0.1,0
			c0,0-0.1,0-0.1,0v0c-0.8,0.1-1.5,0.3-2.3,0.5c-0.1,0-0.1,0-0.2-0.1c-0.8-0.3-1.6-0.5-2.6-0.5c-1.6,0-3.1,0.5-4.3,1.4
			c-0.8-0.3-1.7-0.5-2.6-0.5c-2.4,0-4.4,1.1-5.7,2.7c-1.3-1.6-3.3-2.7-5.7-2.7c-0.1,0-0.1,0-0.2,0c0.8-2.1,0.7-4.5-0.3-6.6
			c1.3-1,2.4-2.4,3.3-4.2c0.1-0.3,0.3-0.5,0.4-0.8c0.8-0.2,1.5-0.5,2.2-0.9c1.9-1.1,3.3-2.7,4-4.5c0.7,0.3,1.4,0.5,2.2,0.7
			c3,0.6,5.9,0.1,7.8-1.2c1.1,0.5,2.5,0.9,3.9,0.9h0.5c1.4,0,2.8-0.3,3.9-0.9c1.9,1.3,4.8,1.9,7.8,1.2c0.8-0.2,1.5-0.4,2.2-0.7
			c0.7,1.8,2.1,3.4,4,4.5c0.7,0.4,1.5,0.7,2.2,0.9c0.1,0.3,0.2,0.5,0.4,0.8c0.8,1.7,2,3.1,3.3,4.2
			C192.8,273.3,192.7,275.7,193.5,277.8z"/>
		<path class="st54" d="M169.9,276.9c0,0-0.1,0-0.1,0v0c-0.8,0.1-1.5,0.3-2.3,0.5c-0.1,0-0.1,0-0.2-0.1l0-0.6c0.3,0,0.6,0,0.9,0
			c0.1,0,0.2,0,0.4,0c0.4,0,0.8,0.1,1.2,0.1C169.7,276.9,169.8,276.9,169.9,276.9C169.8,276.9,169.8,276.9,169.9,276.9z"/>
	</g>
	<g class="st2">
		<path d="M96.1,160.5c0,0,26.3-11.4,57.3,18.8c0,0-16.4,1.2-24.1-5.9C121.6,166.4,120.6,163.8,96.1,160.5z"/>
		<path d="M244.3,160.1c0,0-26.3-11.4-57.3,18.8c0,0,16.4,1.2,24.1-5.9C218.9,166,219.9,163.4,244.3,160.1z"/>
	</g>
	<g>
		<path class="st54" d="M94.2,158.6c0,0,26.3-11.4,57.3,18.8c0,0-16.4,1.2-24.1-5.9S118.6,161.8,94.2,158.6z"/>
		<path class="st54" d="M245.9,158.6c0,0-26.3-11.4-57.3,18.8c0,0,16.4,1.2,24.1-5.9C220.4,164.4,221.5,161.8,245.9,158.6z"/>
	</g>
	<path class="st55" d="M81.1,162.7l-0.1-0.4c-0.5-1.7-1-3.3-1.5-5c-0.3-0.8-0.6-1.6-0.9-2.5c-0.3-0.8-0.7-1.6-1.1-2.4
		c-0.1,0.9-0.1,1.8-0.1,2.7c0,0.9,0,1.8,0.1,2.6c0.1,1.5,0.2,3,0.4,4.5c-1.3,2-2.5,4-3.7,6c-1.2,2.2-2.4,4.4-3.4,6.7l-0.4,0.8
		l0.3,0.5c0.7,1.3,1.5,2.6,2.3,3.9c0.4,0.6,0.8,1.3,1.3,1.9c0.4,0.6,0.9,1.2,1.4,1.8c-0.1-0.8-0.3-1.5-0.5-2.3
		c-0.2-0.7-0.4-1.5-0.6-2.2c-0.3-1.2-0.7-2.4-1.1-3.5c1.3-1.9,2.5-3.9,3.7-5.9c1.1-1.8,2-3.7,3-5.6c0.1,0.2,0.2,0.5,0.4,0.7
		c0.4,0.8,0.9,1.6,1.4,2.3c1,1.5,2.1,2.9,3.3,4.2l0.8,0.9l1.1-0.4c1.6-0.6,3.2-1.3,4.7-2.1c0.8-0.4,1.5-0.9,2.2-1.3
		c0.7-0.5,1.4-1,2.1-1.7c-0.9-0.1-1.8,0-2.7,0.1c-0.9,0.1-1.7,0.2-2.6,0.4c-1.3,0.3-2.6,0.6-3.8,1c-0.9-1-1.9-2-3-2.9
		c-0.7-0.6-1.4-1.1-2.1-1.6L81.1,162.7z"/>
	
		<ellipse transform="matrix(6.383763e-02 -0.998 0.998 6.383763e-02 81.7427 252.0505)" class="st56" cx="175.2" cy="82.5" rx="23.9" ry="25.9"/>
	
		<ellipse transform="matrix(0.9977 -6.804180e-02 6.804180e-02 0.9977 -5.1714 9.0858)" class="st49" cx="130.8" cy="80.5" rx="38.4" ry="35.4"/>
	
		<ellipse transform="matrix(0.9977 -6.804180e-02 6.804180e-02 0.9977 -4.9724 14.9288)" class="st49" cx="216.7" cy="80.5" rx="38.4" ry="35.4"/>
	<path class="st4" d="M229.9,62.8c5,1.4,7,8.3,1.5,12.3c-4,1.6-7.4,0-9-2.6c-3.9,1.3-8.7,0.3-12-4.5c-3.5-9.3,4.3-16.2,11.6-14.1
		c4,1.2,6.7,4.7,7,8.6C229.3,62.7,229.6,62.7,229.9,62.8z"/>
	<path class="st4" d="M146.2,64.5c5,1.4,7,8.3,1.5,12.3c-4,1.6-7.4,0-9-2.6c-3.9,1.3-8.7,0.3-12-4.5c-3.5-9.3,4.3-16.2,11.6-14.1
		c4,1.2,6.7,4.7,7,8.6C145.6,64.4,145.9,64.4,146.2,64.5z"/>
</g>
</svg>
