<?xml version="1.0" encoding="utf-8"?>
<!-- Generator: Adobe Illustrator 27.1.1, SVG Export Plug-In . SVG Version: 6.00 Build 0)  -->
<svg version="1.1" id="Calque_1" xmlns="http://www.w3.org/2000/svg" xmlns:xlink="http://www.w3.org/1999/xlink" x="0px" y="0px"
	 viewBox="0 0 340 340" style="enable-background:new 0 0 340 340;" xml:space="preserve">
<style type="text/css">
	.st0{fill:none;}
	.st1{fill:#22242B;}
	.st2{opacity:0.2;}
	.st3{fill:#00BCD4;}
	.st4{fill:#FFFFFF;}
	.st5{fill:#584464;}
	.st6{fill:#F3DBCE;stroke:#000000;stroke-width:5;stroke-miterlimit:10;}
	.st7{fill:#A67D65;stroke:#000000;stroke-width:5;stroke-miterlimit:10;}
	.st8{fill:#6CC09A;stroke:#000000;stroke-width:5;stroke-miterlimit:10;}
	.st9{fill:#E8E8E7;stroke:#000000;stroke-width:5;stroke-miterlimit:10;}
	.st10{fill:#22242B;stroke:#000000;stroke-width:5;stroke-miterlimit:10;}
	.st11{opacity:0.2;stroke:#000000;stroke-width:5;stroke-miterlimit:10;}
	.st12{fill:#00BCD4;stroke:#000000;stroke-width:5;stroke-miterlimit:10;}
	.st13{fill:none;stroke:#000000;stroke-width:5;stroke-miterlimit:10;}
	.st14{fill:#5F3E60;}
	.st15{fill:none;stroke:#313333;stroke-width:5;stroke-miterlimit:10;}
	.st16{fill:#313333;}
	.st17{fill:#6D7172;stroke:#000000;stroke-width:5;stroke-miterlimit:10;}
	.st18{fill:#FAE21F;}
	.st19{opacity:0.15;clip-path:url(#SVGID_00000116222884252447474910000005085234104110970531_);fill:#FAE21F;}
	.st20{opacity:0.2;clip-path:url(#SVGID_00000033335745421206670330000012598407070767296163_);fill:#FAE21F;}
	.st21{opacity:0.1;clip-path:url(#SVGID_00000029015767554262582110000006235429548795249557_);fill:#FAE21F;}
	.st22{clip-path:url(#SVGID_00000042718546800038979730000001371977873656165776_);fill:#FAE21F;}
	.st23{opacity:0.13;clip-path:url(#SVGID_00000150065239224196233160000004078550037838363283_);fill:#FAE21F;}
	.st24{opacity:0.1;clip-path:url(#SVGID_00000057846697124121037790000005021171747981634978_);fill:#FAE21F;}
	.st25{opacity:0.1;clip-path:url(#SVGID_00000103985820481718344530000000176304422450757510_);fill:#FAE21F;}
	.st26{clip-path:url(#SVGID_00000078757002712132613170000004878074502495552422_);fill:#FAE21F;}
	.st27{clip-path:url(#SVGID_00000034075409952368266740000014646832934296789692_);fill:#FAE21F;}
	.st28{clip-path:url(#SVGID_00000000203055318635269460000014116537147962204070_);fill:#FAE21F;}
	.st29{clip-path:url(#SVGID_00000161620851780478369160000010376126898319894428_);fill:#FAE21F;}
	.st30{opacity:0.15;clip-path:url(#SVGID_00000135673026765640483770000007762692353634926997_);fill:#181919;}
	.st31{opacity:0.2;clip-path:url(#SVGID_00000106865964706387102250000017172814144609019792_);fill:#181919;}
	.st32{opacity:0.1;clip-path:url(#SVGID_00000011718676751609619300000005620054940816068241_);fill:#181919;}
	.st33{clip-path:url(#SVGID_00000013896471145463660260000004533460769256478848_);fill:#1E202E;}
	.st34{fill:#422827;}
	.st35{opacity:0.13;clip-path:url(#SVGID_00000132774924594413177490000007624209439552685234_);fill:#181919;}
	.st36{opacity:0.1;clip-path:url(#SVGID_00000141413251608262107410000017965998333267078037_);fill:#181919;}
	.st37{opacity:0.1;clip-path:url(#SVGID_00000165215569714146574940000008689040966801045680_);fill:#181919;}
	.st38{clip-path:url(#SVGID_00000090296355786362576420000007299604018195297666_);fill:#1E202E;}
	.st39{clip-path:url(#SVGID_00000177476982671167759100000015829932217353028768_);fill:#1E202E;}
	.st40{fill:#DE3942;}
	.st41{fill:#18181E;}
	.st42{clip-path:url(#SVGID_00000061464746923103496170000001242075069048191386_);fill:#FFFFFF;}
	.st43{clip-path:url(#SVGID_00000011022218389398393470000005827672176115381940_);fill:#FFFFFF;}
	.st44{fill:#242258;}
	.st45{fill:#EF548B;}
	.st46{fill:#0087A3;}
	.st47{fill:#37C093;}
	.st48{fill:#FF3D00;}
	.st49{fill:#EF548B;stroke:#000000;stroke-width:5;stroke-miterlimit:10;}
	.st50{fill:#F7EFEB;stroke:#000000;stroke-width:5;stroke-miterlimit:10;}
	.st51{fill:#E83131;}
	.st52{fill:#A94141;}
	.st53{fill:#E94949;}
	.st54{fill:#825626;stroke:#000000;stroke-width:5;stroke-miterlimit:10;}
	.st55{opacity:0.72;fill:#D9B29C;}
	.st56{stroke:#000000;stroke-width:5;stroke-miterlimit:10;}
	.st57{fill:#FFFFFF;stroke:#000000;stroke-width:5;stroke-miterlimit:10;}
	.st58{fill:#E94949;stroke:#000000;stroke-width:5;stroke-miterlimit:10;}
	.st59{fill:#37C093;stroke:#000000;stroke-width:5;stroke-miterlimit:10;}
	.st60{fill:#825626;}
	.st61{fill:#F7EFEB;}
	.st62{fill:#EAF286;}
	.st63{fill:#50FA7B;}
	.st64{fill:#8AE9FD;}
	.st65{fill:#FF79C6;}
	.st66{fill:#BE93F9;}
	.st67{fill:#00A7D9;}
	.st68{fill:#BE93F9;stroke:#000000;stroke-width:5;stroke-miterlimit:10;}
	.st69{fill:#FF79C6;stroke:#000000;stroke-width:5;stroke-miterlimit:10;}
	.st70{fill:#8AE9FD;stroke:#000000;stroke-width:5;stroke-miterlimit:10;}
	.st71{fill:#50FA7B;stroke:#000000;stroke-width:5;stroke-miterlimit:10;}
	.st72{fill:#EAF286;stroke:#000000;stroke-width:5;stroke-miterlimit:10;}
	.st73{opacity:0.15;clip-path:url(#SVGID_00000085220192736130594760000015946349109491600801_);fill:#FAE21F;}
	.st74{opacity:0.2;clip-path:url(#SVGID_00000026871419470597554100000009637680329921422984_);fill:#FAE21F;}
	.st75{opacity:0.1;clip-path:url(#SVGID_00000105403529971187585820000007508302098743374979_);fill:#FAE21F;}
	.st76{clip-path:url(#SVGID_00000119815152319644152150000009412302937480088244_);fill:#FAE21F;}
	.st77{opacity:0.13;clip-path:url(#SVGID_00000134220604872040316970000006486434525163343025_);fill:#FAE21F;}
	.st78{opacity:0.1;clip-path:url(#SVGID_00000079449175998303800000000002202400619677714597_);fill:#FAE21F;}
	.st79{opacity:0.1;clip-path:url(#SVGID_00000023238848461239496610000008240466299993786046_);fill:#FAE21F;}
	.st80{clip-path:url(#SVGID_00000155133716473240305860000004576098672329467550_);fill:#FAE21F;}
	.st81{clip-path:url(#SVGID_00000010303375376728692320000018165395367391575987_);fill:#FAE21F;}
	.st82{clip-path:url(#SVGID_00000109004749301220459700000018391849117547127214_);fill:#FAE21F;}
	.st83{clip-path:url(#SVGID_00000099664354261426118380000010199664415229205153_);fill:#FAE21F;}
	.st84{opacity:0.15;clip-path:url(#SVGID_00000042714132678764844580000000430891187762248341_);fill:#181919;}
	.st85{opacity:0.2;clip-path:url(#SVGID_00000137114340873037850390000005823657180854533763_);fill:#181919;}
	.st86{opacity:0.1;clip-path:url(#SVGID_00000157998612299443359200000014727362303534080444_);fill:#181919;}
	.st87{clip-path:url(#SVGID_00000061441890094780460980000007162046408837143947_);fill:#1E202E;}
	.st88{opacity:0.13;clip-path:url(#SVGID_00000083798158748380340710000010791141099680255381_);fill:#181919;}
	.st89{opacity:0.1;clip-path:url(#SVGID_00000140696623196503951550000009621874223506964870_);fill:#181919;}
	.st90{opacity:0.1;clip-path:url(#SVGID_00000096032277312318428630000011853721083080394126_);fill:#181919;}
	.st91{clip-path:url(#SVGID_00000096036630265790819550000010945419029756460943_);fill:#1E202E;}
	.st92{clip-path:url(#SVGID_00000052789265814859675470000009271108873388169360_);fill:#1E202E;}
	.st93{clip-path:url(#SVGID_00000131356062185488062720000018117640629690352537_);fill:#FFFFFF;}
	.st94{clip-path:url(#SVGID_00000003093709270983278610000012448984233385688245_);fill:#FFFFFF;}
	.st95{opacity:0.15;clip-path:url(#SVGID_00000103945135987457307350000016544249026795846840_);fill:#FAE21F;}
	.st96{opacity:0.2;clip-path:url(#SVGID_00000176764738557045674190000005120385150299872690_);fill:#FAE21F;}
	.st97{opacity:0.1;clip-path:url(#SVGID_00000085964895203314618920000017338271641624532903_);fill:#FAE21F;}
	.st98{clip-path:url(#SVGID_00000155134323029942992510000008908604526763693722_);fill:#FAE21F;}
	.st99{opacity:0.13;clip-path:url(#SVGID_00000140013963564001928620000004887066778459486597_);fill:#FAE21F;}
	.st100{opacity:0.1;clip-path:url(#SVGID_00000047769843419204670440000000273918720435445938_);fill:#FAE21F;}
	.st101{opacity:0.1;clip-path:url(#SVGID_00000151528047466425790080000012282967819781487002_);fill:#FAE21F;}
	.st102{clip-path:url(#SVGID_00000015337114547317422850000017517938085764323770_);fill:#FAE21F;}
	.st103{clip-path:url(#SVGID_00000026855713894792556690000006122894990267486107_);fill:#FAE21F;}
	.st104{clip-path:url(#SVGID_00000070094720725628910170000002183645225481127606_);fill:#FAE21F;}
	.st105{clip-path:url(#SVGID_00000170277250418296336830000003173914693302905789_);fill:#FAE21F;}
	.st106{opacity:0.15;clip-path:url(#SVGID_00000168804535475982282260000002316888229258029442_);fill:#181919;}
	.st107{opacity:0.2;clip-path:url(#SVGID_00000114784141921165185960000014299508699047518908_);fill:#181919;}
	.st108{opacity:0.1;clip-path:url(#SVGID_00000046317865626976182670000001708248677204592558_);fill:#181919;}
	.st109{clip-path:url(#SVGID_00000101069943737427679150000017146269663109224835_);fill:#1E202E;}
	.st110{opacity:0.13;clip-path:url(#SVGID_00000011738161684631628510000009697119095948107192_);fill:#181919;}
	.st111{opacity:0.1;clip-path:url(#SVGID_00000160181126605954645240000012009522220964016545_);fill:#181919;}
	.st112{opacity:0.1;clip-path:url(#SVGID_00000121975017604456970560000006261118653849403829_);fill:#181919;}
	.st113{clip-path:url(#SVGID_00000118374459912338375310000014631487397728166844_);fill:#1E202E;}
	.st114{clip-path:url(#SVGID_00000097459924426345249870000005343600909439805832_);fill:#1E202E;}
	.st115{clip-path:url(#SVGID_00000128462973387555254360000014527734128605992887_);fill:#FFFFFF;}
	.st116{clip-path:url(#SVGID_00000085951694163444105730000008584730868357770382_);fill:#FFFFFF;}
	.st117{fill:#F3DBCE;}
	.st118{fill:#E8E8E7;}
	.st119{fill:#6D7172;}
	.st120{opacity:0.15;clip-path:url(#SVGID_00000108992760094050236150000015610794519536974490_);fill:#FAE21F;}
	.st121{opacity:0.2;clip-path:url(#SVGID_00000114032323911301753650000009734254165803353488_);fill:#FAE21F;}
	.st122{opacity:0.1;clip-path:url(#SVGID_00000107578319579194502560000011066827422984130997_);fill:#FAE21F;}
	.st123{clip-path:url(#SVGID_00000093872996578813526950000012772567099070941097_);fill:#FAE21F;}
	.st124{opacity:0.13;clip-path:url(#SVGID_00000047025617671246252000000003963114537327073681_);fill:#FAE21F;}
	.st125{opacity:0.1;clip-path:url(#SVGID_00000040538541982356468350000015210291895263085199_);fill:#FAE21F;}
	.st126{opacity:0.1;clip-path:url(#SVGID_00000121259727577889121800000009828324527120130180_);fill:#FAE21F;}
	.st127{clip-path:url(#SVGID_00000142857995627836432000000002890301625946534311_);fill:#FAE21F;}
	.st128{clip-path:url(#SVGID_00000016035802942254051210000004028458460042525840_);fill:#FAE21F;}
	.st129{clip-path:url(#SVGID_00000177442233238181231340000016909509263491287486_);fill:#FAE21F;}
	.st130{clip-path:url(#SVGID_00000129206585707946941080000006444558550352458117_);fill:#FAE21F;}
	.st131{opacity:0.15;clip-path:url(#SVGID_00000084493002325834516470000000387188876326855314_);fill:#181919;}
	.st132{opacity:0.2;clip-path:url(#SVGID_00000124852903843422979860000013298733307824525242_);fill:#181919;}
	.st133{opacity:0.1;clip-path:url(#SVGID_00000040572090029103857470000014141934265296194988_);fill:#181919;}
	.st134{clip-path:url(#SVGID_00000039114037732820427480000006057171299824732081_);fill:#1E202E;}
	.st135{opacity:0.13;clip-path:url(#SVGID_00000031196886447718092440000013310811171757818257_);fill:#181919;}
	.st136{opacity:0.1;clip-path:url(#SVGID_00000163773417852303528810000013417772277423525522_);fill:#181919;}
	.st137{opacity:0.1;clip-path:url(#SVGID_00000044857287020184510180000016730126067799073421_);fill:#181919;}
	.st138{clip-path:url(#SVGID_00000139988924746479467760000012279701792568827304_);fill:#1E202E;}
	.st139{clip-path:url(#SVGID_00000005955778181634846300000012069437311363165327_);fill:#1E202E;}
	.st140{clip-path:url(#SVGID_00000177456368757030881980000017400467835045773499_);fill:#FFFFFF;}
	.st141{clip-path:url(#SVGID_00000112631731020978722100000016660842969661333159_);fill:#FFFFFF;}
	.st142{fill:#333333;stroke:#000000;stroke-width:5;stroke-miterlimit:10;}
	.st143{fill:#E34B4E;stroke:#000000;stroke-width:5;stroke-miterlimit:10;}
	.st144{fill:#333333;}
	.st145{fill:#E34B4E;}
	.st146{opacity:0.15;clip-path:url(#SVGID_00000162318627314656787280000003750340885346604429_);fill:#FAE21F;}
	.st147{opacity:0.2;clip-path:url(#SVGID_00000028312443083968709030000016436677884164010376_);fill:#FAE21F;}
	.st148{opacity:0.1;clip-path:url(#SVGID_00000093876100493043468750000014299084047972539833_);fill:#FAE21F;}
	.st149{clip-path:url(#SVGID_00000165943681938389600250000009434289997137029806_);fill:#FAE21F;}
	.st150{opacity:0.13;clip-path:url(#SVGID_00000077299204524167982040000007947179218165563576_);fill:#FAE21F;}
	.st151{opacity:0.1;clip-path:url(#SVGID_00000049217550915860890560000013847372873022712966_);fill:#FAE21F;}
	.st152{opacity:0.1;clip-path:url(#SVGID_00000161610505327025071700000016314958389375532422_);fill:#FAE21F;}
	.st153{clip-path:url(#SVGID_00000096026856580608654900000011257534602241227416_);fill:#FAE21F;}
	.st154{clip-path:url(#SVGID_00000019670043393933179860000008315824316377413252_);fill:#FAE21F;}
	.st155{clip-path:url(#SVGID_00000176036641412582189990000011769788200016276381_);fill:#FAE21F;}
	.st156{clip-path:url(#SVGID_00000129168742291642752720000006228439962835843712_);fill:#FAE21F;}
	.st157{opacity:0.15;clip-path:url(#SVGID_00000150811308294793883770000014332460607651692181_);fill:#181919;}
	.st158{opacity:0.2;clip-path:url(#SVGID_00000182510083626990538400000000737738931436771996_);fill:#181919;}
	.st159{opacity:0.1;clip-path:url(#SVGID_00000124126773145848613880000011042866073934865561_);fill:#181919;}
	.st160{clip-path:url(#SVGID_00000157272868492371043900000012997548597913392559_);fill:#1E202E;}
	.st161{opacity:0.13;clip-path:url(#SVGID_00000050626435044150690990000002393761224218891913_);fill:#181919;}
	.st162{opacity:0.1;clip-path:url(#SVGID_00000009572556902703389050000014149386887942996150_);fill:#181919;}
	.st163{opacity:0.1;clip-path:url(#SVGID_00000101820608421602095090000017919261257794698388_);fill:#181919;}
	.st164{clip-path:url(#SVGID_00000055703236612469159580000007700868973843936420_);fill:#1E202E;}
	.st165{clip-path:url(#SVGID_00000109725354374788491870000001416017569432879775_);fill:#1E202E;}
	.st166{clip-path:url(#SVGID_00000039119901378348781770000013402947452215912373_);fill:#FFFFFF;}
	.st167{clip-path:url(#SVGID_00000021821134313554196750000015638531579328354459_);fill:#FFFFFF;}
	.st168{opacity:0.66;fill:#FFFFFF;stroke:#000000;stroke-width:5;stroke-miterlimit:10;}
	.st169{fill:#EAF2DC;stroke:#000000;stroke-width:5;stroke-miterlimit:10;}
	.st170{fill:#A94141;stroke:#000000;stroke-width:5;stroke-miterlimit:10;}
	.st171{fill:#E8E8E7;stroke:#6D7172;stroke-width:5;stroke-miterlimit:10;}
	.st172{fill:#E2BFA9;}
	.st173{fill:#A67D65;}
	.st174{fill:#D9B29C;}
	.st175{opacity:0.11;fill:#FFFFFF;}
	.st176{opacity:0.15;clip-path:url(#SVGID_00000127005169030810382210000007163483572378312601_);fill:#FAE21F;}
	.st177{opacity:0.2;clip-path:url(#SVGID_00000003087647072336807000000005513187343873964209_);fill:#FAE21F;}
	.st178{opacity:0.1;clip-path:url(#SVGID_00000121281057611315996830000000369000994297581969_);fill:#FAE21F;}
	.st179{clip-path:url(#SVGID_00000041277889073523927660000018134696271258193590_);fill:#FAE21F;}
	.st180{opacity:0.13;clip-path:url(#SVGID_00000123412112961267045490000015932907458070772922_);fill:#FAE21F;}
	.st181{opacity:0.1;clip-path:url(#SVGID_00000109015645270330480370000011992945921982376610_);fill:#FAE21F;}
	.st182{opacity:0.1;clip-path:url(#SVGID_00000013159418822864299970000011987174955516881564_);fill:#FAE21F;}
	.st183{clip-path:url(#SVGID_00000168832800222518003250000007288346528846968232_);fill:#FAE21F;}
	.st184{clip-path:url(#SVGID_00000122695383310317718100000004200725419991703210_);fill:#FAE21F;}
	.st185{clip-path:url(#SVGID_00000079482963505633500470000015947077674811461292_);fill:#FAE21F;}
	.st186{clip-path:url(#SVGID_00000008108706209309122960000010883031189107436945_);fill:#FAE21F;}
	.st187{opacity:0.15;clip-path:url(#SVGID_00000047776894418739069410000014702387323127282099_);fill:#181919;}
	.st188{opacity:0.2;clip-path:url(#SVGID_00000163774261986411535280000016273680288361056901_);fill:#181919;}
	.st189{opacity:0.1;clip-path:url(#SVGID_00000077321613560978497560000014355979806356969663_);fill:#181919;}
	.st190{clip-path:url(#SVGID_00000006679153279539828380000003366245055632477111_);fill:#1E202E;}
	.st191{opacity:0.13;clip-path:url(#SVGID_00000174592821517323426610000012947713001994911362_);fill:#181919;}
	.st192{opacity:0.1;clip-path:url(#SVGID_00000058548506374510765410000001136478019313246633_);fill:#181919;}
	.st193{opacity:0.1;clip-path:url(#SVGID_00000106838755118287685880000000251980712764388742_);fill:#181919;}
	.st194{clip-path:url(#SVGID_00000032613607154687994820000003198193891125544850_);fill:#1E202E;}
	.st195{clip-path:url(#SVGID_00000151534341119173781220000017630586116707544754_);fill:#1E202E;}
	.st196{clip-path:url(#SVGID_00000077286244176829504590000007896616542118375041_);fill:#FFFFFF;}
	.st197{clip-path:url(#SVGID_00000124878780808641881490000004203781423442635920_);fill:#FFFFFF;}
	.st198{fill:#AD6632;stroke:#000000;stroke-width:5;stroke-miterlimit:10;}
	.st199{fill:#FF6464;}
	.st200{fill:#FFFFFF;stroke:#000000;stroke-width:3;stroke-miterlimit:10;}
	.st201{fill:#EAF286;stroke:#000000;stroke-width:3;stroke-miterlimit:10;}
	.st202{fill:#E94949;stroke:#000000;stroke-width:3;stroke-miterlimit:10;}
	.st203{fill:#FFD11D;stroke:#000000;stroke-width:3;stroke-miterlimit:10;}
	.st204{fill:#8AE9FD;stroke:#000000;stroke-width:3;stroke-miterlimit:10;}
	.st205{fill:#FFB44B;stroke:#000000;stroke-width:3;stroke-miterlimit:10;}
	.st206{fill:none;stroke:#000000;stroke-width:2;stroke-miterlimit:10;}
	.st207{fill:#0A0B0C;stroke:#000000;stroke-width:5;stroke-miterlimit:10;}
	.st208{fill:#FFDDAA;stroke:#000000;stroke-width:5;stroke-miterlimit:10;}
	.st209{fill:#EAEAEA;}
	.st210{opacity:0.18;fill:#FFFFFF;}
	.st211{opacity:0.5;fill:#FFFFFF;}
	.st212{opacity:0.83;fill:#FFFFFF;}
	.st213{fill:#EC7525;}
	.st214{fill:#225EA5;}
	.st215{fill:#103051;stroke:#000000;stroke-width:4;stroke-miterlimit:10;}
	.st216{fill:#E63E6B;}
</style>
<g>
	<g>
		<path class="st4" d="M90.3,144.4c-5.4,3.8-11.2,7-17.6,8.9c-0.1,0-0.2,0.1-0.3,0.1c0.1-0.3,0.2-0.5,0.3-0.7
			c-0.1-2.5-1.4-6.2-5-11.5c-4-5.9-14-30.1-22.9-58.8c0.6,0.7,1.3,1.3,1.9,2c1.8,2.2,3,5,4.2,7.6c7.6,16.6,19.6,30.8,31.3,44.7
			c2.2,2.6,4.1,5.8,7.2,7.4C89.5,144.2,89.9,144.3,90.3,144.4z"/>
		<g>
			<g>
				<path class="st216" d="M93.8,145.1c-5.4,3.8-11.2,7-17.6,8.9c-0.1,0-0.2,0.1-0.3,0.1c-0.1,0-0.3,0.1-0.4,0.1
					c-0.1,0-0.2,0.1-0.3,0.1c-0.1,0-0.2,0-0.3,0.1c-0.1,0-0.2,0-0.3,0c-0.1,0-0.2,0-0.3,0c-0.1,0-0.2,0-0.3,0c-0.3,0-1,2-1.3,1.9
					c-0.9-0.3-1.2-2.9-1.8-3.6c0,0-0.1-0.1-0.1-0.1c-6.1-6.5-8.7-15.1-10.5-24c-0.9-4.6-3.8-12-5.3-16.4c-4.6-12.9-8.8-22.1-12-35.8
					c0.3,0.1,0.7,0.1,1,0.2c1,1.6,1.7,3.3,2.9,4.8c0.4,0.6,0.9,1.1,1.4,1.6c0.6,0.7,1.3,1.3,1.9,2c1.8,2.2,3,5,4.2,7.6
					c7.6,16.6,19.6,30.8,31.3,44.7c2.2,2.6,4.1,5.8,7.2,7.4C93,144.9,93.4,145,93.8,145.1z"/>
				<path d="M72.8,157.7c-0.1,0-0.3,0-0.5-0.1c-1.2-0.4-1.6-1.7-2.1-2.9c-0.1-0.4-0.3-0.9-0.4-1.1c0,0,0,0,0,0
					c-6.6-6.9-9.1-16-10.9-24.7c-0.8-3.8-3-9.8-4.5-14.2c-0.3-0.7-0.5-1.4-0.7-2c-1.2-3.3-2.4-6.4-3.5-9.4
					c-3.3-8.8-6.2-16.3-8.6-26.6l-0.5-2.2l2.3,0.5c0.3,0.1,0.6,0.1,0.9,0.2l0.6,0.1l0.3,0.5c0.4,0.6,0.7,1.2,1,1.8
					c0.6,1,1.1,2,1.8,2.9c0.4,0.5,0.9,1,1.3,1.5l0.4,0.4c0.5,0.5,1.1,1.1,1.6,1.7c1.7,2.1,2.9,4.6,3.9,7l0.4,1
					c7.6,16.6,19.6,30.7,31.1,44.4c0.5,0.6,1.1,1.3,1.6,2c1.6,2.1,3.1,4,5.2,5.1c0.1,0,0.3,0.1,0.5,0.2l2.9,0.9l-2.3,1.6
					c-6.1,4.3-12,7.3-18,9.1l-0.3,0.1c-0.2,0-0.3,0.1-0.5,0.1c-0.1,0-0.2,0.1-0.4,0.1c-0.1,0-0.2,0-0.3,0.1c-0.1,0-0.2,0-0.3,0
					c0,0.1-0.1,0.2-0.1,0.2C74.3,156.7,73.7,157.7,72.8,157.7z M46.1,82.7c2,7,4.3,13,6.8,19.7c1.1,3,2.3,6.1,3.5,9.4
					c0.2,0.6,0.5,1.3,0.7,2c1.6,4.4,3.8,10.5,4.7,14.6c1.7,8.3,4.1,16.9,10.1,23.3c0,0,0,0,0.1,0.1c0.4,0.5,0.7,1.1,0.9,1.8
					c0.3-0.3,0.7-0.6,1.2-0.6c0.1,0,0.1,0,0.2,0c0.1,0,0.1,0,0.2,0l0.1,0c0,0,0.1,0,0.1,0l0.1,0c0,0,0.1,0,0.1,0l0.1,0
					c0.1,0,0.1,0,0.2,0l0.1,0c0.1,0,0.2-0.1,0.4-0.1l0.3-0.1c5-1.5,10-3.9,15.1-7.3c-2-1.4-3.5-3.2-4.9-5.1c-0.5-0.7-1-1.3-1.5-1.9
					C72.9,124.5,60.8,110.2,53,93.3l-0.4-1c-1.1-2.3-2-4.5-3.6-6.3c-0.4-0.5-0.9-1-1.4-1.5L47.2,84C46.8,83.6,46.5,83.2,46.1,82.7z"
					/>
			</g>
		</g>
		<g class="st2">
			<path d="M93.8,145.1c-5.4,3.8-11.2,7-17.6,8.9c-0.1,0-0.2,0.1-0.3,0.1c-0.1,0-0.3,0.1-0.4,0.1c-0.1,0-0.2,0.1-0.3,0.1
				c-0.1,0-0.2,0-0.3,0.1c-0.1,0-0.2,0-0.3,0c-0.1,0-0.2,0-0.3,0c-0.1,0-0.2,0-0.3,0c-0.3,0-1,2-1.3,1.9c-0.9-0.3-1.2-2.9-1.8-3.6
				c0,0-0.1-0.1-0.1-0.1c-6.1-6.5-8.7-15.1-10.5-24c-0.9-4.6-3.8-12-5.3-16.4c-4.6-12.9-8.8-22.1-12-35.8c0.3,0.1,0.7,0.1,1,0.2
				c1,1.6,1.7,3.3,2.9,4.8c0.4,0.6,0.9,1.1,1.4,1.6c0.6,0.7,1.3,1.3,1.9,2c1.8,2.2,3,5,4.2,7.6c7.6,16.6,19.6,30.8,31.3,44.7
				c2.2,2.6,4.1,5.8,7.2,7.4C93,144.9,93.4,145,93.8,145.1z"/>
		</g>
		<g>
			<path class="st4" d="M294.6,234.6c-9.5,22.5-30,66.4-78.4,73.4c-5.1,0.7-9.5,1.3-13.3,1.8c-32.5,4.1-22.3-0.1-31.7,1.2
				c-0.6,0.1-1.2,0.2-1.7,0.3c-10.1,2-22.5,8.1-52.7-10.3c0,0-8.2-2.8-18.5-8c-6-3-12.7-6.9-18.9-11.5c-17-12.5-22.5-31-19.5-64.4
				c0,0-0.8-16.8,1-27.2c2.1-12,2-17.2,5.5-23.6c0.5-0.9,1.1-2,1.7-3.2c0.6-1.2,1.2-2.6,1.9-4c0.6-1.2,1.1-2.5,1.7-3.7
				c-0.1-0.1-0.2-0.2-0.3-0.2c3.1-5.2,5.4-10.8,6.9-16.7c0.4-1.5,0.7-3.5,0.8-5.4c-10.7-12.8-21.2-25.9-28.2-41
				c-1.2-2.6-2.3-5.4-4.2-7.6c-0.6-0.7-1.2-1.4-1.9-2c-0.6-1.9-1.2-3.9-1.8-5.9c7.6,1.5,15.2,3.3,22.8,5.2c0.9,0.2,1.9,0.5,2.8,0.7
				c3.2,0.8,6.5,1.7,9.8,2.6c0.6,0.2,1.3,0.3,1.9,0.5c5.8,1.6,11.6,3.2,17.4,5.1c7.3,2.4,14.5,5.1,21.1,8.3c0.6,0.3,1.2,0.6,1.7,1
				c0.8,0.6,1.4,1.3,1.9,2.1c4.3-1.8,9.3-3.3,14.9-4.6c2.1-0.5,4.2-0.9,6.5-1.3c12-2.1,26.8-3,45-1.7c7.7,0.5,16.1,1.4,25.1,2.8
				c0.4-0.4,0.9-0.9,1.5-1.3c0.8-0.6,1.6-1.1,2.4-1.7c10.3-6.8,22-12.4,33.6-17.5c3.3-1.5,6.6-2.9,9.8-4.3c0.4-0.2,0.9-0.4,1.3-0.6
				c6.4-2.8,12.9-5.4,19.4-7.9c2.4-0.9,4.9-1.8,7.3-2.7c0.3-0.1,0.7-0.2,1-0.4c-1.2,2.9-2.2,5.9-3.2,9c-0.6,1.9-1.1,3.7-1.6,5.6
				c-1.6,6-2.7,12.2-3.4,18.4c-0.2,1.5-0.3,3.1-0.4,4.6c-0.1,0.9-0.1,1.8-0.2,2.7c-0.2,4.6-0.2,9.3-0.5,14c-0.1,2.1-0.2,4.1-0.4,6.1
				c-0.7,6.9-2.3,13.5-6.3,19.2c2.6,4.6,4.8,9.4,6.3,14.4c0.2,0.8,0.5,1.6,0.7,2.4c0,0,0,0,0,0c4.5,14.5,10.1,28.3,13.4,41.3
				C298.1,211.5,299.2,223.6,294.6,234.6z"/>
			<path class="st2" d="M104.4,149.3c-2.2,2.4-5.3,3.7-8.4,4.7c-4.2,1.4-8.6,2.3-13.1,2.7c-2.7,0.3-5.4,0.4-8-0.5
				c-0.4-0.2-0.9-0.4-1.2-0.8c-0.3-0.4-0.3-1-0.3-1.5c0.4-5.8,3.7-11,4.8-16.8c0.4-2.1,0.5-4.4-0.8-6.1c-0.7-1-1.9-1.7-2.9-2.5
				c-2.9-2.3-4.8-5.5-6.8-8.6c-4.6-7.5-9.3-15.1-13.9-22.6c-1.2-1.9-3.2-4.4-3.7-6.6c-0.6-3.1,2.7-1.6,4.7-1.3
				c3.5,0.5,7.1,0.8,10.6,1.5c1.8,0.3,3.5,0.8,5.2,1.4c2.9,1,5.7,2.5,8.3,4.2c10.8,7.1,18.6,18.1,24.4,29.7c0.9,1.8,1.7,3.5,2.4,5.4
				c0.8,2,1.3,4.1,1.6,6.2C108.1,141.9,107.2,146.3,104.4,149.3z"/>
			<path class="st2" d="M184.8,139.4c-2.8-11.4-4.9-16.8-4.9-16.8c-1-1.7-2-3.4-3.5-4.6c-3.6-2.9-9.1-2.2-12.9,0.5
				s-6.3,6.7-8.6,10.7c-2.6,4.4-5.3,8.8-7.9,13.3c-1.6,2.6-3.4,5.5-6.3,6.5c-2.3,0.8-4.9,0.3-7.3,0.6c-14.6,1.8,11.4,9.6,15.9,12.2
				c11.7,6.9,32.7,21.9,42.1,12C196.4,168.6,184.8,139.4,184.8,139.4z"/>
			<path d="M153.3,315.3c-8.6,0-20.2-2.7-37.1-13c-1.2-0.4-9-3.2-18.5-8c-7.2-3.6-13.6-7.5-19.1-11.6C61.2,270,55.4,251,58.5,217.1
				c-0.1-1.5-0.7-17.3,1-27.4c0.5-3,0.9-5.6,1.2-7.8c1-7,1.7-11.2,4.4-16.3c0.4-0.8,0.9-1.8,1.6-3.2c0.5-1.1,1.2-2.4,1.9-3.9
				c0.4-0.9,0.8-1.8,1.2-2.7l-0.4-0.3l0.6-1c3-5.1,5.3-10.6,6.7-16.3c0.3-1.4,0.6-3,0.7-4.6c-10.4-12.4-21-25.7-28-40.9l-0.4-1
				c-1.1-2.3-2-4.5-3.6-6.3c-0.4-0.5-0.9-1-1.4-1.5l-0.6-0.6l-0.1-0.3c-0.6-1.9-1.2-3.9-1.8-5.9l-0.7-2.3l2.3,0.5
				c7.6,1.5,15.3,3.3,22.9,5.2c0.9,0.2,1.9,0.5,2.8,0.7l1.8,0.5c2.7,0.7,5.3,1.4,8,2.1l1.9,0.5c4.8,1.3,11.1,3,17.4,5.1
				c8.2,2.7,15.2,5.4,21.3,8.4c0.7,0.4,1.4,0.7,1.9,1.2c0.6,0.4,1.1,0.9,1.5,1.5c4.4-1.7,9.1-3.1,14-4.3c2.2-0.5,4.4-1,6.6-1.3
				c13.1-2.3,28.4-2.9,45.4-1.7c7.7,0.5,16,1.4,24.6,2.7c0.4-0.3,0.7-0.6,1.2-0.9c0.8-0.6,1.6-1.1,2.5-1.7
				c10.7-7.1,23.1-12.9,33.8-17.6c2.5-1.1,4.9-2.2,7.4-3.2l2.4-1.1c0.5-0.2,0.9-0.4,1.3-0.6c6.5-2.8,13-5.5,19.5-7.9
				c2.5-1,5-1.9,7.4-2.7l4-1.4l-1.2,2.9c-1.1,2.9-2.2,5.9-3.1,8.9c-0.6,1.8-1.1,3.7-1.6,5.6c-1.6,6-2.7,12.1-3.3,18.2
				c-0.2,1.5-0.3,3-0.4,4.6c-0.1,0.9-0.1,1.8-0.2,2.6c-0.1,2.3-0.2,4.7-0.2,7.1c-0.1,2.3-0.1,4.6-0.2,6.9c-0.1,2.2-0.3,4.3-0.5,6.2
				c-0.9,8-2.8,14.1-6,19.1c2.6,4.7,4.6,9.4,6,13.9c0.2,0.8,0.5,1.6,0.7,2.4l0.1,0.2c1.8,5.8,3.8,11.4,5.7,17
				c2.9,8.4,5.7,16.4,7.7,24.2c4,15.7,4,27.1-0.2,37.1v0c-7.7,18.3-28.2,66.9-79.5,74.3c-5.1,0.7-9.4,1.3-13.3,1.8
				c-21.3,2.7-24.5,1.8-26.9,1.2c-1.1-0.3-1.8-0.5-4.8,0c-0.5,0.1-1.1,0.2-1.7,0.3c-1.1,0.2-2.2,0.5-3.5,0.8
				C162.7,314.3,158.5,315.3,153.3,315.3z M73.1,154.8l0.2,0.2l-0.4,1c-0.6,1.3-1.1,2.5-1.7,3.7c-0.7,1.6-1.4,2.9-1.9,4
				c-0.7,1.5-1.2,2.5-1.7,3.3c-2.5,4.6-3.1,8.7-4.1,15.3c-0.3,2.3-0.7,4.9-1.2,7.9c-1.7,10.1-1,26.8-1,26.9l0,0.1l0,0.1
				c-3,33.2,2.3,51,18.9,63.1c5.4,4,11.7,7.8,18.7,11.3c10.1,5.1,18.2,7.9,18.3,7.9l0.1,0.1l0.1,0.1c26.3,16,38.4,13.2,48.1,10.9
				c1.2-0.3,2.4-0.6,3.5-0.8c0.6-0.1,1.2-0.2,1.8-0.3c3.4-0.5,4.5-0.3,5.9,0.1c2,0.5,5,1.3,25.8-1.3c3.8-0.5,8.1-1.1,13.2-1.8
				c49.7-7.2,69.7-54.7,77.3-72.5v0c4-9.4,4-20.2,0.1-35.3c-2-7.7-4.7-15.6-7.6-24c-1.9-5.6-4-11.4-5.8-17.3l-0.1-0.2
				c-0.2-0.7-0.4-1.5-0.7-2.2c-1.4-4.6-3.5-9.4-6.1-14.1l-0.4-0.8l0.5-0.7c3.3-4.7,5.2-10.6,6-18.5c0.2-1.9,0.3-3.9,0.4-6.1
				c0.1-2.3,0.2-4.6,0.2-6.9c0.1-2.3,0.1-4.8,0.2-7.1c0-0.9,0.1-1.8,0.2-2.7c0.1-1.5,0.2-3.1,0.4-4.6c0.7-6.2,1.8-12.5,3.4-18.6
				c0.5-1.9,1-3.8,1.6-5.7c0.6-2.1,1.3-4.1,2.1-6.1c-1.8,0.6-3.6,1.3-5.4,2c-6.4,2.4-12.9,5.1-19.4,7.9c-0.4,0.2-0.9,0.4-1.3,0.6
				l-2.4,1.1c-2.4,1.1-4.9,2.1-7.3,3.2c-10.6,4.7-22.8,10.4-33.4,17.3c-0.8,0.5-1.6,1.1-2.4,1.6c-0.5,0.3-0.9,0.7-1.3,1.1l-0.5,0.5
				l-0.7-0.1c-8.7-1.3-17.1-2.2-25-2.7c-16.7-1.1-31.8-0.6-44.7,1.7c-2.1,0.4-4.3,0.8-6.4,1.3c-5.2,1.2-10.1,2.7-14.7,4.6l-1.1,0.5
				l-0.6-1.1c-0.4-0.6-0.9-1.1-1.5-1.6c-0.4-0.3-0.9-0.6-1.4-0.9c-6-2.9-12.8-5.6-20.9-8.2c-6.3-2-12.5-3.8-17.3-5.1L78,86.3
				c-2.7-0.7-5.4-1.4-8-2.1l-1.8-0.5c-0.9-0.2-1.9-0.5-2.8-0.7c-6.7-1.7-13.6-3.3-20.4-4.7c0.3,1.1,0.7,2.2,1,3.3l0.2,0.2
				c0.5,0.5,1,1.1,1.5,1.7c1.7,2.1,2.9,4.6,3.9,7l0.4,1c6.9,15,17.6,28.3,27.9,40.6l0.4,0.4l0,0.6c-0.1,1.9-0.4,4-0.8,5.7
				C78.2,144.3,76,149.7,73.1,154.8z"/>
		</g>
		<path class="st2" d="M176.9,107.4c-3.1-0.6-6.2-1.2-9.4-1.9c-10.7-2.4-20.8-5.1-30.3-8.2c-5.6,1.3-10.5,2.9-14.9,4.6
			c-0.2-0.3-0.4-0.6-0.6-0.9c5.7-3.9,12.3-6.7,18.8-8C154.9,90.3,168.9,96.3,176.9,107.4z"/>
		<path class="st2" d="M88.9,214.9c-0.2,1.8-0.4,3.7-0.1,5.5c0.7,6.5,5.5,12,11.2,15.2c1.8,1,3.7,1.9,5.8,2.1
			c1.9,0.2,3.9-0.1,5.8-0.6c3.5-0.8,7.1-2.2,9.2-5.1c0.2-0.3,0.4-0.6,0.4-1c0-0.6-0.7-1-1.3-1.3c-4.6-1.9-9.2-3.8-13.7-5.7
			c-2.7-1.1-5.4-2.3-7.5-4.2c-0.5-0.4-0.9-0.9-1.1-1.4c-0.3-0.8-0.2-1.6-0.1-2.5c0.2-2-0.1-3.9-0.4-5.9c-0.4-2.6-0.8-5.2-1.2-7.9
			c-0.5-3.1-0.9-4.3-2.6-0.9C90.9,205.6,89.5,210.2,88.9,214.9z"/>
		<path class="st2" d="M178.2,242.2c9,2.3,18.9,0.5,26.7-4.5c4.5-2.9,5.7-7.9,6.7-13.2c1.4-7.7,1.3-9.4-3.9-15.3
			c-2.7-3-5.3-6.1-8-9.1c-1.5-1.8-3.2-3.6-5.4-4.4c-2.2-0.8-4.7-0.5-7.1-0.2c-3.2,0.5-5.7,2.5-8.9,2.9c-1,0.1-1.5-0.5-2.4,0
			c-3.5,2-3.9,7-6.7,9.9c-1.1,1.1-2.6,1.6-3.7,2.7c-1.6,1.6-2,3.8-3.1,5.7c-0.8,1.4-2.1,1.7-2.9,3.1c-1.9,3.7,0,8.9,1.9,12.2
			C165.4,239.3,170.1,240.1,178.2,242.2z"/>
		<g>
			<path class="st4" d="M195.6,231.3c-6,4.7-28.2,12.2-34.7-12c0,0,1.2-2.3,3.3-5.5c3.1-4.7,8.1-11.4,14.2-15.5
				c3.7-2.5,7.8-4.1,12-3.7C206.1,196.1,206.3,222.9,195.6,231.3z"/>
			<g>
				<path d="M189.1,209.4c0,6.2-5.8,11.2-13,11.2c-5.3,0-9.9-2.8-11.9-6.8c3.1-4.7,8.1-11.4,14.2-15.5
					C184.5,199.3,189.1,203.9,189.1,209.4z"/>
				<path d="M176.1,221.2c-5.4,0-10.3-2.8-12.5-7.1l-0.1-0.3l0.2-0.3c3.2-4.9,8.3-11.5,14.3-15.7l0.2-0.1l0.2,0
					c6.5,1,11.3,5.9,11.3,11.6C189.7,215.9,183.6,221.2,176.1,221.2z M164.8,213.9c2,3.8,6.4,6.2,11.3,6.2c6.9,0,12.4-4.8,12.4-10.7
					c0-5.1-4.2-9.5-10.1-10.5C172.8,202.9,168,209.2,164.8,213.9z"/>
			</g>
			<path class="st5" d="M202.8,210.8c-1.4-6.4-5.3-11.6-12-12.2c-14.6-1.4-27.4,21-29.2,24.3c-0.2-0.7-0.5-1.4-0.7-2.2
				c0,0,13.7-26.2,29.5-24.7C197.9,196.7,201.9,203.3,202.8,210.8z"/>
			<path d="M180.2,237.7c-2.2,0-4.5-0.3-6.7-1.1c-6.8-2.3-11.5-8-13.9-16.9l-0.1-0.5l0.3-0.5c0.6-1.1,14.4-27.1,30.9-25.5
				c6.1,0.6,10.8,4.9,12.9,11.8c2.9,9.9-0.2,22.2-6.9,27.4C193.8,234.5,187.3,237.7,180.2,237.7z M162.4,219.5
				c2.2,7.7,6.2,12.5,11.9,14.4c8.2,2.7,17.5-1.4,20.4-3.7c5.8-4.5,8.5-15.7,5.9-24.4c-1-3.4-3.7-9.1-10.4-9.8
				C176.7,194.7,164.4,216,162.4,219.5z"/>
		</g>
		<path class="st2" d="M118.1,284.4c1.4,1.4,3.4,2,5.3,2.5c4.3,1.2,9.2,2.4,12.8-0.1c1.4-1,2.4-2.4,3.9-3.3
			c3.8-2.5,8.9-0.7,13.4,0.2c6.8,1.4,14,0.6,20.3-2.3c2.1-1,4.4-2.7,4.4-5c-4.5-0.4-9-0.8-13.5-1.2c-4.3-0.4-8.6-0.7-12.8-2
			c-2.8-0.8-5.5-2.1-8.3-2.4c-5.9-0.7-11.5,2.2-16.8,4.7c-1.7,0.8-3.5,1.6-5.4,1.9c-1.1,0.2-3.7-0.3-4.6,0.2
			C114.6,279,116.4,282.8,118.1,284.4z"/>
		<path class="st2" d="M148.4,249.8c1,1.6,6.2,7,5.2,8.7c-1.7,2.8-2.7,2.1-5.9,3c-3.2,0.8-6.5,0.8-9.8,0.7c-5.2-0.1-9,0.8-9.7-5.3
			c-0.4-3.5-0.3-6.3,2.5-8.5C135.6,244.7,145.1,244.6,148.4,249.8z"/>
		<g>
			<path class="st216" d="M138.7,253.5c0,0-5.9-1-6.7-3.4c-0.8-2.4,2-3.9,4.1-3.9s9.1-0.6,9.1,2S138.7,253.5,138.7,253.5z"/>
			<path d="M138.9,254.9l-0.4-0.1c-1.1-0.2-6.8-1.3-7.8-4.3c-0.4-1.2-0.2-2.5,0.5-3.5c1.2-1.6,3.3-2.3,4.9-2.3c0.3,0,0.6,0,1,0
				c3.5-0.1,7.1-0.1,8.7,1.5c0.5,0.5,0.8,1.2,0.8,1.9c0,3.2-5.6,5.9-7.3,6.7L138.9,254.9z M138.8,247.5c-0.5,0-1,0-1.6,0
				c-0.4,0-0.8,0-1.1,0c-1,0-2.2,0.5-2.6,1.1c-0.2,0.3-0.3,0.6-0.1,0.9c0.3,0.8,2.9,1.9,5.2,2.4c2.6-1.2,5.1-3,5.2-3.8
				C143.4,247.8,142.2,247.5,138.8,247.5z"/>
		</g>
		<g>
			<path class="st216" d="M113.8,274c0,0,5.5,3.8,8.5,2.8c3-1,12.3-9,18.5-9c6.2,0,22.6,7,26.3,7.2c3.7,0.2,11.2-2.7,12.3-3.3
				c1.2-0.7,5.2,0.5,0,3s-9.3,4.5-14.1,3s-18.6-6.3-22-5.7s-12,4.7-13.8,5.3C127.6,278,122,282.8,113.8,274z"/>
			<path d="M140.8,267.9c6.2,0,22.6,7,26.3,7.2c0.1,0,0.2,0,0.3,0c3.8,0,10.9-2.7,12-3.3c0.2-0.1,0.5-0.2,0.9-0.2
				c1.5,0,3.3,1.1-0.9,3.2c-3.9,1.9-7.3,3.5-10.8,3.5c-1.1,0-2.2-0.2-3.4-0.5c-4.5-1.4-16.9-5.7-21.2-5.7c-0.3,0-0.5,0-0.8,0.1
				c-3.3,0.7-12,4.7-13.8,5.3c-1,0.4-3.1,1.9-6.1,1.9c-2.6,0-5.8-1.2-9.6-5.2c0,0,4.3,3,7.4,3c0.4,0,0.8-0.1,1.1-0.2
				C125.3,275.8,134.6,267.9,140.8,267.9 M140.8,265c-5,0-10.8,3.7-15.4,6.7c-1.5,1-3.4,2.2-4,2.4c0,0-0.1,0-0.2,0
				c-1.5,0-4.3-1.5-5.7-2.5c-0.5-0.3-1.1-0.5-1.6-0.5c-0.8,0-1.6,0.3-2.1,1c-1,1.1-0.9,2.7,0.1,3.8c3.8,4.1,7.7,6.2,11.7,6.2
				c3,0,5.2-1.1,6.5-1.8c0.2-0.1,0.5-0.2,0.6-0.3c0.6-0.2,1.6-0.7,3-1.3c3.1-1.3,8.2-3.5,10.4-3.9c0,0,0,0,0,0c0,0,0.1,0,0.2,0
				c3.1,0,12.3,3,17.3,4.6c1.2,0.4,2.3,0.7,3.1,1c1.4,0.4,2.8,0.6,4.2,0.6c4.2,0,8-1.8,12-3.8c3.2-1.6,4.6-3.4,4.1-5.5
				c-0.4-1.8-2.2-3-4.5-3c-0.6,0-1.5,0.1-2.3,0.6c-1.1,0.6-7.6,3-10.6,3c-0.1,0-0.1,0-0.2,0c-1.1-0.1-5.4-1.5-8.8-2.6
				C152,267.4,144.8,265,140.8,265L140.8,265z"/>
		</g>
		<g>
			<g>
				<path class="st4" d="M111.5,233.8c-9,0-17.7-11.5-17.7-25.6c0-14.1,8-16.5,15-10.9c0.1,0.1,0.2,0.2,0.3,0.3
					c6.8,5.6,11.9,11,14,16c0.3,0.6,0.5,1.3,0.7,1.9C126.5,225.9,120.4,233.8,111.5,233.8z"/>
				<g>
					<path d="M123,213.7c-2.1,3.7-6.5,6.3-11.7,6.3c-7.2,0-13-5-13-11.2c0-5.5,4.6-10.1,10.7-11.1
						C115.8,203.2,120.9,208.6,123,213.7z"/>
					<path d="M111.4,220.5c-7.5,0-13.6-5.3-13.6-11.8c0-5.7,4.7-10.6,11.2-11.6l0.3,0l0.2,0.2c7.5,6.2,12.2,11.5,14.1,16.2l0.1,0.3
						l-0.1,0.2C121.2,218,116.6,220.5,111.4,220.5z M108.9,198.3c-5.8,1-10,5.4-10,10.5c0,5.9,5.6,10.7,12.4,10.7
						c4.7,0,8.9-2.2,11-5.7C120.5,209.2,116.1,204.2,108.9,198.3z"/>
				</g>
				<path class="st5" d="M123.3,227.5c0.5-2.4,0.4-5.2-0.3-8.1c-1.5-5.7-7.2-11.8-15-18.2c-5.2-4.3-11.1-4-13.7,2.6
					c2-8.8,8.6-9.7,14.4-5c7.8,6.4,13.4,12.5,15,18.2C124.8,221,124.5,224.6,123.3,227.5z"/>
				<path d="M111.5,235.3c-10.2,0-19.1-12.6-19.1-27c0-7.4,2.2-12.5,6.2-14.4c3.3-1.6,7.4-0.7,11.1,2.4c9.1,7.4,14,13.4,15.5,19v0
					c1.5,5.5,0.6,10.8-2.3,14.6C120.1,233.4,116.1,235.3,111.5,235.3z M101.9,196c-0.8,0-1.5,0.2-2.2,0.5c-2.9,1.4-4.5,5.7-4.5,11.8
					c0,13.8,8.6,24.2,16.3,24.2c3.7,0,6.9-1.5,9-4.3c2.4-3.2,3.1-7.5,1.8-12.2v0c-1.3-4.8-6-10.6-14.5-17.5
					C105.8,196.8,103.7,196,101.9,196z"/>
			</g>
			<g>
				<defs>
					<path id="SVGID_00000170974475306546614490000008742993969904438165_" d="M123.7,215.6c2.7,10.2-3.3,18.2-12.2,18.2
						s-17.7-11.5-17.7-25.6s8-16.5,15-10.9C116.5,203.8,122.2,209.9,123.7,215.6z"/>
				</defs>
				<clipPath id="SVGID_00000083069818243612962160000010933334268772838311_">
					<use xlink:href="#SVGID_00000170974475306546614490000008742993969904438165_"  style="overflow:visible;"/>
				</clipPath>
			</g>
		</g>
		<g>
			<g>
				<defs>
					<path id="SVGID_00000142856392972230718250000005927322876821438090_" d="M160.9,219.3c0,0,13.7-26.2,29.5-24.7
						s16,28.3,5.2,36.7C189.6,236,167.4,243.5,160.9,219.3z"/>
				</defs>
				<clipPath id="SVGID_00000108280674272091771480000017514868245924086201_">
					<use xlink:href="#SVGID_00000142856392972230718250000005927322876821438090_"  style="overflow:visible;"/>
				</clipPath>
			</g>
		</g>
		<g class="st2">
			<path d="M160.9,263.8c-0.2,0-0.4-0.1-0.5-0.3c-0.2-0.3-0.1-0.6,0.2-0.8c1.3-0.8,32.7-19.7,46.8-12.3c0.3,0.1,0.4,0.5,0.2,0.8
				c-0.1,0.3-0.5,0.4-0.8,0.2c-13.5-7.1-45.4,12.1-45.7,12.3C161.1,263.8,161,263.8,160.9,263.8z"/>
			<path d="M211.5,275.4c-0.2,0-0.3-0.1-0.4-0.2c-10.2-11.4-46.7-4.5-47.1-4.5c-0.3,0.1-0.6-0.1-0.7-0.5c-0.1-0.3,0.1-0.6,0.5-0.7
				c1.5-0.3,37.5-7,48.2,4.8c0.2,0.2,0.2,0.6,0,0.8C211.8,275.4,211.7,275.4,211.5,275.4z"/>
		</g>
		<g class="st2">
			<path d="M122.9,262.5c-0.1,0-0.2,0-0.3-0.1c-0.3-0.2-32.2-19.4-45.7-12.3c-0.3,0.1-0.6,0-0.8-0.2c-0.1-0.3,0-0.6,0.2-0.8
				c14.1-7.4,45.5,11.5,46.8,12.3c0.3,0.2,0.4,0.5,0.2,0.8C123.3,262.4,123.1,262.5,122.9,262.5z"/>
			<path d="M72.2,274.2c-0.1,0-0.3,0-0.4-0.1c-0.2-0.2-0.3-0.6,0-0.8c10.6-11.9,46.6-5.1,48.2-4.8c0.3,0.1,0.5,0.4,0.5,0.7
				c-0.1,0.3-0.4,0.5-0.7,0.5c-0.4-0.1-36.9-6.9-47.1,4.5C72.5,274.1,72.4,274.2,72.2,274.2z"/>
		</g>
		<g>
			<path class="st1" d="M160.9,261.5c-0.2,0-0.4-0.1-0.5-0.3c-0.2-0.3-0.1-0.6,0.2-0.8c1.3-0.8,32.7-19.7,46.8-12.3
				c0.3,0.1,0.4,0.5,0.2,0.8c-0.1,0.3-0.5,0.4-0.8,0.2c-13.5-7.1-45.4,12.1-45.7,12.3C161.1,261.5,161,261.5,160.9,261.5z"/>
			<path class="st1" d="M211.5,273.1c-0.2,0-0.3-0.1-0.4-0.2c-10.2-11.4-46.7-4.5-47.1-4.5c-0.3,0.1-0.6-0.1-0.7-0.5
				c-0.1-0.3,0.1-0.6,0.5-0.7c1.5-0.3,37.5-7,48.2,4.8c0.2,0.2,0.2,0.6,0,0.8C211.8,273.1,211.7,273.1,211.5,273.1z"/>
		</g>
		<g>
			<path class="st1" d="M122.9,260.3c-0.1,0-0.2,0-0.3-0.1c-0.3-0.2-32.2-19.4-45.7-12.3c-0.3,0.1-0.6,0-0.8-0.2
				c-0.1-0.3,0-0.6,0.2-0.8c14.1-7.4,45.5,11.5,46.8,12.3c0.3,0.2,0.4,0.5,0.2,0.8C123.3,260.2,123.1,260.3,122.9,260.3z"/>
			<path class="st1" d="M72.2,271.9c-0.1,0-0.3,0-0.4-0.1c-0.2-0.2-0.3-0.6,0-0.8c10.6-11.9,46.6-5.1,48.2-4.8
				c0.3,0.1,0.5,0.4,0.5,0.7c-0.1,0.3-0.4,0.5-0.7,0.5c-0.4-0.1-36.9-6.9-47.1,4.5C72.5,271.8,72.4,271.9,72.2,271.9z"/>
		</g>
		<g>
			<path class="st216" d="M290.2,60.8c-5.1,12.8-8,26.5-8.7,40.2c-0.2,4.6-0.2,9.3-0.5,14c-0.4,9.1-1.6,18-6.7,25.3
				c0,0,0,0.1-0.1,0.1c-0.5,0.8-1.1,1.5-1.9,1.9c-1,0.4-2.1,0.3-3.1,0.2c-6.6-0.9-12.8-3.2-18.7-6.1c0.4-0.2,0.7-0.3,0.8-0.4
				c2.9-2,4.2-5.5,6-8.4c9.5-15.6,19.1-31.4,24.1-49c0.8-2.8,1.5-5.7,3-8.2c0.8-1.4,1.9-2.6,2.7-4.1c0.9-1.6,1.4-3.4,2.1-5.2
				C289.5,61,289.9,60.9,290.2,60.8z"/>
			<path d="M270.7,144.1c-0.6,0-1.1-0.1-1.7-0.1c-6.2-0.9-12.5-2.9-19.1-6.2l-2.6-1.3l2.7-1.4c0.2-0.1,0.4-0.2,0.5-0.2
				c1.9-1.4,3.1-3.5,4.4-5.8c0.4-0.7,0.8-1.5,1.2-2.2c9.3-15.3,19-31.1,24-48.7l0.3-1c0.7-2.5,1.4-5.1,2.8-7.5
				c0.4-0.7,0.8-1.3,1.3-1.9c0.5-0.7,1-1.4,1.4-2.1c0.5-0.9,0.9-2,1.3-3.1c0.2-0.6,0.5-1.3,0.8-2l0.2-0.6l4.5-1.6l-1.2,2.9
				c-5,12.7-7.9,26.1-8.6,39.8c-0.1,2.3-0.2,4.7-0.2,7.1c-0.1,2.3-0.1,4.6-0.2,6.9c-0.4,8.9-1.6,18.2-7,26l-0.1,0.1
				c-0.7,0.9-1.4,1.9-2.5,2.4C272.2,144,271.4,144.1,270.7,144.1z M253.3,136.2c5.6,2.6,10.9,4.2,16.1,4.9c0.8,0.1,1.7,0.2,2.3-0.1
				c0.5-0.2,1-0.8,1.4-1.4l0.1-0.1c5-7.2,6.1-16.1,6.5-24.6c0.1-2.3,0.2-4.6,0.2-6.9c0.1-2.3,0.1-4.8,0.2-7.1
				c0.5-9.1,1.9-18.2,4.3-27c-0.5,1.3-0.8,2.6-1.2,3.9l-0.3,1c-5.1,17.9-14.9,33.9-24.3,49.4c-0.4,0.7-0.8,1.3-1.2,2.1
				C256.2,132.4,255.1,134.5,253.3,136.2z"/>
		</g>
		<g>
			<g>
				<circle class="st65" cx="140" cy="118.7" r="36.2"/>
				<path d="M140,156.3c-17.6,0-33.4-12.4-36.9-30.3c-1.9-9.9,0.1-19.9,5.7-28.2c5.6-8.3,14.1-14,24-16c9.9-1.9,19.9,0.1,28.2,5.7
					c8.3,5.6,14,14.1,16,24c1.9,9.9-0.1,19.9-5.7,28.2s-14.1,14-24,16C144.9,156.1,142.4,156.3,140,156.3z M140.1,83.9
					c-2.3,0-4.5,0.2-6.8,0.7c-9.1,1.8-17,7-22.2,14.7c-5.2,7.7-7,17-5.2,26.1c3.3,16.5,17.8,28,34.1,28c2.2,0,4.5-0.2,6.7-0.7
					c9.1-1.8,17-7,22.2-14.7c5.2-7.7,7-17,5.2-26.1l0,0c-1.8-9.1-7-17-14.7-22.2C153.6,85.9,146.9,83.9,140.1,83.9z"/>
			</g>
			<g>
				<circle class="st66" cx="134.8" cy="92.4" r="26.8"/>
				<path d="M134.8,120.6c-5.5,0-11-1.6-15.7-4.8c-6.3-4.2-10.5-10.6-12-18c-1.5-7.4,0.1-14.9,4.3-21.2c4.2-6.3,10.6-10.5,18-12
					c15.3-3,30.2,7,33.2,22.2l0,0c3,15.3-7,30.2-22.2,33.2C138.5,120.5,136.6,120.6,134.8,120.6z M134.9,67c-1.6,0-3.3,0.2-4.9,0.5
					c-6.7,1.3-12.4,5.1-16.2,10.8c-3.8,5.6-5.1,12.4-3.8,19.1c1.3,6.7,5.1,12.4,10.8,16.2s12.4,5.1,19.1,3.8
					c13.7-2.7,22.7-16.1,20-29.8C157.4,75.4,146.7,67,134.9,67z"/>
			</g>
			<g>
				<circle class="st64" cx="129.7" cy="66.1" r="17.9"/>
				<path d="M129.6,85.4c-3.8,0-7.5-1.1-10.7-3.3c-4.3-2.9-7.2-7.3-8.2-12.3c-1-5.1,0-10.2,2.9-14.5c2.9-4.3,7.3-7.2,12.3-8.2
					c5.1-1,10.2,0,14.5,2.9c4.3,2.9,7.2,7.3,8.2,12.3l0,0c1,5.1,0,10.2-2.9,14.5c-2.9,4.3-7.3,7.2-12.3,8.2
					C132.1,85.3,130.9,85.4,129.6,85.4z M129.7,49.6c-1.1,0-2.1,0.1-3.2,0.3c-8.9,1.8-14.7,10.4-13,19.4c0.9,4.3,3.3,8.1,7,10.5
					c3.7,2.5,8.1,3.3,12.4,2.5c8.9-1.8,14.7-10.4,13-19.4c-0.9-4.3-3.3-8.1-7-10.5C136.1,50.5,132.9,49.6,129.7,49.6z"/>
			</g>
			<g>
				<circle class="st63" cx="126.2" cy="48.5" r="11.8"/>
				<path d="M126.2,61.7c-2.6,0-5.1-0.8-7.3-2.2c-2.9-2-4.9-5-5.6-8.4c-1.4-7.1,3.3-14.1,10.4-15.5c7.2-1.4,14.1,3.3,15.5,10.4
					c1.4,7.1-3.3,14.1-10.4,15.5C127.9,61.6,127,61.7,126.2,61.7z M126.2,38.1c-0.7,0-1.3,0.1-2,0.2c-2.7,0.5-5.1,2.1-6.6,4.4
					c-1.5,2.3-2.1,5.1-1.6,7.8c1.1,5.6,6.6,9.3,12.2,8.2c5.6-1.1,9.3-6.6,8.2-12.2C135.4,41.6,131,38.1,126.2,38.1z"/>
			</g>
			<g>
				<circle class="st62" cx="123.5" cy="35.1" r="9"/>
				<path d="M123.5,45.5c-4.9,0-9.2-3.4-10.2-8.4c-1.1-5.6,2.6-11.1,8.2-12.2c2.7-0.5,5.5,0,7.8,1.6c2.3,1.5,3.9,3.9,4.4,6.6
					c0.5,2.7,0,5.5-1.6,7.8c-1.5,2.3-3.9,3.9-6.6,4.4C124.9,45.4,124.2,45.5,123.5,45.5z M123.6,27.6c-0.5,0-1,0-1.5,0.1
					c-4.1,0.8-6.7,4.8-5.9,8.9c0.8,4.1,4.8,6.7,8.9,5.9c2-0.4,3.7-1.5,4.8-3.2c1.1-1.7,1.5-3.7,1.1-5.7v0c-0.4-2-1.5-3.7-3.2-4.8
					C126.5,28,125,27.6,123.6,27.6z"/>
			</g>
			<path class="st2" d="M147,154.2c-4,0.8-8,0.9-11.8,0.4c13.8-5.7,23.2-19.7,22.3-35.5c-0.5-9.4-4.6-17.8-10.8-23.9
				c0-0.8,0-1.6,0-2.4c-0.5-8.4-4.7-15.7-11.1-20.3c0.6-1.9,0.8-3.9,0.7-6c-0.3-5.7-3.2-10.6-7.6-13.6c0.4-1.2,0.5-2.5,0.5-3.9
				c-0.2-3.6-2-6.7-4.6-8.7c0.8-1.4,1.2-3,1.1-4.7c-0.2-4-3-7.2-6.7-8.2c0.8-0.5,1.8-0.9,2.8-1.1c4.9-1,9.6,2.2,10.5,7.1
				c0.3,1.7,0.2,3.3-0.4,4.8c2.9,1.6,5.1,4.5,5.8,8c0.3,1.3,0.3,2.7,0.1,3.9c4.7,2.4,8.3,6.9,9.4,12.5c0.4,2.1,0.4,4.1,0.2,6.1
				c6.9,3.7,12.1,10.3,13.8,18.5c0.2,0.8,0.3,1.6,0.4,2.4c7,5.2,12.2,12.9,14,22.1C179.4,131.3,166.7,150.3,147,154.2z"/>
		</g>
		<path class="st2" d="M294.5,234.6c-9.5,22.5-30,66.4-78.4,73.4c-5.1,0.7-9.5,1.3-13.3,1.8c-32.5,4.1-22.3-0.1-31.7,1.2
			c-10.5,1.5-22.5,9.5-54.4-10c0,0-8.2-2.8-18.5-8c5.3-0.8,11.3,0.9,16.3,1.8c10.8,2,21.6,3.7,32.5,4.7c12.3,1.1,24.7,1.4,37,0
			c29.2-3.3,58.6-17,73.7-42.2c9.1-15.2,12.2-33.4,11.4-51c-0.8-17.7-5.4-34.9-10.9-51.7c-1.1-3.5-2.4-7-2.4-10.7
			c0-5.9,9.7-6.2,12.8-11.3c6-10.1,5.3-25.3,11.3-35.4c0.7-1.1,1.3-2.2,2.1-3.3c-0.2,1.5-0.3,3.1-0.4,4.6c-0.1,0.9-0.1,1.8-0.2,2.7
			c-0.2,4.6-0.2,9.3-0.5,14c-0.4,9.1-1.6,18-6.7,25.3c2.6,4.6,4.8,9.4,6.3,14.4C289.6,184.7,304,212.1,294.5,234.6z"/>
		<circle class="st4" cx="99.8" cy="207.5" r="3.7"/>
		<circle class="st4" cx="187.7" cy="211.7" r="3.7"/>
	</g>
</g>
</svg>
