<?xml version="1.0" encoding="utf-8"?>
<!-- Generator: Adobe Illustrator 27.1.1, SVG Export Plug-In . SVG Version: 6.00 Build 0)  -->
<svg version="1.1" id="Calque_1" xmlns="http://www.w3.org/2000/svg" xmlns:xlink="http://www.w3.org/1999/xlink" x="0px" y="0px"
	 viewBox="0 0 340 340" style="enable-background:new 0 0 340 340;" xml:space="preserve">
<style type="text/css">
	.st0{fill:none;}
	.st1{fill:#22242B;}
	.st2{opacity:0.2;}
	.st3{fill:#00BCD4;}
	.st4{fill:#FFFFFF;}
	.st5{fill:#584464;}
	.st6{fill:#F3DBCE;stroke:#000000;stroke-width:5;stroke-miterlimit:10;}
	.st7{fill:#A67D65;stroke:#000000;stroke-width:5;stroke-miterlimit:10;}
	.st8{fill:#6CC09A;stroke:#000000;stroke-width:5;stroke-miterlimit:10;}
	.st9{fill:#E8E8E7;stroke:#000000;stroke-width:5;stroke-miterlimit:10;}
	.st10{fill:#22242B;stroke:#000000;stroke-width:5;stroke-miterlimit:10;}
	.st11{opacity:0.2;stroke:#000000;stroke-width:5;stroke-miterlimit:10;}
	.st12{fill:#00BCD4;stroke:#000000;stroke-width:5;stroke-miterlimit:10;}
	.st13{fill:none;stroke:#000000;stroke-width:5;stroke-miterlimit:10;}
	.st14{fill:#5F3E60;}
	.st15{fill:none;stroke:#313333;stroke-width:5;stroke-miterlimit:10;}
	.st16{fill:#313333;}
	.st17{fill:#6D7172;stroke:#000000;stroke-width:5;stroke-miterlimit:10;}
	.st18{fill:#FAE21F;}
	.st19{opacity:0.15;clip-path:url(#SVGID_00000103970189152825531320000015079378720868401560_);fill:#FAE21F;}
	.st20{opacity:0.2;clip-path:url(#SVGID_00000170968072399041295050000012565427854953310908_);fill:#FAE21F;}
	.st21{opacity:0.1;clip-path:url(#SVGID_00000062889523127242903760000000244256378130624134_);fill:#FAE21F;}
	.st22{clip-path:url(#SVGID_00000094577021129386936410000015426209658909661353_);fill:#FAE21F;}
	.st23{opacity:0.13;clip-path:url(#SVGID_00000129201473982462220140000013744743397916684941_);fill:#FAE21F;}
	.st24{opacity:0.1;clip-path:url(#SVGID_00000145754980755626327550000003175919495362591619_);fill:#FAE21F;}
	.st25{opacity:0.1;clip-path:url(#SVGID_00000013908694261212919680000002293390722207483808_);fill:#FAE21F;}
	.st26{clip-path:url(#SVGID_00000004545616381654678180000003542321825645012390_);fill:#FAE21F;}
	.st27{clip-path:url(#SVGID_00000161631619544363805670000018235317263577898901_);fill:#FAE21F;}
	.st28{clip-path:url(#SVGID_00000051341757992934798010000005485282556173002125_);fill:#FAE21F;}
	.st29{clip-path:url(#SVGID_00000160895485721656429020000009704855433929396372_);fill:#FAE21F;}
	.st30{opacity:0.15;clip-path:url(#SVGID_00000105409125288493645370000006312532075974098576_);fill:#181919;}
	.st31{opacity:0.2;clip-path:url(#SVGID_00000136404144947876378770000017447919309841618615_);fill:#181919;}
	.st32{opacity:0.1;clip-path:url(#SVGID_00000114770309726740994330000010879800348157080967_);fill:#181919;}
	.st33{clip-path:url(#SVGID_00000147205503996353461720000005334748273679163052_);fill:#1E202E;}
	.st34{fill:#422827;}
	.st35{opacity:0.13;clip-path:url(#SVGID_00000157276736923174576060000009911334158875945401_);fill:#181919;}
	.st36{opacity:0.1;clip-path:url(#SVGID_00000046316549642454862220000000412870695485465769_);fill:#181919;}
	.st37{opacity:0.1;clip-path:url(#SVGID_00000085940882473490531740000008782447511810820006_);fill:#181919;}
	.st38{clip-path:url(#SVGID_00000050627834791735984210000011027848608905404561_);fill:#1E202E;}
	.st39{clip-path:url(#SVGID_00000137846526267570060750000003247647959422672512_);fill:#1E202E;}
	.st40{fill:#DE3942;}
	.st41{fill:#18181E;}
	.st42{clip-path:url(#SVGID_00000115485534902359246400000017423448520537632423_);fill:#FFFFFF;}
	.st43{clip-path:url(#SVGID_00000019640794882513634460000016253477023850008235_);fill:#FFFFFF;}
	.st44{fill:#242258;}
	.st45{fill:#EF548B;}
	.st46{fill:#0087A3;}
	.st47{fill:#37C093;}
	.st48{fill:#FF3D00;}
	.st49{fill:#EF548B;stroke:#000000;stroke-width:5;stroke-miterlimit:10;}
	.st50{fill:#F7EFEB;stroke:#000000;stroke-width:5;stroke-miterlimit:10;}
	.st51{fill:#E83131;}
	.st52{fill:#A94141;}
	.st53{fill:#E94949;}
	.st54{fill:#825626;stroke:#000000;stroke-width:5;stroke-miterlimit:10;}
	.st55{opacity:0.72;fill:#D9B29C;}
	.st56{stroke:#000000;stroke-width:5;stroke-miterlimit:10;}
	.st57{fill:#FFFFFF;stroke:#000000;stroke-width:5;stroke-miterlimit:10;}
	.st58{fill:#E94949;stroke:#000000;stroke-width:5;stroke-miterlimit:10;}
	.st59{fill:#37C093;stroke:#000000;stroke-width:5;stroke-miterlimit:10;}
	.st60{fill:#825626;}
	.st61{fill:#F7EFEB;}
	.st62{fill:#EAF286;}
	.st63{fill:#50FA7B;}
	.st64{fill:#8AE9FD;}
	.st65{fill:#FF79C6;}
	.st66{fill:#BE93F9;}
	.st67{fill:#00A7D9;}
	.st68{fill:#BE93F9;stroke:#000000;stroke-width:5;stroke-miterlimit:10;}
	.st69{fill:#FF79C6;stroke:#000000;stroke-width:5;stroke-miterlimit:10;}
	.st70{fill:#8AE9FD;stroke:#000000;stroke-width:5;stroke-miterlimit:10;}
	.st71{fill:#50FA7B;stroke:#000000;stroke-width:5;stroke-miterlimit:10;}
	.st72{fill:#EAF286;stroke:#000000;stroke-width:5;stroke-miterlimit:10;}
	.st73{opacity:0.15;clip-path:url(#SVGID_00000139983074056050229330000014998419171852848285_);fill:#FAE21F;}
	.st74{opacity:0.2;clip-path:url(#SVGID_00000033350065888928765680000007136039902915136667_);fill:#FAE21F;}
	.st75{opacity:0.1;clip-path:url(#SVGID_00000180356428337121595620000008746021510847890586_);fill:#FAE21F;}
	.st76{clip-path:url(#SVGID_00000163067324013238011680000013698903195144501668_);fill:#FAE21F;}
	.st77{opacity:0.13;clip-path:url(#SVGID_00000101082439596377637620000018317432736336578433_);fill:#FAE21F;}
	.st78{opacity:0.1;clip-path:url(#SVGID_00000085218697268649754310000013853302316143149964_);fill:#FAE21F;}
	.st79{opacity:0.1;clip-path:url(#SVGID_00000001627223727551904200000016485312571389581982_);fill:#FAE21F;}
	.st80{clip-path:url(#SVGID_00000042009935235183712640000004449525417136105406_);fill:#FAE21F;}
	.st81{clip-path:url(#SVGID_00000124857753858764092750000016250243862953877676_);fill:#FAE21F;}
	.st82{clip-path:url(#SVGID_00000023263239943683075390000000890195506606831507_);fill:#FAE21F;}
	.st83{clip-path:url(#SVGID_00000116205542766050291260000015066720333400863384_);fill:#FAE21F;}
	.st84{opacity:0.15;clip-path:url(#SVGID_00000145023750242234797610000009412957839511031955_);fill:#181919;}
	.st85{opacity:0.2;clip-path:url(#SVGID_00000168830462698986546850000016344032646203736972_);fill:#181919;}
	.st86{opacity:0.1;clip-path:url(#SVGID_00000050660089014493003250000000995184927479610243_);fill:#181919;}
	.st87{clip-path:url(#SVGID_00000130632317527669359980000016815916902547379085_);fill:#1E202E;}
	.st88{opacity:0.13;clip-path:url(#SVGID_00000122710374276143281640000002806395789721156524_);fill:#181919;}
	.st89{opacity:0.1;clip-path:url(#SVGID_00000008843755833545253280000003820226971870158499_);fill:#181919;}
	.st90{opacity:0.1;clip-path:url(#SVGID_00000050623594954102081540000000071526748668054195_);fill:#181919;}
	.st91{clip-path:url(#SVGID_00000180331788948050249000000016283063275146034111_);fill:#1E202E;}
	.st92{clip-path:url(#SVGID_00000140699184489539659530000001204742410022431422_);fill:#1E202E;}
	.st93{clip-path:url(#SVGID_00000031921218967343119530000003831367949878119303_);fill:#FFFFFF;}
	.st94{clip-path:url(#SVGID_00000147221998029584762120000007845644659322801317_);fill:#FFFFFF;}
	.st95{opacity:0.15;clip-path:url(#SVGID_00000173856764124891557620000002033232712384574636_);fill:#FAE21F;}
	.st96{opacity:0.2;clip-path:url(#SVGID_00000134958437949520739160000003243135602267201965_);fill:#FAE21F;}
	.st97{opacity:0.1;clip-path:url(#SVGID_00000129194775431256875870000004489439779202603158_);fill:#FAE21F;}
	.st98{clip-path:url(#SVGID_00000146467912743624227240000014641767731242262692_);fill:#FAE21F;}
	.st99{opacity:0.13;clip-path:url(#SVGID_00000149355274391230532860000013516246547193629584_);fill:#FAE21F;}
	.st100{opacity:0.1;clip-path:url(#SVGID_00000123432947517347703480000004125891305300899752_);fill:#FAE21F;}
	.st101{opacity:0.1;clip-path:url(#SVGID_00000163771739888664776270000016762675249391022509_);fill:#FAE21F;}
	.st102{clip-path:url(#SVGID_00000135663069203300010530000005585047307169890454_);fill:#FAE21F;}
	.st103{clip-path:url(#SVGID_00000171679757894446048660000012897827799566322098_);fill:#FAE21F;}
	.st104{clip-path:url(#SVGID_00000085939641799136520690000002350786025490170516_);fill:#FAE21F;}
	.st105{clip-path:url(#SVGID_00000098219885130680650910000014239114002041732796_);fill:#FAE21F;}
	.st106{opacity:0.15;clip-path:url(#SVGID_00000178910515924441578030000003365827046730736305_);fill:#181919;}
	.st107{opacity:0.2;clip-path:url(#SVGID_00000116953644124040963340000012759375244864266154_);fill:#181919;}
	.st108{opacity:0.1;clip-path:url(#SVGID_00000150822043187883192690000007949767716926648724_);fill:#181919;}
	.st109{clip-path:url(#SVGID_00000003794285935274894900000016988222622047113611_);fill:#1E202E;}
	.st110{opacity:0.13;clip-path:url(#SVGID_00000057846492396889262330000016140556901966069645_);fill:#181919;}
	.st111{opacity:0.1;clip-path:url(#SVGID_00000150068851475662065150000012328978112344387744_);fill:#181919;}
	.st112{opacity:0.1;clip-path:url(#SVGID_00000072989893653538481880000016854756134821724568_);fill:#181919;}
	.st113{clip-path:url(#SVGID_00000048486995104199168010000017598965623048742330_);fill:#1E202E;}
	.st114{clip-path:url(#SVGID_00000065782625062643724770000005689948550914621853_);fill:#1E202E;}
	.st115{clip-path:url(#SVGID_00000153696521201591655720000016189870363644478368_);fill:#FFFFFF;}
	.st116{clip-path:url(#SVGID_00000072978096850674448430000014939477077454034318_);fill:#FFFFFF;}
	.st117{fill:#F3DBCE;}
	.st118{fill:#E8E8E7;}
	.st119{fill:#6D7172;}
	.st120{opacity:0.15;clip-path:url(#SVGID_00000171711354161228682410000016199014792116746381_);fill:#FAE21F;}
	.st121{opacity:0.2;clip-path:url(#SVGID_00000079470588980376755010000005768965974561761181_);fill:#FAE21F;}
	.st122{opacity:0.1;clip-path:url(#SVGID_00000078019388561359200040000011046935494546233242_);fill:#FAE21F;}
	.st123{clip-path:url(#SVGID_00000120552353714695661690000008772329858212933802_);fill:#FAE21F;}
	.st124{opacity:0.13;clip-path:url(#SVGID_00000178175113299177453280000007173543779915144125_);fill:#FAE21F;}
	.st125{opacity:0.1;clip-path:url(#SVGID_00000126315194846969182420000009640611766626321572_);fill:#FAE21F;}
	.st126{opacity:0.1;clip-path:url(#SVGID_00000111892899753600993920000011415204851188891839_);fill:#FAE21F;}
	.st127{clip-path:url(#SVGID_00000020389668034630423200000012699106639763412101_);fill:#FAE21F;}
	.st128{clip-path:url(#SVGID_00000121251573193560211650000000489205188698664097_);fill:#FAE21F;}
	.st129{clip-path:url(#SVGID_00000003072863620288042320000007159198245006193319_);fill:#FAE21F;}
	.st130{clip-path:url(#SVGID_00000000192679594354559300000005701636953835838599_);fill:#FAE21F;}
	.st131{opacity:0.15;clip-path:url(#SVGID_00000070828306430362604080000017462852888743741598_);fill:#181919;}
	.st132{opacity:0.2;clip-path:url(#SVGID_00000071558646452163205010000005125940651592194219_);fill:#181919;}
	.st133{opacity:0.1;clip-path:url(#SVGID_00000002350399210831193420000014900480156758349234_);fill:#181919;}
	.st134{clip-path:url(#SVGID_00000149377889367214039730000009481350046135693971_);fill:#1E202E;}
	.st135{opacity:0.13;clip-path:url(#SVGID_00000126296994638702407040000004008250922330129066_);fill:#181919;}
	.st136{opacity:0.1;clip-path:url(#SVGID_00000010276139694722262220000012401402571341950596_);fill:#181919;}
	.st137{opacity:0.1;clip-path:url(#SVGID_00000093863745050223931580000007602970687987994025_);fill:#181919;}
	.st138{clip-path:url(#SVGID_00000018234895523055513280000006241265959332822154_);fill:#1E202E;}
	.st139{clip-path:url(#SVGID_00000165217885723985118930000012615506267231096745_);fill:#1E202E;}
	.st140{clip-path:url(#SVGID_00000101102994450158270670000015278919086961499014_);fill:#FFFFFF;}
	.st141{clip-path:url(#SVGID_00000056409324752925584440000010696861692175983020_);fill:#FFFFFF;}
	.st142{fill:#333333;stroke:#000000;stroke-width:5;stroke-miterlimit:10;}
	.st143{fill:#E34B4E;stroke:#000000;stroke-width:5;stroke-miterlimit:10;}
	.st144{fill:#333333;}
	.st145{fill:#E34B4E;}
	.st146{opacity:0.15;clip-path:url(#SVGID_00000014634016108093909840000010665090062449866683_);fill:#FAE21F;}
	.st147{opacity:0.2;clip-path:url(#SVGID_00000108293035720408968060000018050818392616657578_);fill:#FAE21F;}
	.st148{opacity:0.1;clip-path:url(#SVGID_00000119826012787156208880000015193610459185257608_);fill:#FAE21F;}
	.st149{clip-path:url(#SVGID_00000151543651521695213120000002529050116286861993_);fill:#FAE21F;}
	.st150{opacity:0.13;clip-path:url(#SVGID_00000041253856639176645290000010782241155817312420_);fill:#FAE21F;}
	.st151{opacity:0.1;clip-path:url(#SVGID_00000100342701099281642720000011214128129413671303_);fill:#FAE21F;}
	.st152{opacity:0.1;clip-path:url(#SVGID_00000093890489127958238310000006296411589912733334_);fill:#FAE21F;}
	.st153{clip-path:url(#SVGID_00000137837695581353665220000001544118396349819801_);fill:#FAE21F;}
	.st154{clip-path:url(#SVGID_00000080907860203144532790000002583642238098931899_);fill:#FAE21F;}
	.st155{clip-path:url(#SVGID_00000088826400102842154120000002884207229153872820_);fill:#FAE21F;}
	.st156{clip-path:url(#SVGID_00000085972472494599488570000016513182029087750325_);fill:#FAE21F;}
	.st157{opacity:0.15;clip-path:url(#SVGID_00000017478740237824220200000009576027721055414407_);fill:#181919;}
	.st158{opacity:0.2;clip-path:url(#SVGID_00000119075305141191225290000010452570024624072864_);fill:#181919;}
	.st159{opacity:0.1;clip-path:url(#SVGID_00000001631655562229670600000006715606589912033195_);fill:#181919;}
	.st160{clip-path:url(#SVGID_00000069364461265958799670000000974214632759113125_);fill:#1E202E;}
	.st161{opacity:0.13;clip-path:url(#SVGID_00000047780232391351755700000013794947602294223772_);fill:#181919;}
	.st162{opacity:0.1;clip-path:url(#SVGID_00000116226894989947291760000009771945593374741943_);fill:#181919;}
	.st163{opacity:0.1;clip-path:url(#SVGID_00000160174835232336158480000009099665209701154725_);fill:#181919;}
	.st164{clip-path:url(#SVGID_00000076601032573791603090000005249865251257695891_);fill:#1E202E;}
	.st165{clip-path:url(#SVGID_00000110439483874769492060000007669154099702470845_);fill:#1E202E;}
	.st166{clip-path:url(#SVGID_00000035531019710637771390000015550302073994057908_);fill:#FFFFFF;}
	.st167{clip-path:url(#SVGID_00000016041474506988602970000004229508785272859294_);fill:#FFFFFF;}
	.st168{opacity:0.66;fill:#FFFFFF;stroke:#000000;stroke-width:5;stroke-miterlimit:10;}
	.st169{fill:#EAF2DC;stroke:#000000;stroke-width:5;stroke-miterlimit:10;}
	.st170{fill:#A94141;stroke:#000000;stroke-width:5;stroke-miterlimit:10;}
	.st171{fill:#E8E8E7;stroke:#6D7172;stroke-width:5;stroke-miterlimit:10;}
	.st172{fill:#E2BFA9;}
	.st173{fill:#A67D65;}
	.st174{fill:#D9B29C;}
	.st175{opacity:0.11;fill:#FFFFFF;}
	.st176{opacity:0.15;clip-path:url(#SVGID_00000071531605233147504430000001121303747005613952_);fill:#FAE21F;}
	.st177{opacity:0.2;clip-path:url(#SVGID_00000103954957598462542580000013933242821822440591_);fill:#FAE21F;}
	.st178{opacity:0.1;clip-path:url(#SVGID_00000163780365625880012640000013210835503511143081_);fill:#FAE21F;}
	.st179{clip-path:url(#SVGID_00000063607762809650517580000017412656549326619025_);fill:#FAE21F;}
	.st180{opacity:0.13;clip-path:url(#SVGID_00000146463394800982051960000016682554567265734065_);fill:#FAE21F;}
	.st181{opacity:0.1;clip-path:url(#SVGID_00000023272944383658991880000014561802851535788189_);fill:#FAE21F;}
	.st182{opacity:0.1;clip-path:url(#SVGID_00000139277182779820442250000002526890635905411512_);fill:#FAE21F;}
	.st183{clip-path:url(#SVGID_00000171698294079450528620000004572132555753905816_);fill:#FAE21F;}
	.st184{clip-path:url(#SVGID_00000067931410523948621640000014868324053986589098_);fill:#FAE21F;}
	.st185{clip-path:url(#SVGID_00000065060969670552618310000003663776717293343887_);fill:#FAE21F;}
	.st186{clip-path:url(#SVGID_00000135659713708027149990000015146556003065843075_);fill:#FAE21F;}
	.st187{opacity:0.15;clip-path:url(#SVGID_00000039821975132772205710000015452433299080218291_);fill:#181919;}
	.st188{opacity:0.2;clip-path:url(#SVGID_00000062181554520712768520000014317210887459570304_);fill:#181919;}
	.st189{opacity:0.1;clip-path:url(#SVGID_00000168079003065444092980000008144133911284772762_);fill:#181919;}
	.st190{clip-path:url(#SVGID_00000097497095673808914040000015586487966889518994_);fill:#1E202E;}
	.st191{opacity:0.13;clip-path:url(#SVGID_00000091698957864714639310000001905322788519515286_);fill:#181919;}
	.st192{opacity:0.1;clip-path:url(#SVGID_00000108294246057671946350000003561738471737105557_);fill:#181919;}
	.st193{opacity:0.1;clip-path:url(#SVGID_00000055695638339124267310000003571157286878607507_);fill:#181919;}
	.st194{clip-path:url(#SVGID_00000160874304660571431970000007942629895912898486_);fill:#1E202E;}
	.st195{clip-path:url(#SVGID_00000049192415324681858180000010563517696976052660_);fill:#1E202E;}
	.st196{clip-path:url(#SVGID_00000135682618828395983360000017053727343340659098_);fill:#FFFFFF;}
	.st197{clip-path:url(#SVGID_00000023959246349318793930000002684297430762828940_);fill:#FFFFFF;}
	.st198{fill:#AD6632;stroke:#000000;stroke-width:5;stroke-miterlimit:10;}
	.st199{fill:#FF6464;}
	.st200{fill:#FFFFFF;stroke:#000000;stroke-width:3;stroke-miterlimit:10;}
	.st201{fill:#EAF286;stroke:#000000;stroke-width:3;stroke-miterlimit:10;}
	.st202{fill:#E94949;stroke:#000000;stroke-width:3;stroke-miterlimit:10;}
	.st203{fill:#FFD11D;stroke:#000000;stroke-width:3;stroke-miterlimit:10;}
	.st204{fill:#8AE9FD;stroke:#000000;stroke-width:3;stroke-miterlimit:10;}
	.st205{fill:#FFB44B;stroke:#000000;stroke-width:3;stroke-miterlimit:10;}
	.st206{fill:none;stroke:#000000;stroke-width:2;stroke-miterlimit:10;}
	.st207{fill:#0A0B0C;stroke:#000000;stroke-width:5;stroke-miterlimit:10;}
	.st208{fill:#FFDDAA;stroke:#000000;stroke-width:5;stroke-miterlimit:10;}
	.st209{fill:#EAEAEA;}
	.st210{opacity:0.18;fill:#FFFFFF;}
	.st211{opacity:0.5;fill:#FFFFFF;}
	.st212{opacity:0.83;fill:#FFFFFF;}
	.st213{fill:#EC7525;}
	.st214{fill:#225EA5;}
	.st215{fill:#103051;stroke:#000000;stroke-width:4;stroke-miterlimit:10;}
	.st216{fill:#E63E6B;}
</style>
<g>
	<path class="st0" d="M293.8,239.2c-0.5,0-1,0-1.4,0c-0.2,0-0.3,0-0.5,0c-0.1,0-0.2,0-0.3,0c-0.2,0-0.4,0-0.6,0c-0.2,0-0.4,0-0.6,0
		c-0.3,0-0.6,0-1,0.1c-0.5,0-1,0.1-1.5,0.2c-0.8,0.1-1.6,0.2-2.4,0.4c-0.5,0.1-0.9,0.2-1.4,0.4c0,0,0,0,0,0
		c-0.3,0.1-0.6,0.2-0.9,0.2c-0.2,0-0.4,0.1-0.5,0.2c0,0,0,0,0,0c-0.5,0.1-0.9,0.3-1.3,0.5c-3,1.2-5.8,2.8-8.2,4.9
		c-1,0.9-2,1.9-2.9,2.9c-0.4,0.4-0.7,0.8-1.1,1.2c-0.4,0.4-0.7,0.9-1.1,1.3"/>
	<g>
		<path class="st1" d="M90.3,143.6c-5.4,3.8-11.2,7-17.6,8.9c-0.1,0-0.2,0.1-0.3,0.1c0.1-0.3,0.2-0.5,0.3-0.7
			c-0.1-2.5-1.4-6.2-5-11.5c-4-5.9-14-30.1-22.9-58.8c0.6,0.7,1.3,1.3,1.9,2c1.8,2.2,3,5,4.2,7.6c7.6,16.6,19.6,30.8,31.3,44.7
			c2.2,2.6,4.1,5.8,7.2,7.4C89.5,143.4,89.9,143.5,90.3,143.6z"/>
		<g>
			<g>
				<path class="st1" d="M93.8,144.3c-5.4,3.8-11.2,7-17.6,8.9c-0.1,0-0.2,0.1-0.3,0.1c-0.1,0-0.3,0.1-0.4,0.1
					c-0.1,0-0.2,0.1-0.3,0.1c-0.1,0-0.2,0-0.3,0.1c-0.1,0-0.2,0-0.3,0c-0.1,0-0.2,0-0.3,0c-0.1,0-0.2,0-0.3,0c-0.3,0-1,2-1.3,1.9
					c-0.9-0.3-1.2-2.9-1.8-3.6c0,0-0.1-0.1-0.1-0.1c-6.1-6.5-8.7-15.1-10.5-24c-0.9-4.6-3.8-12-5.3-16.4c-4.6-12.9-8.8-22.1-12-35.8
					c0.3,0.1,0.7,0.1,1,0.2c1,1.6,1.7,3.3,2.9,4.8c0.4,0.6,0.9,1.1,1.4,1.6c0.6,0.7,1.3,1.3,1.9,2c1.8,2.2,3,5,4.2,7.6
					c7.6,16.6,19.6,30.8,31.3,44.7c2.2,2.6,4.1,5.8,7.2,7.4C93,144.1,93.4,144.2,93.8,144.3z"/>
				<path d="M72.8,156.9c-0.1,0-0.3,0-0.5-0.1c-1.2-0.4-1.6-1.7-2.1-2.9c-0.1-0.4-0.3-0.9-0.4-1.1c0,0,0,0,0,0
					c-6.6-6.9-9.1-16-10.9-24.7c-0.8-3.8-3-9.8-4.5-14.2c-0.3-0.7-0.5-1.4-0.7-2c-1.2-3.3-2.4-6.4-3.5-9.4
					C46.9,93.8,44,86.3,41.6,76l-0.5-2.2l2.3,0.5c0.3,0.1,0.6,0.1,0.9,0.2l0.6,0.1l0.3,0.5c0.4,0.6,0.7,1.2,1,1.8
					c0.6,1,1.1,2,1.8,2.9c0.4,0.5,0.9,1,1.3,1.5l0.4,0.4c0.5,0.5,1.1,1.1,1.6,1.7c1.7,2.1,2.9,4.6,3.9,7l0.4,1
					c7.6,16.6,19.6,30.7,31.1,44.4c0.5,0.6,1.1,1.3,1.6,2c1.6,2.1,3.1,4,5.2,5.1c0.1,0,0.3,0.1,0.5,0.2l2.9,0.9l-2.3,1.6
					c-6.1,4.3-12,7.3-18,9.1l-0.3,0.1c-0.2,0-0.3,0.1-0.5,0.1c-0.1,0-0.2,0.1-0.4,0.1c-0.1,0-0.2,0-0.3,0.1c-0.1,0-0.2,0-0.3,0
					c0,0.1-0.1,0.2-0.1,0.2C74.3,155.9,73.7,156.9,72.8,156.9z M46.1,81.9c2,7,4.3,13,6.8,19.7c1.1,3,2.3,6.1,3.5,9.4
					c0.2,0.6,0.5,1.3,0.7,2c1.6,4.4,3.8,10.5,4.7,14.6c1.7,8.3,4.1,16.9,10.1,23.3c0,0,0,0,0.1,0.1c0.4,0.5,0.7,1.1,0.9,1.8
					c0.3-0.3,0.7-0.6,1.2-0.6c0.1,0,0.1,0,0.2,0c0.1,0,0.1,0,0.2,0l0.1,0c0,0,0.1,0,0.1,0l0.1,0c0,0,0.1,0,0.1,0l0.1,0
					c0.1,0,0.1,0,0.2,0l0.1,0c0.1,0,0.2-0.1,0.4-0.1l0.3-0.1c5-1.5,10-3.9,15.1-7.3c-2-1.4-3.5-3.2-4.9-5.1c-0.5-0.7-1-1.3-1.5-1.9
					C72.9,123.7,60.8,109.4,53,92.5l-0.4-1c-1.1-2.3-2-4.5-3.6-6.3c-0.4-0.5-0.9-1-1.4-1.5l-0.4-0.4C46.8,82.8,46.5,82.4,46.1,81.9z
					"/>
			</g>
		</g>
		<g class="st2">
			<path d="M93.8,144.3c-5.4,3.8-11.2,7-17.6,8.9c-0.1,0-0.2,0.1-0.3,0.1c-0.1,0-0.3,0.1-0.4,0.1c-0.1,0-0.2,0.1-0.3,0.1
				c-0.1,0-0.2,0-0.3,0.1c-0.1,0-0.2,0-0.3,0c-0.1,0-0.2,0-0.3,0c-0.1,0-0.2,0-0.3,0c-0.3,0-1,2-1.3,1.9c-0.9-0.3-1.2-2.9-1.8-3.6
				c0,0-0.1-0.1-0.1-0.1c-6.1-6.5-8.7-15.1-10.5-24c-0.9-4.6-3.8-12-5.3-16.4c-4.6-12.9-8.8-22.1-12-35.8c0.3,0.1,0.7,0.1,1,0.2
				c1,1.6,1.7,3.3,2.9,4.8c0.4,0.6,0.9,1.1,1.4,1.6c0.6,0.7,1.3,1.3,1.9,2c1.8,2.2,3,5,4.2,7.6c7.6,16.6,19.6,30.8,31.3,44.7
				c2.2,2.6,4.1,5.8,7.2,7.4C93,144.1,93.4,144.2,93.8,144.3z"/>
		</g>
		<g>
			<path class="st3" d="M294.6,233.8c-9.5,22.5-30,66.4-78.4,73.4c-5.1,0.7-9.5,1.3-13.3,1.8c-32.5,4.1-22.3-0.1-31.7,1.2
				c-0.6,0.1-1.2,0.2-1.7,0.3c-10.1,2-22.5,8.1-52.7-10.3c0,0-8.2-2.8-18.5-8c-6-3-12.7-6.9-18.9-11.5c-17-12.5-22.5-31-19.5-64.4
				c0,0-0.8-16.8,1-27.2c2.1-12,2-17.2,5.5-23.6c0.5-0.9,1.1-2,1.7-3.2c0.6-1.2,1.2-2.6,1.9-4c0.6-1.2,1.1-2.5,1.7-3.7
				c-0.1-0.1-0.2-0.2-0.3-0.2c3.1-5.2,5.4-10.8,6.9-16.7c0.4-1.5,0.7-3.5,0.8-5.4c-10.7-12.8-21.2-25.9-28.2-41
				c-1.2-2.6-2.3-5.4-4.2-7.6c-0.6-0.7-1.2-1.4-1.9-2c-0.6-1.9-1.2-3.9-1.8-5.9c7.6,1.5,15.2,3.3,22.8,5.2c0.9,0.2,1.9,0.5,2.8,0.7
				c3.2,0.8,6.5,1.7,9.8,2.6c0.6,0.2,1.3,0.3,1.9,0.5c5.8,1.6,11.6,3.2,17.4,5.1c7.3,2.4,14.5,5.1,21.1,8.3c0.6,0.3,1.2,0.6,1.7,1
				c0.8,0.6,1.4,1.3,1.9,2.1c4.3-1.8,9.3-3.3,14.9-4.6c2.1-0.5,4.2-0.9,6.5-1.3c12-2.1,26.8-3,45-1.7c7.7,0.5,16.1,1.4,25.1,2.8
				c0.4-0.4,0.9-0.9,1.5-1.3c0.8-0.6,1.6-1.1,2.4-1.7c10.3-6.8,22-12.4,33.6-17.5c3.3-1.5,6.6-2.9,9.8-4.3c0.4-0.2,0.9-0.4,1.3-0.6
				c6.4-2.8,12.9-5.4,19.4-7.9c2.4-0.9,4.9-1.8,7.3-2.7c0.3-0.1,0.7-0.2,1-0.4c-1.2,2.9-2.2,5.9-3.2,9c-0.6,1.9-1.1,3.7-1.6,5.6
				c-1.6,6-2.7,12.2-3.4,18.4c-0.2,1.5-0.3,3.1-0.4,4.6c-0.1,0.9-0.1,1.8-0.2,2.7c-0.2,4.6-0.2,9.3-0.5,14c-0.1,2.1-0.2,4.1-0.4,6.1
				c-0.7,6.9-2.3,13.5-6.3,19.2c2.6,4.6,4.8,9.4,6.3,14.4c0.2,0.8,0.5,1.6,0.7,2.4c0,0,0,0,0,0c4.5,14.5,10.1,28.3,13.4,41.3
				C298.1,210.7,299.2,222.8,294.6,233.8z"/>
			<g>
				<g>
					<g>
						<circle class="st1" cx="130.6" cy="136.2" r="19.6"/>
						<path d="M137.7,155.4c-3.8,1.4-7.9,1.7-11.9,0.7c-5.3-1.3-9.8-4.6-12.7-9.2c-5.9-9.6-2.9-22.3,6.8-28.2
							c9.6-5.9,22.3-2.9,28.2,6.8l0,0c5.9,9.6,2.9,22.3-6.8,28.2C140.2,154.4,138.9,155,137.7,155.4z M124.1,118.6
							c-1.1,0.4-2.2,0.9-3.3,1.6c-8.8,5.4-11.6,17-6.2,25.8c5.4,8.8,17,11.6,25.8,6.2c8.8-5.4,11.6-17,6.2-25.8
							C141.8,118.6,132.3,115.6,124.1,118.6z"/>
					</g>
					<g>
						<circle class="st1" cx="123" cy="123.8" r="14.5"/>
						<path d="M128.3,138.3c-2.8,1.1-5.9,1.2-8.9,0.5c-4-1-7.4-3.4-9.6-6.9c-2.2-3.5-2.8-7.7-1.8-11.7c1-4,3.4-7.4,6.9-9.6
							c3.5-2.2,7.7-2.8,11.7-1.8c4,1,7.4,3.4,9.6,6.9l0,0c2.2,3.5,2.8,7.7,1.8,11.7c-1,4-3.4,7.4-6.9,9.6
							C130.2,137.5,129.3,137.9,128.3,138.3z M118.3,111c-0.8,0.3-1.6,0.7-2.4,1.2c-3.1,1.9-5.3,4.9-6.1,8.5
							c-0.9,3.5-0.3,7.2,1.6,10.3c1.9,3.1,4.9,5.3,8.5,6.1c3.5,0.9,7.2,0.3,10.3-1.6c3.1-1.9,5.3-4.9,6.1-8.5
							c0.9-3.5,0.3-7.2-1.6-10.3l0,0c-1.9-3.1-4.9-5.3-8.5-6.1C123.5,109.9,120.8,110,118.3,111z"/>
					</g>
					<g>
						<circle class="st1" cx="115.4" cy="111.4" r="9.7"/>
						<path d="M119.1,121.3c-2,0.7-4.1,0.9-6.1,0.4c-2.8-0.7-5.1-2.4-6.6-4.8c-1.5-2.4-1.9-5.3-1.3-8s2.4-5.1,4.8-6.6
							c2.4-1.5,5.3-1.9,8-1.3c2.8,0.7,5.1,2.4,6.6,4.8c1.5,2.4,1.9,5.3,1.3,8c-0.7,2.8-2.4,5.1-4.8,6.6
							C120.3,120.8,119.7,121.1,119.1,121.3z M112.4,103.1c-0.5,0.2-1.1,0.5-1.6,0.8c-2,1.2-3.4,3.2-4,5.5c-0.6,2.3-0.2,4.7,1.1,6.7
							c1.2,2,3.2,3.4,5.5,4c2.3,0.6,4.7,0.2,6.7-1.1c2-1.2,3.4-3.2,4-5.5c0.6-2.3,0.2-4.7-1.1-6.7l0,0c-1.2-2-3.2-3.4-5.5-4
							C115.8,102.4,114,102.5,112.4,103.1z"/>
					</g>
				</g>
				<g>
					<g>
						<circle class="st1" cx="183.4" cy="138.4" r="19.6"/>
						<path d="M174.4,156.8c3.6,1.8,7.7,2.5,11.7,1.9c5.4-0.7,10.3-3.5,13.6-7.8c6.9-9,5.2-21.9-3.7-28.8c-9-6.9-21.9-5.2-28.8,3.7
							l0,0c-6.9,9-5.2,21.9,3.7,28.8C172,155.5,173.2,156.2,174.4,156.8z M191.8,121.6c1.1,0.5,2.1,1.2,3.1,1.9
							c8.2,6.3,9.7,18.1,3.4,26.3c-6.3,8.2-18.1,9.7-26.3,3.4c-8.2-6.3-9.7-18.1-3.4-26.3C174.1,119.8,183.9,117.7,191.8,121.6z"/>
					</g>
					<g>
						<circle class="st1" cx="192.3" cy="126.9" r="14.5"/>
						<path d="M185.5,140.7c2.7,1.3,5.8,1.9,8.8,1.5c4.1-0.5,7.7-2.6,10.2-5.9s3.6-7.3,3.1-11.4c-0.5-4.1-2.6-7.7-5.9-10.2
							c-3.3-2.5-7.3-3.6-11.4-3.1c-4.1,0.5-7.7,2.6-10.2,5.9l0,0c-2.5,3.3-3.6,7.3-3.1,11.4c0.5,4.1,2.6,7.7,5.9,10.2
							C183.7,139.7,184.6,140.2,185.5,140.7z M198.4,114.6c0.8,0.4,1.6,0.9,2.3,1.4c2.9,2.2,4.7,5.4,5.2,9.1
							c0.5,3.6-0.5,7.2-2.7,10.1c-2.2,2.9-5.4,4.7-9.1,5.2c-3.6,0.5-7.2-0.5-10.1-2.7c-2.9-2.2-4.7-5.4-5.2-9.1
							c-0.5-3.6,0.5-7.2,2.7-10.1l0,0c2.2-2.9,5.4-4.7,9.1-5.2C193.3,113,196,113.4,198.4,114.6z"/>
					</g>
					<g>
						<circle class="st1" cx="201.2" cy="115.3" r="9.7"/>
						<path d="M196.5,124.8c1.9,0.9,4,1.3,6.1,1c2.8-0.4,5.3-1.8,7-4s2.5-5,2.1-7.8c-0.4-2.8-1.8-5.3-4-7c-2.2-1.7-5-2.5-7.8-2.1
							c-2.8,0.4-5.3,1.8-7,4c-1.7,2.2-2.5,5-2.1,7.8c0.4,2.8,1.8,5.3,4,7C195.3,124.2,195.9,124.5,196.5,124.8z M205.1,107.4
							c0.5,0.3,1,0.6,1.5,0.9c1.9,1.4,3.1,3.5,3.4,5.9c0.3,2.3-0.3,4.7-1.8,6.5c-1.4,1.9-3.5,3.1-5.9,3.4c-2.3,0.3-4.7-0.3-6.5-1.8
							c-1.9-1.4-3.1-3.5-3.4-5.9c-0.3-2.3,0.3-4.7,1.8-6.5l0,0c1.4-1.9,3.5-3.1,5.9-3.4C201.8,106.4,203.5,106.6,205.1,107.4z"/>
					</g>
				</g>
			</g>
			<path class="st2" d="M104.4,148.5c-2.2,2.4-5.3,3.7-8.4,4.7c-4.2,1.4-8.6,2.3-13.1,2.7c-2.7,0.3-5.4,0.4-8-0.5
				c-0.4-0.2-0.9-0.4-1.2-0.8c-0.3-0.4-0.3-1-0.3-1.5c0.4-5.8,3.7-11,4.8-16.8c0.4-2.1,0.5-4.4-0.8-6.1c-0.7-1-1.9-1.7-2.9-2.5
				c-2.9-2.3-4.8-5.5-6.8-8.6c-4.6-7.5-9.3-15.1-13.9-22.6c-1.2-1.9-3.2-4.4-3.7-6.6c-0.6-3.1,2.7-1.6,4.7-1.3
				c3.5,0.5,7.1,0.8,10.6,1.5c1.8,0.3,3.5,0.8,5.2,1.4c2.9,1,5.7,2.5,8.3,4.2c10.8,7.1,18.6,18.1,24.4,29.7c0.9,1.8,1.7,3.5,2.4,5.4
				c0.8,2,1.3,4.1,1.6,6.2C108.1,141.1,107.2,145.5,104.4,148.5z"/>
			<path d="M153.3,314.5c-8.6,0-20.2-2.7-37.1-13c-1.2-0.4-9-3.2-18.5-8c-7.2-3.6-13.6-7.5-19.1-11.6
				c-17.3-12.7-23.1-31.7-20.1-65.6c-0.1-1.5-0.7-17.3,1-27.4c0.5-3,0.9-5.6,1.2-7.8c1-7,1.7-11.2,4.4-16.3c0.4-0.8,0.9-1.8,1.6-3.2
				c0.5-1.1,1.2-2.4,1.9-3.9c0.4-0.9,0.8-1.8,1.2-2.7l-0.4-0.3l0.6-1c3-5.1,5.3-10.6,6.7-16.3c0.3-1.4,0.6-3,0.7-4.6
				c-10.4-12.4-21-25.7-28-40.9l-0.4-1c-1.1-2.3-2-4.5-3.6-6.3c-0.4-0.5-0.9-1-1.4-1.5l-0.6-0.6L43.4,82c-0.6-1.9-1.2-3.9-1.8-5.9
				l-0.7-2.3l2.3,0.5c7.6,1.5,15.3,3.3,22.9,5.2c0.9,0.2,1.9,0.5,2.8,0.7l1.8,0.5c2.7,0.7,5.3,1.4,8,2.1l1.9,0.5
				c4.8,1.3,11.1,3,17.4,5.1c8.2,2.7,15.2,5.4,21.3,8.4c0.7,0.4,1.4,0.7,1.9,1.2c0.6,0.4,1.1,0.9,1.5,1.5c4.4-1.7,9.1-3.1,14-4.3
				c2.2-0.5,4.4-1,6.6-1.3c13.1-2.3,28.4-2.9,45.4-1.7c7.7,0.5,16,1.4,24.6,2.7c0.4-0.3,0.7-0.6,1.2-0.9c0.8-0.6,1.6-1.1,2.5-1.7
				c10.7-7.1,23.1-12.9,33.8-17.6c2.5-1.1,4.9-2.2,7.4-3.2l2.4-1.1c0.5-0.2,0.9-0.4,1.3-0.6c6.5-2.8,13-5.5,19.5-7.9
				c2.5-1,5-1.9,7.4-2.7l4-1.4l-1.2,2.9c-1.1,2.9-2.2,5.9-3.1,8.9c-0.6,1.8-1.1,3.7-1.6,5.6c-1.6,6-2.7,12.1-3.3,18.2
				c-0.2,1.5-0.3,3-0.4,4.6c-0.1,0.9-0.1,1.8-0.2,2.6c-0.1,2.3-0.2,4.7-0.2,7.1c-0.1,2.3-0.1,4.6-0.2,6.9c-0.1,2.2-0.3,4.3-0.5,6.2
				c-0.9,8-2.8,14.1-6,19.1c2.6,4.7,4.6,9.4,6,13.9c0.2,0.8,0.5,1.6,0.7,2.4l0.1,0.2c1.8,5.8,3.8,11.4,5.7,17
				c2.9,8.4,5.7,16.4,7.7,24.2c4,15.7,4,27.1-0.2,37.1v0c-7.7,18.3-28.2,66.9-79.5,74.3c-5.1,0.7-9.4,1.3-13.3,1.8
				c-21.3,2.7-24.5,1.8-26.9,1.2c-1.1-0.3-1.8-0.5-4.8,0c-0.5,0.1-1.1,0.2-1.7,0.3c-1.1,0.2-2.2,0.5-3.5,0.8
				C162.7,313.5,158.5,314.5,153.3,314.5z M73.1,154l0.2,0.2l-0.4,1c-0.6,1.3-1.1,2.5-1.7,3.7c-0.7,1.6-1.4,2.9-1.9,4
				c-0.7,1.5-1.2,2.5-1.7,3.3c-2.5,4.6-3.1,8.7-4.1,15.3c-0.3,2.3-0.7,4.9-1.2,7.9c-1.7,10.1-1,26.8-1,26.9l0,0.1l0,0.1
				c-3,33.2,2.3,51,18.9,63.1c5.4,4,11.7,7.8,18.7,11.3c10.1,5.1,18.2,7.9,18.3,7.9l0.1,0.1l0.1,0.1c26.3,16,38.4,13.2,48.1,10.9
				c1.2-0.3,2.4-0.6,3.5-0.8c0.6-0.1,1.2-0.2,1.8-0.3c3.4-0.5,4.5-0.3,5.9,0.1c2,0.5,5,1.3,25.8-1.3c3.8-0.5,8.1-1.1,13.2-1.8
				c49.7-7.2,69.7-54.7,77.3-72.5v0c4-9.4,4-20.2,0.1-35.3c-2-7.7-4.7-15.6-7.6-24c-1.9-5.6-4-11.4-5.8-17.3l-0.1-0.2
				c-0.2-0.7-0.4-1.5-0.7-2.2c-1.4-4.6-3.5-9.4-6.1-14.1l-0.4-0.8l0.5-0.7c3.3-4.7,5.2-10.6,6-18.5c0.2-1.9,0.3-3.9,0.4-6.1
				c0.1-2.3,0.2-4.6,0.2-6.9c0.1-2.3,0.1-4.8,0.2-7.1c0-0.9,0.1-1.8,0.2-2.7c0.1-1.5,0.2-3.1,0.4-4.6c0.7-6.2,1.8-12.5,3.4-18.6
				c0.5-1.9,1-3.8,1.6-5.7c0.6-2.1,1.3-4.1,2.1-6.1c-1.8,0.6-3.6,1.3-5.4,2c-6.4,2.4-12.9,5.1-19.4,7.9c-0.4,0.2-0.9,0.4-1.3,0.6
				l-2.4,1.1c-2.4,1.1-4.9,2.1-7.3,3.2c-10.6,4.7-22.8,10.4-33.4,17.3c-0.8,0.5-1.6,1.1-2.4,1.6c-0.5,0.3-0.9,0.7-1.3,1.1l-0.5,0.5
				l-0.7-0.1c-8.7-1.3-17.1-2.2-25-2.7c-16.7-1.1-31.8-0.6-44.7,1.7c-2.1,0.4-4.3,0.8-6.4,1.3c-5.2,1.2-10.1,2.7-14.7,4.6l-1.1,0.5
				l-0.6-1.1c-0.4-0.6-0.9-1.1-1.5-1.6c-0.4-0.3-0.9-0.6-1.4-0.9c-6-2.9-12.8-5.6-20.9-8.2c-6.3-2-12.5-3.8-17.3-5.1L78,85.5
				c-2.7-0.7-5.4-1.4-8-2.1l-1.8-0.5c-0.9-0.2-1.9-0.5-2.8-0.7c-6.7-1.7-13.6-3.3-20.4-4.7c0.3,1.1,0.7,2.2,1,3.3l0.2,0.2
				c0.5,0.5,1,1.1,1.5,1.7c1.7,2.1,2.9,4.6,3.9,7l0.4,1c6.9,15,17.6,28.3,27.9,40.6l0.4,0.4l0,0.6c-0.1,1.9-0.4,4-0.8,5.7
				C78.2,143.5,76,148.9,73.1,154z"/>
		</g>
		<path class="st2" d="M88.9,214.1c-0.2,1.8-0.4,3.7-0.1,5.5c0.7,6.5,5.5,12,11.2,15.2c1.8,1,3.7,1.9,5.8,2.1
			c1.9,0.2,3.9-0.1,5.8-0.6c3.5-0.8,7.1-2.2,9.2-5.1c0.2-0.3,0.4-0.6,0.4-1c0-0.6-0.7-1-1.3-1.3c-4.6-1.9-9.2-3.8-13.7-5.7
			c-2.7-1.1-5.4-2.3-7.5-4.2c-0.5-0.4-0.9-0.9-1.1-1.4c-0.3-0.8-0.2-1.6-0.1-2.5c0.2-2-0.1-3.9-0.4-5.9c-0.4-2.6-0.8-5.2-1.2-7.9
			c-0.5-3.1-0.9-4.3-2.6-0.9C90.9,204.8,89.5,209.4,88.9,214.1z"/>
		<path class="st2" d="M178.2,241.4c9,2.3,18.9,0.5,26.7-4.5c4.5-2.9,5.7-7.9,6.7-13.2c1.4-7.7,1.3-9.4-3.9-15.3
			c-2.7-3-5.3-6.1-8-9.1c-1.5-1.8-3.2-3.6-5.4-4.4c-2.2-0.8-4.7-0.5-7.1-0.2c-3.2,0.5-5.7,2.5-8.9,2.9c-1,0.1-1.5-0.5-2.4,0
			c-3.5,2-3.9,7-6.7,9.9c-1.1,1.1-2.6,1.6-3.7,2.7c-1.6,1.6-2,3.8-3.1,5.7c-0.8,1.4-2.1,1.7-2.9,3.1c-1.9,3.7,0,8.9,1.9,12.2
			C165.4,238.5,170.1,239.3,178.2,241.4z"/>
		<g>
			<path class="st4" d="M195.6,230.5c-6,4.7-28.2,12.2-34.7-12c0,0,1.2-2.3,3.3-5.5c3.1-4.7,8.1-11.4,14.2-15.5
				c3.7-2.5,7.8-4.1,12-3.7C206.1,195.3,206.3,222.1,195.6,230.5z"/>
			<g>
				<path d="M189.1,208.6c0,6.2-5.8,11.2-13,11.2c-5.3,0-9.9-2.8-11.9-6.8c3.1-4.7,8.1-11.4,14.2-15.5
					C184.5,198.4,189.1,203.1,189.1,208.6z"/>
				<path d="M176.1,220.4c-5.4,0-10.3-2.8-12.5-7.1l-0.1-0.3l0.2-0.3c3.2-4.9,8.3-11.5,14.3-15.7l0.2-0.1l0.2,0
					c6.5,1,11.3,5.9,11.3,11.6C189.7,215.1,183.6,220.4,176.1,220.4z M164.8,213.1c2,3.8,6.4,6.2,11.3,6.2c6.9,0,12.4-4.8,12.4-10.7
					c0-5.1-4.2-9.5-10.1-10.5C172.8,202.1,168,208.4,164.8,213.1z"/>
			</g>
			<path class="st5" d="M202.8,210c-1.4-6.4-5.3-11.6-12-12.2c-14.6-1.4-27.4,21-29.2,24.3c-0.2-0.7-0.5-1.4-0.7-2.2
				c0,0,13.7-26.2,29.5-24.7C197.9,195.9,201.9,202.5,202.8,210z"/>
			<path d="M180.2,236.8c-2.2,0-4.5-0.3-6.7-1.1c-6.8-2.3-11.5-8-13.9-16.9l-0.1-0.5l0.3-0.5c0.6-1.1,14.4-27.1,30.9-25.5
				c6.1,0.6,10.8,4.9,12.9,11.8c2.9,9.9-0.2,22.2-6.9,27.4C193.8,233.7,187.3,236.8,180.2,236.8z M162.4,218.7
				c2.2,7.7,6.2,12.5,11.9,14.4c8.2,2.7,17.5-1.4,20.4-3.7c5.8-4.5,8.5-15.7,5.9-24.4c-1-3.4-3.7-9.1-10.4-9.8
				C176.7,193.9,164.4,215.2,162.4,218.7z"/>
		</g>
		<path class="st2" d="M118.1,283.6c1.4,1.4,3.4,2,5.3,2.5c4.3,1.2,9.2,2.4,12.8-0.1c1.4-1,2.4-2.4,3.9-3.3
			c3.8-2.5,8.9-0.7,13.4,0.2c6.8,1.4,14,0.6,20.3-2.3c2.1-1,4.4-2.7,4.4-5c-4.5-0.4-9-0.8-13.5-1.2c-4.3-0.4-8.6-0.7-12.8-2
			c-2.8-0.8-5.5-2.1-8.3-2.4c-5.9-0.7-11.5,2.2-16.8,4.7c-1.7,0.8-3.5,1.6-5.4,1.9c-1.1,0.2-3.7-0.3-4.6,0.2
			C114.6,278.2,116.4,282,118.1,283.6z"/>
		<path class="st2" d="M148.4,249c1,1.6,6.2,7,5.2,8.7c-1.7,2.8-2.7,2.1-5.9,2.9c-3.2,0.8-6.5,0.8-9.8,0.7c-5.2-0.1-9,0.8-9.7-5.3
			c-0.4-3.5-0.3-6.3,2.5-8.5C135.6,243.9,145.1,243.8,148.4,249z"/>
		<g>
			<path class="st1" d="M138.7,252.7c0,0-5.9-1-6.7-3.4c-0.8-2.4,2-3.9,4.1-3.9s9.1-0.6,9.1,2S138.7,252.7,138.7,252.7z"/>
			<path d="M138.9,254.1l-0.4-0.1c-1.1-0.2-6.8-1.3-7.8-4.3c-0.4-1.2-0.2-2.5,0.5-3.5c1.2-1.6,3.3-2.3,4.9-2.3c0.3,0,0.6,0,1,0
				c3.5-0.1,7.1-0.1,8.7,1.5c0.5,0.5,0.8,1.2,0.8,1.9c0,3.2-5.6,5.9-7.3,6.7L138.9,254.1z M138.8,246.7c-0.5,0-1,0-1.6,0
				c-0.4,0-0.8,0-1.1,0c-1,0-2.2,0.5-2.6,1.1c-0.2,0.3-0.3,0.6-0.1,0.9c0.3,0.8,2.9,1.9,5.2,2.4c2.6-1.2,5.1-3,5.2-3.8
				C143.4,247,142.2,246.7,138.8,246.7z"/>
		</g>
		<g>
			<path class="st1" d="M113.8,273.2c0,0,5.5,3.8,8.5,2.8c3-1,12.3-9,18.5-9c6.2,0,22.6,7,26.3,7.2c3.7,0.2,11.2-2.7,12.3-3.3
				c1.2-0.7,5.2,0.5,0,3s-9.3,4.5-14.1,3c-4.8-1.5-18.6-6.3-22-5.7c-3.3,0.7-12,4.7-13.8,5.3S122,282,113.8,273.2z"/>
			<path d="M140.8,267.1c6.2,0,22.6,7,26.3,7.2c0.1,0,0.2,0,0.3,0c3.8,0,10.9-2.7,12-3.3c0.2-0.1,0.5-0.2,0.9-0.2
				c1.5,0,3.3,1.1-0.9,3.2c-3.9,1.9-7.3,3.5-10.8,3.5c-1.1,0-2.2-0.2-3.4-0.5c-4.5-1.4-16.9-5.7-21.2-5.7c-0.3,0-0.5,0-0.8,0.1
				c-3.3,0.7-12,4.7-13.8,5.3c-1,0.4-3.1,1.9-6.1,1.9c-2.6,0-5.8-1.2-9.6-5.2c0,0,4.3,3,7.4,3c0.4,0,0.8-0.1,1.1-0.2
				C125.3,275,134.6,267.1,140.8,267.1 M140.8,264.2c-5,0-10.8,3.7-15.4,6.7c-1.5,1-3.4,2.2-4,2.4c0,0-0.1,0-0.2,0
				c-1.5,0-4.3-1.5-5.7-2.5c-0.5-0.3-1.1-0.5-1.6-0.5c-0.8,0-1.6,0.3-2.1,1c-1,1.1-0.9,2.7,0.1,3.8c3.8,4.1,7.7,6.2,11.7,6.2
				c3,0,5.2-1.1,6.5-1.8c0.2-0.1,0.5-0.2,0.6-0.3c0.6-0.2,1.6-0.7,3-1.3c3.1-1.3,8.2-3.5,10.4-3.9c0,0,0,0,0,0c0,0,0.1,0,0.2,0
				c3.1,0,12.3,3,17.3,4.6c1.2,0.4,2.3,0.7,3.1,1c1.4,0.4,2.8,0.6,4.2,0.6c4.2,0,8-1.8,12-3.8c3.2-1.6,4.6-3.4,4.1-5.5
				c-0.4-1.8-2.2-3-4.5-3c-0.6,0-1.5,0.1-2.3,0.6c-1.1,0.6-7.6,3-10.6,3c-0.1,0-0.1,0-0.2,0c-1.1-0.1-5.4-1.5-8.8-2.6
				C152,266.6,144.8,264.2,140.8,264.2L140.8,264.2z"/>
		</g>
		<g>
			<g>
				<path class="st4" d="M111.5,233c-9,0-17.7-11.5-17.7-25.6c0-14.1,8-16.5,15-10.9c0.1,0.1,0.2,0.2,0.3,0.3c6.8,5.6,11.9,11,14,16
					c0.3,0.6,0.5,1.3,0.7,1.9C126.5,225,120.4,233,111.5,233z"/>
				<g>
					<path d="M123,212.9c-2.1,3.7-6.5,6.3-11.7,6.3c-7.2,0-13-5-13-11.2c0-5.5,4.6-10.1,10.7-11.1
						C115.8,202.4,120.9,207.8,123,212.9z"/>
					<path d="M111.4,219.7c-7.5,0-13.6-5.3-13.6-11.8c0-5.7,4.7-10.6,11.2-11.6l0.3,0l0.2,0.2c7.5,6.2,12.2,11.5,14.1,16.2l0.1,0.3
						l-0.1,0.2C121.2,217.2,116.6,219.7,111.4,219.7z M108.9,197.5c-5.8,1-10,5.4-10,10.5c0,5.9,5.6,10.7,12.4,10.7
						c4.7,0,8.9-2.2,11-5.7C120.5,208.4,116.1,203.4,108.9,197.5z"/>
				</g>
				<path class="st5" d="M123.3,226.7c0.5-2.4,0.4-5.2-0.3-8.1c-1.5-5.7-7.2-11.8-15-18.2c-5.2-4.3-11.1-4-13.7,2.6
					c2-8.8,8.6-9.7,14.4-5c7.8,6.4,13.4,12.5,15,18.2C124.8,220.2,124.5,223.8,123.3,226.7z"/>
				<path d="M111.5,234.5c-10.2,0-19.1-12.6-19.1-27c0-7.4,2.2-12.5,6.2-14.4c3.3-1.6,7.4-0.7,11.1,2.4c9.1,7.4,14,13.4,15.5,19v0
					c1.5,5.5,0.6,10.8-2.3,14.6C120.1,232.5,116.1,234.5,111.5,234.5z M101.9,195.2c-0.8,0-1.5,0.2-2.2,0.5
					c-2.9,1.4-4.5,5.7-4.5,11.8c0,13.8,8.6,24.2,16.3,24.2c3.7,0,6.9-1.5,9-4.3c2.4-3.2,3.1-7.5,1.8-12.2v0
					c-1.3-4.8-6-10.6-14.5-17.5C105.8,196,103.7,195.2,101.9,195.2z"/>
			</g>
			<g>
				<defs>
					<path id="SVGID_1_" d="M123.7,214.8c2.7,10.2-3.3,18.2-12.2,18.2s-17.7-11.5-17.7-25.6s8-16.5,15-10.9
						C116.5,203,122.2,209.1,123.7,214.8z"/>
				</defs>
				<clipPath id="SVGID_00000062874967950895710770000007704162280372633522_">
					<use xlink:href="#SVGID_1_"  style="overflow:visible;"/>
				</clipPath>
			</g>
		</g>
		<g>
			<g>
				<defs>
					<path id="SVGID_00000147181770513097292780000014328068996892905129_" d="M160.9,218.5c0,0,13.7-26.2,29.5-24.7
						s16,28.3,5.2,36.7C189.6,235.2,167.4,242.7,160.9,218.5z"/>
				</defs>
				<clipPath id="SVGID_00000032639174412862143990000008341477126971483564_">
					<use xlink:href="#SVGID_00000147181770513097292780000014328068996892905129_"  style="overflow:visible;"/>
				</clipPath>
			</g>
		</g>
		<g class="st2">
			<path d="M160.9,263c-0.2,0-0.4-0.1-0.5-0.3c-0.2-0.3-0.1-0.6,0.2-0.8c1.3-0.8,32.7-19.7,46.8-12.3c0.3,0.1,0.4,0.5,0.2,0.8
				c-0.1,0.3-0.5,0.4-0.8,0.2c-13.5-7.1-45.4,12.1-45.7,12.3C161.1,262.9,161,263,160.9,263z"/>
			<path d="M211.5,274.6c-0.2,0-0.3-0.1-0.4-0.2c-10.2-11.4-46.7-4.5-47.1-4.5c-0.3,0.1-0.6-0.1-0.7-0.5c-0.1-0.3,0.1-0.6,0.5-0.7
				c1.5-0.3,37.5-7,48.2,4.8c0.2,0.2,0.2,0.6,0,0.8C211.8,274.6,211.7,274.6,211.5,274.6z"/>
		</g>
		<g class="st2">
			<path d="M122.9,261.7c-0.1,0-0.2,0-0.3-0.1c-0.3-0.2-32.2-19.4-45.7-12.3c-0.3,0.1-0.6,0-0.8-0.2c-0.1-0.3,0-0.6,0.2-0.8
				c14.1-7.4,45.5,11.5,46.8,12.3c0.3,0.2,0.4,0.5,0.2,0.8C123.3,261.6,123.1,261.7,122.9,261.7z"/>
			<path d="M72.2,273.4c-0.1,0-0.3,0-0.4-0.1c-0.2-0.2-0.3-0.6,0-0.8c10.6-11.9,46.6-5.1,48.2-4.8c0.3,0.1,0.5,0.4,0.5,0.7
				c-0.1,0.3-0.4,0.5-0.7,0.5c-0.4-0.1-36.9-6.9-47.1,4.5C72.5,273.3,72.4,273.4,72.2,273.4z"/>
		</g>
		<g>
			<path class="st1" d="M160.9,260.7c-0.2,0-0.4-0.1-0.5-0.3c-0.2-0.3-0.1-0.6,0.2-0.8c1.3-0.8,32.7-19.7,46.8-12.3
				c0.3,0.1,0.4,0.5,0.2,0.8c-0.1,0.3-0.5,0.4-0.8,0.2c-13.5-7.1-45.4,12.1-45.7,12.3C161.1,260.7,161,260.7,160.9,260.7z"/>
			<path class="st1" d="M211.5,272.3c-0.2,0-0.3-0.1-0.4-0.2c-10.2-11.4-46.7-4.5-47.1-4.5c-0.3,0.1-0.6-0.1-0.7-0.5
				c-0.1-0.3,0.1-0.6,0.5-0.7c1.5-0.3,37.5-7,48.2,4.8c0.2,0.2,0.2,0.6,0,0.8C211.8,272.3,211.7,272.3,211.5,272.3z"/>
		</g>
		<g>
			<path class="st1" d="M122.9,259.5c-0.1,0-0.2,0-0.3-0.1c-0.3-0.2-32.2-19.4-45.7-12.3c-0.3,0.1-0.6,0-0.8-0.2
				c-0.1-0.3,0-0.6,0.2-0.8c14.1-7.4,45.5,11.5,46.8,12.3c0.3,0.2,0.4,0.5,0.2,0.8C123.3,259.4,123.1,259.5,122.9,259.5z"/>
			<path class="st1" d="M72.2,271.1c-0.1,0-0.3,0-0.4-0.1c-0.2-0.2-0.3-0.6,0-0.8c10.6-11.9,46.6-5.1,48.2-4.8
				c0.3,0.1,0.5,0.4,0.5,0.7c-0.1,0.3-0.4,0.5-0.7,0.5c-0.4-0.1-36.9-6.9-47.1,4.5C72.5,271,72.4,271.1,72.2,271.1z"/>
		</g>
		<g>
			<path class="st1" d="M290.2,60c-5.1,12.8-8,26.5-8.7,40.2c-0.2,4.6-0.2,9.3-0.5,14c-0.4,9.1-1.6,18-6.7,25.3c0,0,0,0.1-0.1,0.1
				c-0.5,0.8-1.1,1.5-1.9,1.9c-1,0.4-2.1,0.3-3.1,0.2c-6.6-0.9-12.8-3.2-18.7-6.1c0.4-0.2,0.7-0.3,0.8-0.4c2.9-2,4.2-5.5,6-8.4
				c9.5-15.6,19.1-31.4,24.1-49c0.8-2.8,1.5-5.7,3-8.2c0.8-1.4,1.9-2.6,2.7-4.1c0.9-1.6,1.4-3.4,2.1-5.2
				C289.5,60.2,289.9,60.1,290.2,60z"/>
			<path d="M270.7,143.3c-0.6,0-1.1-0.1-1.7-0.1c-6.2-0.9-12.5-2.9-19.1-6.2l-2.6-1.3l2.7-1.4c0.2-0.1,0.4-0.2,0.5-0.2
				c1.9-1.4,3.1-3.5,4.4-5.8c0.4-0.7,0.8-1.5,1.2-2.2c9.3-15.3,19-31.1,24-48.7l0.3-1c0.7-2.5,1.4-5.1,2.8-7.5
				c0.4-0.7,0.8-1.3,1.3-1.9c0.5-0.7,1-1.4,1.4-2.1c0.5-0.9,0.9-2,1.3-3.1c0.2-0.6,0.5-1.3,0.8-2l0.2-0.6l4.5-1.6l-1.2,2.9
				c-5,12.7-7.9,26.1-8.6,39.8c-0.1,2.3-0.2,4.7-0.2,7.1c-0.1,2.3-0.1,4.6-0.2,6.9c-0.4,8.9-1.6,18.2-7,26l-0.1,0.1
				c-0.7,0.9-1.4,1.9-2.5,2.4C272.2,143.1,271.4,143.3,270.7,143.3z M253.3,135.4c5.6,2.6,10.9,4.2,16.1,4.9
				c0.8,0.1,1.7,0.2,2.3-0.1c0.5-0.2,1-0.8,1.4-1.4l0.1-0.1c5-7.2,6.1-16.1,6.5-24.6c0.1-2.3,0.2-4.6,0.2-6.9
				c0.1-2.3,0.1-4.8,0.2-7.1c0.5-9.1,1.9-18.2,4.3-27c-0.5,1.3-0.8,2.6-1.2,3.9l-0.3,1c-5.1,17.9-14.9,33.9-24.3,49.4
				c-0.4,0.7-0.8,1.3-1.2,2.1C256.2,131.6,255.1,133.7,253.3,135.4z"/>
		</g>
		<path class="st2" d="M294.5,233.8c-9.5,22.5-30,66.4-78.4,73.4c-5.1,0.7-9.5,1.3-13.3,1.8c-32.5,4.1-22.3-0.1-31.7,1.2
			c-10.5,1.5-22.5,9.5-54.4-10c0,0-8.2-2.8-18.5-8c5.3-0.8,11.3,0.9,16.3,1.8c10.8,2,21.6,3.7,32.5,4.7c12.3,1.1,24.7,1.4,37,0
			c29.2-3.3,58.6-17,73.7-42.2c9.1-15.2,12.2-33.4,11.4-51c-0.8-17.7-5.4-34.9-10.9-51.7c-1.1-3.5-2.4-7-2.4-10.7
			c0-5.9,9.7-6.2,12.8-11.3c6-10.1,5.3-25.3,11.3-35.4c0.7-1.1,1.3-2.2,2.1-3.3c-0.2,1.5-0.3,3.1-0.4,4.6c-0.1,0.9-0.1,1.8-0.2,2.7
			c-0.2,4.6-0.2,9.3-0.5,14c-0.4,9.1-1.6,18-6.7,25.3c2.6,4.6,4.8,9.4,6.3,14.4C289.6,183.9,304,211.3,294.5,233.8z"/>
	</g>
</g>
</svg>
